<?xml version="1.0" encoding="utf-8" standalone="no"?>
<!DOCTYPE svg PUBLIC "-//W3C//DTD SVG 1.1//EN"
  "http://www.w3.org/Graphics/SVG/1.1/DTD/svg11.dtd">
<svg xmlns:xlink="http://www.w3.org/1999/xlink" width="460.8pt" height="345.6pt" viewBox="0 0 460.8 345.6" xmlns="http://www.w3.org/2000/svg" version="1.1">
 <metadata>
  <rdf:RDF xmlns:dc="http://purl.org/dc/elements/1.1/" xmlns:cc="http://creativecommons.org/ns#" xmlns:rdf="http://www.w3.org/1999/02/22-rdf-syntax-ns#">
   <cc:Work>
    <dc:type rdf:resource="http://purl.org/dc/dcmitype/StillImage"/>
    <dc:date>2022-07-20T15:53:35.711335</dc:date>
    <dc:format>image/svg+xml</dc:format>
    <dc:creator>
     <cc:Agent>
      <dc:title>Matplotlib v3.5.2, https://matplotlib.org/</dc:title>
     </cc:Agent>
    </dc:creator>
   </cc:Work>
  </rdf:RDF>
 </metadata>
 <defs>
  <style type="text/css">*{stroke-linejoin: round; stroke-linecap: butt}</style>
 </defs>
 <g id="figure_1">
  <g id="patch_1">
   <path d="M 0 345.6 
L 460.8 345.6 
L 460.8 0 
L 0 0 
z
" style="fill: #ffffff"/>
  </g>
  <g id="axes_1">
   <g id="patch_2">
    <path d="M 57.6 307.584 
L 414.72 307.584 
L 414.72 41.472 
L 57.6 41.472 
z
" style="fill: #ffffff"/>
   </g>
   <g id="patch_3">
    <path d="M 73.832727 295.469517 
L 80.325818 295.469517 
L 80.325818 295.469517 
L 73.832727 295.469517 
z
" clip-path="url(#pc346c6880f)" style="fill: #008000; opacity: 0.5"/>
   </g>
   <g id="patch_4">
    <path d="M 80.325818 295.469517 
L 86.818909 295.469517 
L 86.818909 295.469517 
L 80.325818 295.469517 
z
" clip-path="url(#pc346c6880f)" style="fill: #008000; opacity: 0.5"/>
   </g>
   <g id="patch_5">
    <path d="M 86.818909 295.469517 
L 93.312 295.469517 
L 93.312 295.469517 
L 86.818909 295.469517 
z
" clip-path="url(#pc346c6880f)" style="fill: #008000; opacity: 0.5"/>
   </g>
   <g id="patch_6">
    <path d="M 93.312 295.469517 
L 99.805091 295.469517 
L 99.805091 295.469517 
L 93.312 295.469517 
z
" clip-path="url(#pc346c6880f)" style="fill: #008000; opacity: 0.5"/>
   </g>
   <g id="patch_7">
    <path d="M 99.805091 295.469517 
L 106.298182 295.469517 
L 106.298182 295.469517 
L 99.805091 295.469517 
z
" clip-path="url(#pc346c6880f)" style="fill: #008000; opacity: 0.5"/>
   </g>
   <g id="patch_8">
    <path d="M 106.298182 295.469517 
L 112.791273 295.469517 
L 112.791273 295.469517 
L 106.298182 295.469517 
z
" clip-path="url(#pc346c6880f)" style="fill: #008000; opacity: 0.5"/>
   </g>
   <g id="patch_9">
    <path d="M 112.791273 295.469517 
L 119.284364 295.469517 
L 119.284364 295.469517 
L 112.791273 295.469517 
z
" clip-path="url(#pc346c6880f)" style="fill: #008000; opacity: 0.5"/>
   </g>
   <g id="patch_10">
    <path d="M 119.284364 295.469517 
L 125.777455 295.469517 
L 125.777455 295.469517 
L 119.284364 295.469517 
z
" clip-path="url(#pc346c6880f)" style="fill: #008000; opacity: 0.5"/>
   </g>
   <g id="patch_11">
    <path d="M 125.777455 295.469517 
L 132.270545 295.469517 
L 132.270545 295.319824 
L 125.777455 295.319824 
z
" clip-path="url(#pc346c6880f)" style="fill: #008000; opacity: 0.5"/>
   </g>
   <g id="patch_12">
    <path d="M 132.270545 295.469517 
L 138.763636 295.469517 
L 138.763636 295.170131 
L 132.270545 295.170131 
z
" clip-path="url(#pc346c6880f)" style="fill: #008000; opacity: 0.5"/>
   </g>
   <g id="patch_13">
    <path d="M 138.763636 295.469517 
L 145.256727 295.469517 
L 145.256727 294.346821 
L 138.763636 294.346821 
z
" clip-path="url(#pc346c6880f)" style="fill: #008000; opacity: 0.5"/>
   </g>
   <g id="patch_14">
    <path d="M 145.256727 295.469517 
L 151.749818 295.469517 
L 151.749818 292.775047 
L 145.256727 292.775047 
z
" clip-path="url(#pc346c6880f)" style="fill: #008000; opacity: 0.5"/>
   </g>
   <g id="patch_15">
    <path d="M 151.749818 295.469517 
L 158.242909 295.469517 
L 158.242909 289.706345 
L 151.749818 289.706345 
z
" clip-path="url(#pc346c6880f)" style="fill: #008000; opacity: 0.5"/>
   </g>
   <g id="patch_16">
    <path d="M 158.242909 295.469517 
L 164.736 295.469517 
L 164.736 283.419248 
L 158.242909 283.419248 
z
" clip-path="url(#pc346c6880f)" style="fill: #008000; opacity: 0.5"/>
   </g>
   <g id="patch_17">
    <path d="M 164.736 295.469517 
L 171.229091 295.469517 
L 171.229091 277.730922 
L 164.736 277.730922 
z
" clip-path="url(#pc346c6880f)" style="fill: #008000; opacity: 0.5"/>
   </g>
   <g id="patch_18">
    <path d="M 171.229091 295.469517 
L 177.722182 295.469517 
L 177.722182 263.659801 
L 171.229091 263.659801 
z
" clip-path="url(#pc346c6880f)" style="fill: #008000; opacity: 0.5"/>
   </g>
   <g id="patch_19">
    <path d="M 177.722182 295.469517 
L 184.215273 295.469517 
L 184.215273 251.160453 
L 177.722182 251.160453 
z
" clip-path="url(#pc346c6880f)" style="fill: #008000; opacity: 0.5"/>
   </g>
   <g id="patch_20">
    <path d="M 184.215273 295.469517 
L 190.708364 295.469517 
L 190.708364 226.012066 
L 184.215273 226.012066 
z
" clip-path="url(#pc346c6880f)" style="fill: #008000; opacity: 0.5"/>
   </g>
   <g id="patch_21">
    <path d="M 190.708364 295.469517 
L 197.201455 295.469517 
L 197.201455 202.659992 
L 190.708364 202.659992 
z
" clip-path="url(#pc346c6880f)" style="fill: #008000; opacity: 0.5"/>
   </g>
   <g id="patch_22">
    <path d="M 197.201455 295.469517 
L 203.694545 295.469517 
L 203.694545 172.197511 
L 197.201455 172.197511 
z
" clip-path="url(#pc346c6880f)" style="fill: #008000; opacity: 0.5"/>
   </g>
   <g id="patch_23">
    <path d="M 203.694545 295.469517 
L 210.187636 295.469517 
L 210.187636 139.564484 
L 203.694545 139.564484 
z
" clip-path="url(#pc346c6880f)" style="fill: #008000; opacity: 0.5"/>
   </g>
   <g id="patch_24">
    <path d="M 210.187636 295.469517 
L 216.680727 295.469517 
L 216.680727 115.089714 
L 210.187636 115.089714 
z
" clip-path="url(#pc346c6880f)" style="fill: #008000; opacity: 0.5"/>
   </g>
   <g id="patch_25">
    <path d="M 216.680727 295.469517 
L 223.173818 295.469517 
L 223.173818 85.076311 
L 216.680727 85.076311 
z
" clip-path="url(#pc346c6880f)" style="fill: #008000; opacity: 0.5"/>
   </g>
   <g id="patch_26">
    <path d="M 223.173818 295.469517 
L 229.666909 295.469517 
L 229.666909 61.424852 
L 223.173818 61.424852 
z
" clip-path="url(#pc346c6880f)" style="fill: #008000; opacity: 0.5"/>
   </g>
   <g id="patch_27">
    <path d="M 229.666909 295.469517 
L 236.16 295.469517 
L 236.16 66.589253 
L 229.666909 66.589253 
z
" clip-path="url(#pc346c6880f)" style="fill: #008000; opacity: 0.5"/>
   </g>
   <g id="patch_28">
    <path d="M 236.16 295.469517 
L 242.653091 295.469517 
L 242.653091 55.66168 
L 236.16 55.66168 
z
" clip-path="url(#pc346c6880f)" style="fill: #008000; opacity: 0.5"/>
   </g>
   <g id="patch_29">
    <path d="M 242.653091 295.469517 
L 249.146182 295.469517 
L 249.146182 69.508262 
L 242.653091 69.508262 
z
" clip-path="url(#pc346c6880f)" style="fill: #008000; opacity: 0.5"/>
   </g>
   <g id="patch_30">
    <path d="M 249.146182 295.469517 
L 255.639273 295.469517 
L 255.639273 84.926619 
L 249.146182 84.926619 
z
" clip-path="url(#pc346c6880f)" style="fill: #008000; opacity: 0.5"/>
   </g>
   <g id="patch_31">
    <path d="M 255.639273 295.469517 
L 262.132364 295.469517 
L 262.132364 105.209991 
L 255.639273 105.209991 
z
" clip-path="url(#pc346c6880f)" style="fill: #008000; opacity: 0.5"/>
   </g>
   <g id="patch_32">
    <path d="M 262.132364 295.469517 
L 268.625455 295.469517 
L 268.625455 126.466366 
L 262.132364 126.466366 
z
" clip-path="url(#pc346c6880f)" style="fill: #008000; opacity: 0.5"/>
   </g>
   <g id="patch_33">
    <path d="M 268.625455 295.469517 
L 275.118545 295.469517 
L 275.118545 158.949699 
L 268.625455 158.949699 
z
" clip-path="url(#pc346c6880f)" style="fill: #008000; opacity: 0.5"/>
   </g>
   <g id="patch_34">
    <path d="M 275.118545 295.469517 
L 281.611636 295.469517 
L 281.611636 183.050237 
L 275.118545 183.050237 
z
" clip-path="url(#pc346c6880f)" style="fill: #008000; opacity: 0.5"/>
   </g>
   <g id="patch_35">
    <path d="M 281.611636 295.469517 
L 288.104727 295.469517 
L 288.104727 209.096781 
L 281.611636 209.096781 
z
" clip-path="url(#pc346c6880f)" style="fill: #008000; opacity: 0.5"/>
   </g>
   <g id="patch_36">
    <path d="M 288.104727 295.469517 
L 294.597818 295.469517 
L 294.597818 231.625545 
L 288.104727 231.625545 
z
" clip-path="url(#pc346c6880f)" style="fill: #008000; opacity: 0.5"/>
   </g>
   <g id="patch_37">
    <path d="M 294.597818 295.469517 
L 301.090909 295.469517 
L 301.090909 247.268441 
L 294.597818 247.268441 
z
" clip-path="url(#pc346c6880f)" style="fill: #008000; opacity: 0.5"/>
   </g>
   <g id="patch_38">
    <path d="M 301.090909 295.469517 
L 307.584 295.469517 
L 307.584 259.169017 
L 301.090909 259.169017 
z
" clip-path="url(#pc346c6880f)" style="fill: #008000; opacity: 0.5"/>
   </g>
   <g id="patch_39">
    <path d="M 307.584 295.469517 
L 314.077091 295.469517 
L 314.077091 270.770208 
L 307.584 270.770208 
z
" clip-path="url(#pc346c6880f)" style="fill: #008000; opacity: 0.5"/>
   </g>
   <g id="patch_40">
    <path d="M 314.077091 295.469517 
L 320.570182 295.469517 
L 320.570182 281.323549 
L 314.077091 281.323549 
z
" clip-path="url(#pc346c6880f)" style="fill: #008000; opacity: 0.5"/>
   </g>
   <g id="patch_41">
    <path d="M 320.570182 295.469517 
L 327.063273 295.469517 
L 327.063273 287.086721 
L 320.570182 287.086721 
z
" clip-path="url(#pc346c6880f)" style="fill: #008000; opacity: 0.5"/>
   </g>
   <g id="patch_42">
    <path d="M 327.063273 295.469517 
L 333.556364 295.469517 
L 333.556364 289.706345 
L 327.063273 289.706345 
z
" clip-path="url(#pc346c6880f)" style="fill: #008000; opacity: 0.5"/>
   </g>
   <g id="patch_43">
    <path d="M 333.556364 295.469517 
L 340.049455 295.469517 
L 340.049455 291.652351 
L 333.556364 291.652351 
z
" clip-path="url(#pc346c6880f)" style="fill: #008000; opacity: 0.5"/>
   </g>
   <g id="patch_44">
    <path d="M 340.049455 295.469517 
L 346.542545 295.469517 
L 346.542545 292.475661 
L 340.049455 292.475661 
z
" clip-path="url(#pc346c6880f)" style="fill: #008000; opacity: 0.5"/>
   </g>
   <g id="patch_45">
    <path d="M 346.542545 295.469517 
L 353.035636 295.469517 
L 353.035636 293.897743 
L 346.542545 293.897743 
z
" clip-path="url(#pc346c6880f)" style="fill: #008000; opacity: 0.5"/>
   </g>
   <g id="patch_46">
    <path d="M 353.035636 295.469517 
L 359.528727 295.469517 
L 359.528727 294.421667 
L 353.035636 294.421667 
z
" clip-path="url(#pc346c6880f)" style="fill: #008000; opacity: 0.5"/>
   </g>
   <g id="patch_47">
    <path d="M 359.528727 295.469517 
L 366.021818 295.469517 
L 366.021818 294.870746 
L 359.528727 294.870746 
z
" clip-path="url(#pc346c6880f)" style="fill: #008000; opacity: 0.5"/>
   </g>
   <g id="patch_48">
    <path d="M 366.021818 295.469517 
L 372.514909 295.469517 
L 372.514909 295.244978 
L 366.021818 295.244978 
z
" clip-path="url(#pc346c6880f)" style="fill: #008000; opacity: 0.5"/>
   </g>
   <g id="patch_49">
    <path d="M 372.514909 295.469517 
L 379.008 295.469517 
L 379.008 295.319824 
L 372.514909 295.319824 
z
" clip-path="url(#pc346c6880f)" style="fill: #008000; opacity: 0.5"/>
   </g>
   <g id="patch_50">
    <path d="M 379.008 295.469517 
L 385.501091 295.469517 
L 385.501091 295.469517 
L 379.008 295.469517 
z
" clip-path="url(#pc346c6880f)" style="fill: #008000; opacity: 0.5"/>
   </g>
   <g id="patch_51">
    <path d="M 385.501091 295.469517 
L 391.994182 295.469517 
L 391.994182 295.39467 
L 385.501091 295.39467 
z
" clip-path="url(#pc346c6880f)" style="fill: #008000; opacity: 0.5"/>
   </g>
   <g id="patch_52">
    <path d="M 391.994182 295.469517 
L 398.487273 295.469517 
L 398.487273 295.39467 
L 391.994182 295.39467 
z
" clip-path="url(#pc346c6880f)" style="fill: #008000; opacity: 0.5"/>
   </g>
   <g id="matplotlib.axis_1">
    <g id="xtick_1">
     <g id="line2d_1">
      <defs>
       <path id="md0abadc48f" d="M 0 0 
L 0 3.5 
" style="stroke: #000000; stroke-width: 0.8"/>
      </defs>
      <g>
       <use xlink:href="#md0abadc48f" x="73.832727" y="307.584" style="stroke: #000000; stroke-width: 0.8"/>
      </g>
     </g>
     <g id="text_1">
      <!-- 0 -->
      <g transform="translate(70.651477 322.182437)scale(0.1 -0.1)">
       <defs>
        <path id="DejaVuSans-30" d="M 2034 4250 
Q 1547 4250 1301 3770 
Q 1056 3291 1056 2328 
Q 1056 1369 1301 889 
Q 1547 409 2034 409 
Q 2525 409 2770 889 
Q 3016 1369 3016 2328 
Q 3016 3291 2770 3770 
Q 2525 4250 2034 4250 
z
M 2034 4750 
Q 2819 4750 3233 4129 
Q 3647 3509 3647 2328 
Q 3647 1150 3233 529 
Q 2819 -91 2034 -91 
Q 1250 -91 836 529 
Q 422 1150 422 2328 
Q 422 3509 836 4129 
Q 1250 4750 2034 4750 
z
" transform="scale(0.015625)"/>
       </defs>
       <use xlink:href="#DejaVuSans-30"/>
      </g>
     </g>
    </g>
    <g id="xtick_2">
     <g id="line2d_2">
      <g>
       <use xlink:href="#md0abadc48f" x="138.763636" y="307.584" style="stroke: #000000; stroke-width: 0.8"/>
      </g>
     </g>
     <g id="text_2">
      <!-- 10 -->
      <g transform="translate(132.401136 322.182437)scale(0.1 -0.1)">
       <defs>
        <path id="DejaVuSans-31" d="M 794 531 
L 1825 531 
L 1825 4091 
L 703 3866 
L 703 4441 
L 1819 4666 
L 2450 4666 
L 2450 531 
L 3481 531 
L 3481 0 
L 794 0 
L 794 531 
z
" transform="scale(0.015625)"/>
       </defs>
       <use xlink:href="#DejaVuSans-31"/>
       <use xlink:href="#DejaVuSans-30" x="63.623047"/>
      </g>
     </g>
    </g>
    <g id="xtick_3">
     <g id="line2d_3">
      <g>
       <use xlink:href="#md0abadc48f" x="203.694545" y="307.584" style="stroke: #000000; stroke-width: 0.8"/>
      </g>
     </g>
     <g id="text_3">
      <!-- 20 -->
      <g transform="translate(197.332045 322.182437)scale(0.1 -0.1)">
       <defs>
        <path id="DejaVuSans-32" d="M 1228 531 
L 3431 531 
L 3431 0 
L 469 0 
L 469 531 
Q 828 903 1448 1529 
Q 2069 2156 2228 2338 
Q 2531 2678 2651 2914 
Q 2772 3150 2772 3378 
Q 2772 3750 2511 3984 
Q 2250 4219 1831 4219 
Q 1534 4219 1204 4116 
Q 875 4013 500 3803 
L 500 4441 
Q 881 4594 1212 4672 
Q 1544 4750 1819 4750 
Q 2544 4750 2975 4387 
Q 3406 4025 3406 3419 
Q 3406 3131 3298 2873 
Q 3191 2616 2906 2266 
Q 2828 2175 2409 1742 
Q 1991 1309 1228 531 
z
" transform="scale(0.015625)"/>
       </defs>
       <use xlink:href="#DejaVuSans-32"/>
       <use xlink:href="#DejaVuSans-30" x="63.623047"/>
      </g>
     </g>
    </g>
    <g id="xtick_4">
     <g id="line2d_4">
      <g>
       <use xlink:href="#md0abadc48f" x="268.625455" y="307.584" style="stroke: #000000; stroke-width: 0.8"/>
      </g>
     </g>
     <g id="text_4">
      <!-- 30 -->
      <g transform="translate(262.262955 322.182437)scale(0.1 -0.1)">
       <defs>
        <path id="DejaVuSans-33" d="M 2597 2516 
Q 3050 2419 3304 2112 
Q 3559 1806 3559 1356 
Q 3559 666 3084 287 
Q 2609 -91 1734 -91 
Q 1441 -91 1130 -33 
Q 819 25 488 141 
L 488 750 
Q 750 597 1062 519 
Q 1375 441 1716 441 
Q 2309 441 2620 675 
Q 2931 909 2931 1356 
Q 2931 1769 2642 2001 
Q 2353 2234 1838 2234 
L 1294 2234 
L 1294 2753 
L 1863 2753 
Q 2328 2753 2575 2939 
Q 2822 3125 2822 3475 
Q 2822 3834 2567 4026 
Q 2313 4219 1838 4219 
Q 1578 4219 1281 4162 
Q 984 4106 628 3988 
L 628 4550 
Q 988 4650 1302 4700 
Q 1616 4750 1894 4750 
Q 2613 4750 3031 4423 
Q 3450 4097 3450 3541 
Q 3450 3153 3228 2886 
Q 3006 2619 2597 2516 
z
" transform="scale(0.015625)"/>
       </defs>
       <use xlink:href="#DejaVuSans-33"/>
       <use xlink:href="#DejaVuSans-30" x="63.623047"/>
      </g>
     </g>
    </g>
    <g id="xtick_5">
     <g id="line2d_5">
      <g>
       <use xlink:href="#md0abadc48f" x="333.556364" y="307.584" style="stroke: #000000; stroke-width: 0.8"/>
      </g>
     </g>
     <g id="text_5">
      <!-- 40 -->
      <g transform="translate(327.193864 322.182437)scale(0.1 -0.1)">
       <defs>
        <path id="DejaVuSans-34" d="M 2419 4116 
L 825 1625 
L 2419 1625 
L 2419 4116 
z
M 2253 4666 
L 3047 4666 
L 3047 1625 
L 3713 1625 
L 3713 1100 
L 3047 1100 
L 3047 0 
L 2419 0 
L 2419 1100 
L 313 1100 
L 313 1709 
L 2253 4666 
z
" transform="scale(0.015625)"/>
       </defs>
       <use xlink:href="#DejaVuSans-34"/>
       <use xlink:href="#DejaVuSans-30" x="63.623047"/>
      </g>
     </g>
    </g>
    <g id="xtick_6">
     <g id="line2d_6">
      <g>
       <use xlink:href="#md0abadc48f" x="398.487273" y="307.584" style="stroke: #000000; stroke-width: 0.8"/>
      </g>
     </g>
     <g id="text_6">
      <!-- 50 -->
      <g transform="translate(392.124773 322.182437)scale(0.1 -0.1)">
       <defs>
        <path id="DejaVuSans-35" d="M 691 4666 
L 3169 4666 
L 3169 4134 
L 1269 4134 
L 1269 2991 
Q 1406 3038 1543 3061 
Q 1681 3084 1819 3084 
Q 2600 3084 3056 2656 
Q 3513 2228 3513 1497 
Q 3513 744 3044 326 
Q 2575 -91 1722 -91 
Q 1428 -91 1123 -41 
Q 819 9 494 109 
L 494 744 
Q 775 591 1075 516 
Q 1375 441 1709 441 
Q 2250 441 2565 725 
Q 2881 1009 2881 1497 
Q 2881 1984 2565 2268 
Q 2250 2553 1709 2553 
Q 1456 2553 1204 2497 
Q 953 2441 691 2322 
L 691 4666 
z
" transform="scale(0.015625)"/>
       </defs>
       <use xlink:href="#DejaVuSans-35"/>
       <use xlink:href="#DejaVuSans-30" x="63.623047"/>
      </g>
     </g>
    </g>
   </g>
   <g id="matplotlib.axis_2">
    <g id="ytick_1">
     <g id="line2d_7">
      <defs>
       <path id="m81cdc950d0" d="M 0 0 
L -3.5 0 
" style="stroke: #000000; stroke-width: 0.8"/>
      </defs>
      <g>
       <use xlink:href="#m81cdc950d0" x="57.6" y="295.469517" style="stroke: #000000; stroke-width: 0.8"/>
      </g>
     </g>
     <g id="text_7">
      <!-- 0 -->
      <g transform="translate(44.2375 299.268735)scale(0.1 -0.1)">
       <use xlink:href="#DejaVuSans-30"/>
      </g>
     </g>
    </g>
    <g id="ytick_2">
     <g id="line2d_8">
      <g>
       <use xlink:href="#m81cdc950d0" x="57.6" y="258.046321" style="stroke: #000000; stroke-width: 0.8"/>
      </g>
     </g>
     <g id="text_8">
      <!-- 500 -->
      <g transform="translate(31.5125 261.84554)scale(0.1 -0.1)">
       <use xlink:href="#DejaVuSans-35"/>
       <use xlink:href="#DejaVuSans-30" x="63.623047"/>
       <use xlink:href="#DejaVuSans-30" x="127.246094"/>
      </g>
     </g>
    </g>
    <g id="ytick_3">
     <g id="line2d_9">
      <g>
       <use xlink:href="#m81cdc950d0" x="57.6" y="220.623126" style="stroke: #000000; stroke-width: 0.8"/>
      </g>
     </g>
     <g id="text_9">
      <!-- 1000 -->
      <g transform="translate(25.15 224.422344)scale(0.1 -0.1)">
       <use xlink:href="#DejaVuSans-31"/>
       <use xlink:href="#DejaVuSans-30" x="63.623047"/>
       <use xlink:href="#DejaVuSans-30" x="127.246094"/>
       <use xlink:href="#DejaVuSans-30" x="190.869141"/>
      </g>
     </g>
    </g>
    <g id="ytick_4">
     <g id="line2d_10">
      <g>
       <use xlink:href="#m81cdc950d0" x="57.6" y="183.19993" style="stroke: #000000; stroke-width: 0.8"/>
      </g>
     </g>
     <g id="text_10">
      <!-- 1500 -->
      <g transform="translate(25.15 186.999149)scale(0.1 -0.1)">
       <use xlink:href="#DejaVuSans-31"/>
       <use xlink:href="#DejaVuSans-35" x="63.623047"/>
       <use xlink:href="#DejaVuSans-30" x="127.246094"/>
       <use xlink:href="#DejaVuSans-30" x="190.869141"/>
      </g>
     </g>
    </g>
    <g id="ytick_5">
     <g id="line2d_11">
      <g>
       <use xlink:href="#m81cdc950d0" x="57.6" y="145.776735" style="stroke: #000000; stroke-width: 0.8"/>
      </g>
     </g>
     <g id="text_11">
      <!-- 2000 -->
      <g transform="translate(25.15 149.575953)scale(0.1 -0.1)">
       <use xlink:href="#DejaVuSans-32"/>
       <use xlink:href="#DejaVuSans-30" x="63.623047"/>
       <use xlink:href="#DejaVuSans-30" x="127.246094"/>
       <use xlink:href="#DejaVuSans-30" x="190.869141"/>
      </g>
     </g>
    </g>
    <g id="ytick_6">
     <g id="line2d_12">
      <g>
       <use xlink:href="#m81cdc950d0" x="57.6" y="108.353539" style="stroke: #000000; stroke-width: 0.8"/>
      </g>
     </g>
     <g id="text_12">
      <!-- 2500 -->
      <g transform="translate(25.15 112.152758)scale(0.1 -0.1)">
       <use xlink:href="#DejaVuSans-32"/>
       <use xlink:href="#DejaVuSans-35" x="63.623047"/>
       <use xlink:href="#DejaVuSans-30" x="127.246094"/>
       <use xlink:href="#DejaVuSans-30" x="190.869141"/>
      </g>
     </g>
    </g>
    <g id="ytick_7">
     <g id="line2d_13">
      <g>
       <use xlink:href="#m81cdc950d0" x="57.6" y="70.930344" style="stroke: #000000; stroke-width: 0.8"/>
      </g>
     </g>
     <g id="text_13">
      <!-- 3000 -->
      <g transform="translate(25.15 74.729562)scale(0.1 -0.1)">
       <use xlink:href="#DejaVuSans-33"/>
       <use xlink:href="#DejaVuSans-30" x="63.623047"/>
       <use xlink:href="#DejaVuSans-30" x="127.246094"/>
       <use xlink:href="#DejaVuSans-30" x="190.869141"/>
      </g>
     </g>
    </g>
   </g>
   <g id="line2d_14">
    <path d="M 203.694545 150.584433 
L 268.625455 150.584433 
" clip-path="url(#pc346c6880f)" style="fill: none; stroke: #ff0000; stroke-width: 5; stroke-linecap: square"/>
   </g>
   <g id="line2d_15">
    <path d="M 77.079273 295.468056 
L 83.572364 295.465703 
L 90.065455 295.459946 
L 96.558545 295.446443 
L 103.051636 295.416069 
L 109.544727 295.350568 
L 116.037818 295.215171 
L 122.530909 294.94698 
L 129.024 294.438092 
L 135.517091 293.51344 
L 142.010182 291.905312 
L 148.503273 289.229762 
L 154.996364 284.974076 
L 161.489455 278.508104 
L 167.982545 269.133409 
L 174.475636 256.180661 
L 180.968727 239.155645 
L 187.461818 217.91812 
L 193.954909 192.858951 
L 200.448 165.025923 
L 206.941091 136.145351 
L 213.434182 108.500877 
L 219.927273 84.662964 
L 226.420364 67.105504 
L 232.913455 57.785792 
L 239.406545 57.785792 
L 245.899636 67.105504 
L 252.392727 84.662964 
L 258.885818 108.500877 
L 265.378909 136.145351 
L 271.872 165.025923 
L 278.365091 192.858951 
L 284.858182 217.91812 
L 291.351273 239.155645 
L 297.844364 256.180661 
L 304.337455 269.133409 
L 310.830545 278.508104 
L 317.323636 284.974076 
L 323.816727 289.229762 
L 330.309818 291.905312 
L 336.802909 293.51344 
L 343.296 294.438092 
L 349.789091 294.94698 
L 356.282182 295.215171 
L 362.775273 295.350568 
L 369.268364 295.416069 
L 375.761455 295.446443 
L 382.254545 295.459946 
L 388.747636 295.465703 
L 395.240727 295.468056 
" clip-path="url(#pc346c6880f)" style="fill: none; stroke: #ff0000; stroke-width: 5; stroke-linecap: square"/>
   </g>
   <g id="LineCollection_1">
    <path d="M 77.079273 295.478511 
L 77.079273 295.457601 
" clip-path="url(#pc346c6880f)" style="fill: none; stroke: #000000; stroke-width: 3"/>
    <path d="M 83.572364 295.482598 
L 83.572364 295.448807 
" clip-path="url(#pc346c6880f)" style="fill: none; stroke: #000000; stroke-width: 3"/>
    <path d="M 90.065455 295.48671 
L 90.065455 295.433182 
" clip-path="url(#pc346c6880f)" style="fill: none; stroke: #000000; stroke-width: 3"/>
    <path d="M 96.558545 295.488 
L 96.558545 295.404886 
" clip-path="url(#pc346c6880f)" style="fill: none; stroke: #000000; stroke-width: 3"/>
    <path d="M 103.051636 295.479318 
L 103.051636 295.352821 
" clip-path="url(#pc346c6880f)" style="fill: none; stroke: #000000; stroke-width: 3"/>
    <path d="M 109.544727 295.444923 
L 109.544727 295.256212 
" clip-path="url(#pc346c6880f)" style="fill: none; stroke: #000000; stroke-width: 3"/>
    <path d="M 116.037818 295.353145 
L 116.037818 295.077196 
" clip-path="url(#pc346c6880f)" style="fill: none; stroke: #000000; stroke-width: 3"/>
    <path d="M 122.530909 295.144742 
L 122.530909 294.749217 
" clip-path="url(#pc346c6880f)" style="fill: none; stroke: #000000; stroke-width: 3"/>
    <path d="M 129.024 294.715938 
L 129.024 294.160246 
" clip-path="url(#pc346c6880f)" style="fill: none; stroke: #000000; stroke-width: 3"/>
    <path d="M 135.517091 293.896069 
L 135.517091 293.13081 
" clip-path="url(#pc346c6880f)" style="fill: none; stroke: #000000; stroke-width: 3"/>
    <path d="M 142.010182 292.421808 
L 142.010182 291.388816 
" clip-path="url(#pc346c6880f)" style="fill: none; stroke: #000000; stroke-width: 3"/>
    <path d="M 148.503273 289.913153 
L 148.503273 288.546371 
" clip-path="url(#pc346c6880f)" style="fill: none; stroke: #000000; stroke-width: 3"/>
    <path d="M 154.996364 285.860387 
L 154.996364 284.087766 
" clip-path="url(#pc346c6880f)" style="fill: none; stroke: #000000; stroke-width: 3"/>
    <path d="M 161.489455 279.634825 
L 161.489455 277.381383 
" clip-path="url(#pc346c6880f)" style="fill: none; stroke: #000000; stroke-width: 3"/>
    <path d="M 167.982545 270.53739 
L 167.982545 267.729428 
" clip-path="url(#pc346c6880f)" style="fill: none; stroke: #000000; stroke-width: 3"/>
    <path d="M 174.475636 257.895488 
L 174.475636 254.465835 
" clip-path="url(#pc346c6880f)" style="fill: none; stroke: #000000; stroke-width: 3"/>
    <path d="M 180.968727 241.208664 
L 180.968727 237.102625 
" clip-path="url(#pc346c6880f)" style="fill: none; stroke: #000000; stroke-width: 3"/>
    <path d="M 187.461818 220.327361 
L 187.461818 215.508879 
" clip-path="url(#pc346c6880f)" style="fill: none; stroke: #000000; stroke-width: 3"/>
    <path d="M 193.954909 195.630238 
L 193.954909 190.087665 
" clip-path="url(#pc346c6880f)" style="fill: none; stroke: #000000; stroke-width: 3"/>
    <path d="M 200.448 168.15054 
L 200.448 161.901306 
" clip-path="url(#pc346c6880f)" style="fill: none; stroke: #000000; stroke-width: 3"/>
    <path d="M 206.941091 139.598587 
L 206.941091 132.692115 
" clip-path="url(#pc346c6880f)" style="fill: none; stroke: #000000; stroke-width: 3"/>
    <path d="M 213.434182 112.241723 
L 213.434182 104.760031 
" clip-path="url(#pc346c6880f)" style="fill: none; stroke: #000000; stroke-width: 3"/>
    <path d="M 219.927273 88.635131 
L 219.927273 80.690797 
" clip-path="url(#pc346c6880f)" style="fill: none; stroke: #000000; stroke-width: 3"/>
    <path d="M 226.420364 71.239778 
L 226.420364 62.97123 
" clip-path="url(#pc346c6880f)" style="fill: none; stroke: #000000; stroke-width: 3"/>
    <path d="M 232.913455 62.003584 
L 232.913455 53.568 
" clip-path="url(#pc346c6880f)" style="fill: none; stroke: #000000; stroke-width: 3"/>
    <path d="M 239.406545 62.003584 
L 239.406545 53.568 
" clip-path="url(#pc346c6880f)" style="fill: none; stroke: #000000; stroke-width: 3"/>
    <path d="M 245.899636 71.239778 
L 245.899636 62.97123 
" clip-path="url(#pc346c6880f)" style="fill: none; stroke: #000000; stroke-width: 3"/>
    <path d="M 252.392727 88.635131 
L 252.392727 80.690797 
" clip-path="url(#pc346c6880f)" style="fill: none; stroke: #000000; stroke-width: 3"/>
    <path d="M 258.885818 112.241723 
L 258.885818 104.760031 
" clip-path="url(#pc346c6880f)" style="fill: none; stroke: #000000; stroke-width: 3"/>
    <path d="M 265.378909 139.598587 
L 265.378909 132.692115 
" clip-path="url(#pc346c6880f)" style="fill: none; stroke: #000000; stroke-width: 3"/>
    <path d="M 271.872 168.15054 
L 271.872 161.901306 
" clip-path="url(#pc346c6880f)" style="fill: none; stroke: #000000; stroke-width: 3"/>
    <path d="M 278.365091 195.630238 
L 278.365091 190.087665 
" clip-path="url(#pc346c6880f)" style="fill: none; stroke: #000000; stroke-width: 3"/>
    <path d="M 284.858182 220.327361 
L 284.858182 215.508879 
" clip-path="url(#pc346c6880f)" style="fill: none; stroke: #000000; stroke-width: 3"/>
    <path d="M 291.351273 241.208664 
L 291.351273 237.102625 
" clip-path="url(#pc346c6880f)" style="fill: none; stroke: #000000; stroke-width: 3"/>
    <path d="M 297.844364 257.895488 
L 297.844364 254.465835 
" clip-path="url(#pc346c6880f)" style="fill: none; stroke: #000000; stroke-width: 3"/>
    <path d="M 304.337455 270.53739 
L 304.337455 267.729428 
" clip-path="url(#pc346c6880f)" style="fill: none; stroke: #000000; stroke-width: 3"/>
    <path d="M 310.830545 279.634825 
L 310.830545 277.381383 
" clip-path="url(#pc346c6880f)" style="fill: none; stroke: #000000; stroke-width: 3"/>
    <path d="M 317.323636 285.860387 
L 317.323636 284.087766 
" clip-path="url(#pc346c6880f)" style="fill: none; stroke: #000000; stroke-width: 3"/>
    <path d="M 323.816727 289.913153 
L 323.816727 288.546371 
" clip-path="url(#pc346c6880f)" style="fill: none; stroke: #000000; stroke-width: 3"/>
    <path d="M 330.309818 292.421808 
L 330.309818 291.388816 
" clip-path="url(#pc346c6880f)" style="fill: none; stroke: #000000; stroke-width: 3"/>
    <path d="M 336.802909 293.896069 
L 336.802909 293.13081 
" clip-path="url(#pc346c6880f)" style="fill: none; stroke: #000000; stroke-width: 3"/>
    <path d="M 343.296 294.715938 
L 343.296 294.160246 
" clip-path="url(#pc346c6880f)" style="fill: none; stroke: #000000; stroke-width: 3"/>
    <path d="M 349.789091 295.144742 
L 349.789091 294.749217 
" clip-path="url(#pc346c6880f)" style="fill: none; stroke: #000000; stroke-width: 3"/>
    <path d="M 356.282182 295.353145 
L 356.282182 295.077196 
" clip-path="url(#pc346c6880f)" style="fill: none; stroke: #000000; stroke-width: 3"/>
    <path d="M 362.775273 295.444923 
L 362.775273 295.256212 
" clip-path="url(#pc346c6880f)" style="fill: none; stroke: #000000; stroke-width: 3"/>
    <path d="M 369.268364 295.479318 
L 369.268364 295.352821 
" clip-path="url(#pc346c6880f)" style="fill: none; stroke: #000000; stroke-width: 3"/>
    <path d="M 375.761455 295.488 
L 375.761455 295.404886 
" clip-path="url(#pc346c6880f)" style="fill: none; stroke: #000000; stroke-width: 3"/>
    <path d="M 382.254545 295.48671 
L 382.254545 295.433182 
" clip-path="url(#pc346c6880f)" style="fill: none; stroke: #000000; stroke-width: 3"/>
    <path d="M 388.747636 295.482598 
L 388.747636 295.448807 
" clip-path="url(#pc346c6880f)" style="fill: none; stroke: #000000; stroke-width: 3"/>
    <path d="M 395.240727 295.478511 
L 395.240727 295.457601 
" clip-path="url(#pc346c6880f)" style="fill: none; stroke: #000000; stroke-width: 3"/>
   </g>
   <g id="line2d_16">
    <defs>
     <path id="md7cbb66947" d="M 0 2.5 
C 0.663008 2.5 1.29895 2.236584 1.767767 1.767767 
C 2.236584 1.29895 2.5 0.663008 2.5 0 
C 2.5 -0.663008 2.236584 -1.29895 1.767767 -1.767767 
C 1.29895 -2.236584 0.663008 -2.5 0 -2.5 
C -0.663008 -2.5 -1.29895 -2.236584 -1.767767 -1.767767 
C -2.236584 -1.29895 -2.5 -0.663008 -2.5 0 
C -2.5 0.663008 -2.236584 1.29895 -1.767767 1.767767 
C -1.29895 2.236584 -0.663008 2.5 0 2.5 
z
" style="stroke: #000000; stroke-width: 3"/>
    </defs>
    <g clip-path="url(#pc346c6880f)">
     <use xlink:href="#md7cbb66947" x="77.079273" y="295.468056" style="stroke: #000000; stroke-width: 3"/>
     <use xlink:href="#md7cbb66947" x="83.572364" y="295.465703" style="stroke: #000000; stroke-width: 3"/>
     <use xlink:href="#md7cbb66947" x="90.065455" y="295.459946" style="stroke: #000000; stroke-width: 3"/>
     <use xlink:href="#md7cbb66947" x="96.558545" y="295.446443" style="stroke: #000000; stroke-width: 3"/>
     <use xlink:href="#md7cbb66947" x="103.051636" y="295.416069" style="stroke: #000000; stroke-width: 3"/>
     <use xlink:href="#md7cbb66947" x="109.544727" y="295.350568" style="stroke: #000000; stroke-width: 3"/>
     <use xlink:href="#md7cbb66947" x="116.037818" y="295.215171" style="stroke: #000000; stroke-width: 3"/>
     <use xlink:href="#md7cbb66947" x="122.530909" y="294.94698" style="stroke: #000000; stroke-width: 3"/>
     <use xlink:href="#md7cbb66947" x="129.024" y="294.438092" style="stroke: #000000; stroke-width: 3"/>
     <use xlink:href="#md7cbb66947" x="135.517091" y="293.51344" style="stroke: #000000; stroke-width: 3"/>
     <use xlink:href="#md7cbb66947" x="142.010182" y="291.905312" style="stroke: #000000; stroke-width: 3"/>
     <use xlink:href="#md7cbb66947" x="148.503273" y="289.229762" style="stroke: #000000; stroke-width: 3"/>
     <use xlink:href="#md7cbb66947" x="154.996364" y="284.974076" style="stroke: #000000; stroke-width: 3"/>
     <use xlink:href="#md7cbb66947" x="161.489455" y="278.508104" style="stroke: #000000; stroke-width: 3"/>
     <use xlink:href="#md7cbb66947" x="167.982545" y="269.133409" style="stroke: #000000; stroke-width: 3"/>
     <use xlink:href="#md7cbb66947" x="174.475636" y="256.180661" style="stroke: #000000; stroke-width: 3"/>
     <use xlink:href="#md7cbb66947" x="180.968727" y="239.155645" style="stroke: #000000; stroke-width: 3"/>
     <use xlink:href="#md7cbb66947" x="187.461818" y="217.91812" style="stroke: #000000; stroke-width: 3"/>
     <use xlink:href="#md7cbb66947" x="193.954909" y="192.858951" style="stroke: #000000; stroke-width: 3"/>
     <use xlink:href="#md7cbb66947" x="200.448" y="165.025923" style="stroke: #000000; stroke-width: 3"/>
     <use xlink:href="#md7cbb66947" x="206.941091" y="136.145351" style="stroke: #000000; stroke-width: 3"/>
     <use xlink:href="#md7cbb66947" x="213.434182" y="108.500877" style="stroke: #000000; stroke-width: 3"/>
     <use xlink:href="#md7cbb66947" x="219.927273" y="84.662964" style="stroke: #000000; stroke-width: 3"/>
     <use xlink:href="#md7cbb66947" x="226.420364" y="67.105504" style="stroke: #000000; stroke-width: 3"/>
     <use xlink:href="#md7cbb66947" x="232.913455" y="57.785792" style="stroke: #000000; stroke-width: 3"/>
     <use xlink:href="#md7cbb66947" x="239.406545" y="57.785792" style="stroke: #000000; stroke-width: 3"/>
     <use xlink:href="#md7cbb66947" x="245.899636" y="67.105504" style="stroke: #000000; stroke-width: 3"/>
     <use xlink:href="#md7cbb66947" x="252.392727" y="84.662964" style="stroke: #000000; stroke-width: 3"/>
     <use xlink:href="#md7cbb66947" x="258.885818" y="108.500877" style="stroke: #000000; stroke-width: 3"/>
     <use xlink:href="#md7cbb66947" x="265.378909" y="136.145351" style="stroke: #000000; stroke-width: 3"/>
     <use xlink:href="#md7cbb66947" x="271.872" y="165.025923" style="stroke: #000000; stroke-width: 3"/>
     <use xlink:href="#md7cbb66947" x="278.365091" y="192.858951" style="stroke: #000000; stroke-width: 3"/>
     <use xlink:href="#md7cbb66947" x="284.858182" y="217.91812" style="stroke: #000000; stroke-width: 3"/>
     <use xlink:href="#md7cbb66947" x="291.351273" y="239.155645" style="stroke: #000000; stroke-width: 3"/>
     <use xlink:href="#md7cbb66947" x="297.844364" y="256.180661" style="stroke: #000000; stroke-width: 3"/>
     <use xlink:href="#md7cbb66947" x="304.337455" y="269.133409" style="stroke: #000000; stroke-width: 3"/>
     <use xlink:href="#md7cbb66947" x="310.830545" y="278.508104" style="stroke: #000000; stroke-width: 3"/>
     <use xlink:href="#md7cbb66947" x="317.323636" y="284.974076" style="stroke: #000000; stroke-width: 3"/>
     <use xlink:href="#md7cbb66947" x="323.816727" y="289.229762" style="stroke: #000000; stroke-width: 3"/>
     <use xlink:href="#md7cbb66947" x="330.309818" y="291.905312" style="stroke: #000000; stroke-width: 3"/>
     <use xlink:href="#md7cbb66947" x="336.802909" y="293.51344" style="stroke: #000000; stroke-width: 3"/>
     <use xlink:href="#md7cbb66947" x="343.296" y="294.438092" style="stroke: #000000; stroke-width: 3"/>
     <use xlink:href="#md7cbb66947" x="349.789091" y="294.94698" style="stroke: #000000; stroke-width: 3"/>
     <use xlink:href="#md7cbb66947" x="356.282182" y="295.215171" style="stroke: #000000; stroke-width: 3"/>
     <use xlink:href="#md7cbb66947" x="362.775273" y="295.350568" style="stroke: #000000; stroke-width: 3"/>
     <use xlink:href="#md7cbb66947" x="369.268364" y="295.416069" style="stroke: #000000; stroke-width: 3"/>
     <use xlink:href="#md7cbb66947" x="375.761455" y="295.446443" style="stroke: #000000; stroke-width: 3"/>
     <use xlink:href="#md7cbb66947" x="382.254545" y="295.459946" style="stroke: #000000; stroke-width: 3"/>
     <use xlink:href="#md7cbb66947" x="388.747636" y="295.465703" style="stroke: #000000; stroke-width: 3"/>
     <use xlink:href="#md7cbb66947" x="395.240727" y="295.468056" style="stroke: #000000; stroke-width: 3"/>
    </g>
   </g>
   <g id="patch_53">
    <path d="M 57.6 307.584 
L 57.6 41.472 
" style="fill: none; stroke: #000000; stroke-width: 0.8; stroke-linejoin: miter; stroke-linecap: square"/>
   </g>
   <g id="patch_54">
    <path d="M 414.72 307.584 
L 414.72 41.472 
" style="fill: none; stroke: #000000; stroke-width: 0.8; stroke-linejoin: miter; stroke-linecap: square"/>
   </g>
   <g id="patch_55">
    <path d="M 57.6 307.584 
L 414.72 307.584 
" style="fill: none; stroke: #000000; stroke-width: 0.8; stroke-linejoin: miter; stroke-linecap: square"/>
   </g>
   <g id="patch_56">
    <path d="M 57.6 41.472 
L 414.72 41.472 
" style="fill: none; stroke: #000000; stroke-width: 0.8; stroke-linejoin: miter; stroke-linecap: square"/>
   </g>
   <g id="patch_57">
    <path d="M 123.54576 235.121237 
Q 141.448153 256.548014 158.633695 277.116814 
" style="fill: none; stroke: #000000; stroke-linecap: round"/>
    <path d="M 157.603801 272.764881 
L 158.633695 277.116814 
L 154.534212 275.329569 
" style="fill: none; stroke: #000000; stroke-linecap: round"/>
   </g>
   <g id="text_14">
    <!-- One percent -->
    <g transform="translate(85.634059 229.510983)scale(0.1 -0.1)">
     <defs>
      <path id="DejaVuSans-4f" d="M 2522 4238 
Q 1834 4238 1429 3725 
Q 1025 3213 1025 2328 
Q 1025 1447 1429 934 
Q 1834 422 2522 422 
Q 3209 422 3611 934 
Q 4013 1447 4013 2328 
Q 4013 3213 3611 3725 
Q 3209 4238 2522 4238 
z
M 2522 4750 
Q 3503 4750 4090 4092 
Q 4678 3434 4678 2328 
Q 4678 1225 4090 567 
Q 3503 -91 2522 -91 
Q 1538 -91 948 565 
Q 359 1222 359 2328 
Q 359 3434 948 4092 
Q 1538 4750 2522 4750 
z
" transform="scale(0.015625)"/>
      <path id="DejaVuSans-6e" d="M 3513 2113 
L 3513 0 
L 2938 0 
L 2938 2094 
Q 2938 2591 2744 2837 
Q 2550 3084 2163 3084 
Q 1697 3084 1428 2787 
Q 1159 2491 1159 1978 
L 1159 0 
L 581 0 
L 581 3500 
L 1159 3500 
L 1159 2956 
Q 1366 3272 1645 3428 
Q 1925 3584 2291 3584 
Q 2894 3584 3203 3211 
Q 3513 2838 3513 2113 
z
" transform="scale(0.015625)"/>
      <path id="DejaVuSans-65" d="M 3597 1894 
L 3597 1613 
L 953 1613 
Q 991 1019 1311 708 
Q 1631 397 2203 397 
Q 2534 397 2845 478 
Q 3156 559 3463 722 
L 3463 178 
Q 3153 47 2828 -22 
Q 2503 -91 2169 -91 
Q 1331 -91 842 396 
Q 353 884 353 1716 
Q 353 2575 817 3079 
Q 1281 3584 2069 3584 
Q 2775 3584 3186 3129 
Q 3597 2675 3597 1894 
z
M 3022 2063 
Q 3016 2534 2758 2815 
Q 2500 3097 2075 3097 
Q 1594 3097 1305 2825 
Q 1016 2553 972 2059 
L 3022 2063 
z
" transform="scale(0.015625)"/>
      <path id="DejaVuSans-20" transform="scale(0.015625)"/>
      <path id="DejaVuSans-70" d="M 1159 525 
L 1159 -1331 
L 581 -1331 
L 581 3500 
L 1159 3500 
L 1159 2969 
Q 1341 3281 1617 3432 
Q 1894 3584 2278 3584 
Q 2916 3584 3314 3078 
Q 3713 2572 3713 1747 
Q 3713 922 3314 415 
Q 2916 -91 2278 -91 
Q 1894 -91 1617 61 
Q 1341 213 1159 525 
z
M 3116 1747 
Q 3116 2381 2855 2742 
Q 2594 3103 2138 3103 
Q 1681 3103 1420 2742 
Q 1159 2381 1159 1747 
Q 1159 1113 1420 752 
Q 1681 391 2138 391 
Q 2594 391 2855 752 
Q 3116 1113 3116 1747 
z
" transform="scale(0.015625)"/>
      <path id="DejaVuSans-72" d="M 2631 2963 
Q 2534 3019 2420 3045 
Q 2306 3072 2169 3072 
Q 1681 3072 1420 2755 
Q 1159 2438 1159 1844 
L 1159 0 
L 581 0 
L 581 3500 
L 1159 3500 
L 1159 2956 
Q 1341 3275 1631 3429 
Q 1922 3584 2338 3584 
Q 2397 3584 2469 3576 
Q 2541 3569 2628 3553 
L 2631 2963 
z
" transform="scale(0.015625)"/>
      <path id="DejaVuSans-63" d="M 3122 3366 
L 3122 2828 
Q 2878 2963 2633 3030 
Q 2388 3097 2138 3097 
Q 1578 3097 1268 2742 
Q 959 2388 959 1747 
Q 959 1106 1268 751 
Q 1578 397 2138 397 
Q 2388 397 2633 464 
Q 2878 531 3122 666 
L 3122 134 
Q 2881 22 2623 -34 
Q 2366 -91 2075 -91 
Q 1284 -91 818 406 
Q 353 903 353 1747 
Q 353 2603 823 3093 
Q 1294 3584 2113 3584 
Q 2378 3584 2631 3529 
Q 2884 3475 3122 3366 
z
" transform="scale(0.015625)"/>
      <path id="DejaVuSans-74" d="M 1172 4494 
L 1172 3500 
L 2356 3500 
L 2356 3053 
L 1172 3053 
L 1172 1153 
Q 1172 725 1289 603 
Q 1406 481 1766 481 
L 2356 481 
L 2356 0 
L 1766 0 
Q 1100 0 847 248 
Q 594 497 594 1153 
L 594 3053 
L 172 3053 
L 172 3500 
L 594 3500 
L 594 4494 
L 1172 4494 
z
" transform="scale(0.015625)"/>
     </defs>
     <use xlink:href="#DejaVuSans-4f"/>
     <use xlink:href="#DejaVuSans-6e" x="78.710938"/>
     <use xlink:href="#DejaVuSans-65" x="142.089844"/>
     <use xlink:href="#DejaVuSans-20" x="203.613281"/>
     <use xlink:href="#DejaVuSans-70" x="235.400391"/>
     <use xlink:href="#DejaVuSans-65" x="298.876953"/>
     <use xlink:href="#DejaVuSans-72" x="360.400391"/>
     <use xlink:href="#DejaVuSans-63" x="399.263672"/>
     <use xlink:href="#DejaVuSans-65" x="454.244141"/>
     <use xlink:href="#DejaVuSans-6e" x="515.767578"/>
     <use xlink:href="#DejaVuSans-74" x="579.146484"/>
    </g>
   </g>
   <g id="patch_58">
    <path d="M 359.915803 234.947457 
Q 336.53533 256.550595 313.976021 277.394991 
" style="fill: none; stroke: #000000; stroke-linecap: round"/>
    <path d="M 318.271187 276.149379 
L 313.976021 277.394991 
L 315.556631 273.211491 
" style="fill: none; stroke: #000000; stroke-linecap: round"/>
   </g>
   <g id="text_15">
    <!-- 99 percent -->
    <g transform="translate(341.685941 229.510983)scale(0.1 -0.1)">
     <defs>
      <path id="DejaVuSans-39" d="M 703 97 
L 703 672 
Q 941 559 1184 500 
Q 1428 441 1663 441 
Q 2288 441 2617 861 
Q 2947 1281 2994 2138 
Q 2813 1869 2534 1725 
Q 2256 1581 1919 1581 
Q 1219 1581 811 2004 
Q 403 2428 403 3163 
Q 403 3881 828 4315 
Q 1253 4750 1959 4750 
Q 2769 4750 3195 4129 
Q 3622 3509 3622 2328 
Q 3622 1225 3098 567 
Q 2575 -91 1691 -91 
Q 1453 -91 1209 -44 
Q 966 3 703 97 
z
M 1959 2075 
Q 2384 2075 2632 2365 
Q 2881 2656 2881 3163 
Q 2881 3666 2632 3958 
Q 2384 4250 1959 4250 
Q 1534 4250 1286 3958 
Q 1038 3666 1038 3163 
Q 1038 2656 1286 2365 
Q 1534 2075 1959 2075 
z
" transform="scale(0.015625)"/>
     </defs>
     <use xlink:href="#DejaVuSans-39"/>
     <use xlink:href="#DejaVuSans-39" x="63.623047"/>
     <use xlink:href="#DejaVuSans-20" x="127.246094"/>
     <use xlink:href="#DejaVuSans-70" x="159.033203"/>
     <use xlink:href="#DejaVuSans-65" x="222.509766"/>
     <use xlink:href="#DejaVuSans-72" x="284.033203"/>
     <use xlink:href="#DejaVuSans-63" x="322.896484"/>
     <use xlink:href="#DejaVuSans-65" x="377.876953"/>
     <use xlink:href="#DejaVuSans-6e" x="439.400391"/>
     <use xlink:href="#DejaVuSans-74" x="502.779297"/>
    </g>
   </g>
   <g id="patch_59">
    <path d="M 171.607384 125.884964 
Q 186.857795 137.624147 201.222252 148.681356 
" style="fill: none; stroke: #000000; stroke-linecap: round"/>
    <path d="M 199.27252 144.656615 
L 201.222252 148.681356 
L 196.832619 147.826297 
" style="fill: none; stroke: #000000; stroke-linecap: round"/>
   </g>
   <g id="text_16">
    <!-- One Sigma -->
    <g transform="translate(133.694545 120.584433)scale(0.1 -0.1)">
     <defs>
      <path id="DejaVuSans-53" d="M 3425 4513 
L 3425 3897 
Q 3066 4069 2747 4153 
Q 2428 4238 2131 4238 
Q 1616 4238 1336 4038 
Q 1056 3838 1056 3469 
Q 1056 3159 1242 3001 
Q 1428 2844 1947 2747 
L 2328 2669 
Q 3034 2534 3370 2195 
Q 3706 1856 3706 1288 
Q 3706 609 3251 259 
Q 2797 -91 1919 -91 
Q 1588 -91 1214 -16 
Q 841 59 441 206 
L 441 856 
Q 825 641 1194 531 
Q 1563 422 1919 422 
Q 2459 422 2753 634 
Q 3047 847 3047 1241 
Q 3047 1584 2836 1778 
Q 2625 1972 2144 2069 
L 1759 2144 
Q 1053 2284 737 2584 
Q 422 2884 422 3419 
Q 422 4038 858 4394 
Q 1294 4750 2059 4750 
Q 2388 4750 2728 4690 
Q 3069 4631 3425 4513 
z
" transform="scale(0.015625)"/>
      <path id="DejaVuSans-69" d="M 603 3500 
L 1178 3500 
L 1178 0 
L 603 0 
L 603 3500 
z
M 603 4863 
L 1178 4863 
L 1178 4134 
L 603 4134 
L 603 4863 
z
" transform="scale(0.015625)"/>
      <path id="DejaVuSans-67" d="M 2906 1791 
Q 2906 2416 2648 2759 
Q 2391 3103 1925 3103 
Q 1463 3103 1205 2759 
Q 947 2416 947 1791 
Q 947 1169 1205 825 
Q 1463 481 1925 481 
Q 2391 481 2648 825 
Q 2906 1169 2906 1791 
z
M 3481 434 
Q 3481 -459 3084 -895 
Q 2688 -1331 1869 -1331 
Q 1566 -1331 1297 -1286 
Q 1028 -1241 775 -1147 
L 775 -588 
Q 1028 -725 1275 -790 
Q 1522 -856 1778 -856 
Q 2344 -856 2625 -561 
Q 2906 -266 2906 331 
L 2906 616 
Q 2728 306 2450 153 
Q 2172 0 1784 0 
Q 1141 0 747 490 
Q 353 981 353 1791 
Q 353 2603 747 3093 
Q 1141 3584 1784 3584 
Q 2172 3584 2450 3431 
Q 2728 3278 2906 2969 
L 2906 3500 
L 3481 3500 
L 3481 434 
z
" transform="scale(0.015625)"/>
      <path id="DejaVuSans-6d" d="M 3328 2828 
Q 3544 3216 3844 3400 
Q 4144 3584 4550 3584 
Q 5097 3584 5394 3201 
Q 5691 2819 5691 2113 
L 5691 0 
L 5113 0 
L 5113 2094 
Q 5113 2597 4934 2840 
Q 4756 3084 4391 3084 
Q 3944 3084 3684 2787 
Q 3425 2491 3425 1978 
L 3425 0 
L 2847 0 
L 2847 2094 
Q 2847 2600 2669 2842 
Q 2491 3084 2119 3084 
Q 1678 3084 1418 2786 
Q 1159 2488 1159 1978 
L 1159 0 
L 581 0 
L 581 3500 
L 1159 3500 
L 1159 2956 
Q 1356 3278 1631 3431 
Q 1906 3584 2284 3584 
Q 2666 3584 2933 3390 
Q 3200 3197 3328 2828 
z
" transform="scale(0.015625)"/>
      <path id="DejaVuSans-61" d="M 2194 1759 
Q 1497 1759 1228 1600 
Q 959 1441 959 1056 
Q 959 750 1161 570 
Q 1363 391 1709 391 
Q 2188 391 2477 730 
Q 2766 1069 2766 1631 
L 2766 1759 
L 2194 1759 
z
M 3341 1997 
L 3341 0 
L 2766 0 
L 2766 531 
Q 2569 213 2275 61 
Q 1981 -91 1556 -91 
Q 1019 -91 701 211 
Q 384 513 384 1019 
Q 384 1609 779 1909 
Q 1175 2209 1959 2209 
L 2766 2209 
L 2766 2266 
Q 2766 2663 2505 2880 
Q 2244 3097 1772 3097 
Q 1472 3097 1187 3025 
Q 903 2953 641 2809 
L 641 3341 
Q 956 3463 1253 3523 
Q 1550 3584 1831 3584 
Q 2591 3584 2966 3190 
Q 3341 2797 3341 1997 
z
" transform="scale(0.015625)"/>
     </defs>
     <use xlink:href="#DejaVuSans-4f"/>
     <use xlink:href="#DejaVuSans-6e" x="78.710938"/>
     <use xlink:href="#DejaVuSans-65" x="142.089844"/>
     <use xlink:href="#DejaVuSans-20" x="203.613281"/>
     <use xlink:href="#DejaVuSans-53" x="235.400391"/>
     <use xlink:href="#DejaVuSans-69" x="298.876953"/>
     <use xlink:href="#DejaVuSans-67" x="326.660156"/>
     <use xlink:href="#DejaVuSans-6d" x="390.136719"/>
     <use xlink:href="#DejaVuSans-61" x="487.548828"/>
    </g>
   </g>
   <g id="patch_60">
    <path d="M 312.334382 125.657159 
Q 291.348281 137.625567 271.333377 149.040101 
" style="fill: none; stroke: #000000; stroke-linecap: round"/>
    <path d="M 275.798836 148.795826 
L 271.333377 149.040101 
L 273.817233 145.321168 
" style="fill: none; stroke: #000000; stroke-linecap: round"/>
   </g>
   <g id="text_17">
    <!-- One Sigma -->
    <g transform="translate(298.625455 120.584433)scale(0.1 -0.1)">
     <use xlink:href="#DejaVuSans-4f"/>
     <use xlink:href="#DejaVuSans-6e" x="78.710938"/>
     <use xlink:href="#DejaVuSans-65" x="142.089844"/>
     <use xlink:href="#DejaVuSans-20" x="203.613281"/>
     <use xlink:href="#DejaVuSans-53" x="235.400391"/>
     <use xlink:href="#DejaVuSans-69" x="298.876953"/>
     <use xlink:href="#DejaVuSans-67" x="326.660156"/>
     <use xlink:href="#DejaVuSans-6d" x="390.136719"/>
     <use xlink:href="#DejaVuSans-61" x="487.548828"/>
    </g>
   </g>
   <g id="text_18">
    <g id="patch_61">
     <path d="M 135.535313 41.927625 
L 336.784688 41.927625 
L 336.784688 22.393875 
L 135.535313 22.393875 
z
" style="fill: #ffffff; stroke: #ffffff; stroke-linejoin: miter"/>
    </g>
    <!-- 25 Events Counted 40000 times -->
    <g transform="translate(139.495313 35.472)scale(0.12 -0.12)">
     <defs>
      <path id="DejaVuSans-45" d="M 628 4666 
L 3578 4666 
L 3578 4134 
L 1259 4134 
L 1259 2753 
L 3481 2753 
L 3481 2222 
L 1259 2222 
L 1259 531 
L 3634 531 
L 3634 0 
L 628 0 
L 628 4666 
z
" transform="scale(0.015625)"/>
      <path id="DejaVuSans-76" d="M 191 3500 
L 800 3500 
L 1894 563 
L 2988 3500 
L 3597 3500 
L 2284 0 
L 1503 0 
L 191 3500 
z
" transform="scale(0.015625)"/>
      <path id="DejaVuSans-73" d="M 2834 3397 
L 2834 2853 
Q 2591 2978 2328 3040 
Q 2066 3103 1784 3103 
Q 1356 3103 1142 2972 
Q 928 2841 928 2578 
Q 928 2378 1081 2264 
Q 1234 2150 1697 2047 
L 1894 2003 
Q 2506 1872 2764 1633 
Q 3022 1394 3022 966 
Q 3022 478 2636 193 
Q 2250 -91 1575 -91 
Q 1294 -91 989 -36 
Q 684 19 347 128 
L 347 722 
Q 666 556 975 473 
Q 1284 391 1588 391 
Q 1994 391 2212 530 
Q 2431 669 2431 922 
Q 2431 1156 2273 1281 
Q 2116 1406 1581 1522 
L 1381 1569 
Q 847 1681 609 1914 
Q 372 2147 372 2553 
Q 372 3047 722 3315 
Q 1072 3584 1716 3584 
Q 2034 3584 2315 3537 
Q 2597 3491 2834 3397 
z
" transform="scale(0.015625)"/>
      <path id="DejaVuSans-43" d="M 4122 4306 
L 4122 3641 
Q 3803 3938 3442 4084 
Q 3081 4231 2675 4231 
Q 1875 4231 1450 3742 
Q 1025 3253 1025 2328 
Q 1025 1406 1450 917 
Q 1875 428 2675 428 
Q 3081 428 3442 575 
Q 3803 722 4122 1019 
L 4122 359 
Q 3791 134 3420 21 
Q 3050 -91 2638 -91 
Q 1578 -91 968 557 
Q 359 1206 359 2328 
Q 359 3453 968 4101 
Q 1578 4750 2638 4750 
Q 3056 4750 3426 4639 
Q 3797 4528 4122 4306 
z
" transform="scale(0.015625)"/>
      <path id="DejaVuSans-6f" d="M 1959 3097 
Q 1497 3097 1228 2736 
Q 959 2375 959 1747 
Q 959 1119 1226 758 
Q 1494 397 1959 397 
Q 2419 397 2687 759 
Q 2956 1122 2956 1747 
Q 2956 2369 2687 2733 
Q 2419 3097 1959 3097 
z
M 1959 3584 
Q 2709 3584 3137 3096 
Q 3566 2609 3566 1747 
Q 3566 888 3137 398 
Q 2709 -91 1959 -91 
Q 1206 -91 779 398 
Q 353 888 353 1747 
Q 353 2609 779 3096 
Q 1206 3584 1959 3584 
z
" transform="scale(0.015625)"/>
      <path id="DejaVuSans-75" d="M 544 1381 
L 544 3500 
L 1119 3500 
L 1119 1403 
Q 1119 906 1312 657 
Q 1506 409 1894 409 
Q 2359 409 2629 706 
Q 2900 1003 2900 1516 
L 2900 3500 
L 3475 3500 
L 3475 0 
L 2900 0 
L 2900 538 
Q 2691 219 2414 64 
Q 2138 -91 1772 -91 
Q 1169 -91 856 284 
Q 544 659 544 1381 
z
M 1991 3584 
L 1991 3584 
z
" transform="scale(0.015625)"/>
      <path id="DejaVuSans-64" d="M 2906 2969 
L 2906 4863 
L 3481 4863 
L 3481 0 
L 2906 0 
L 2906 525 
Q 2725 213 2448 61 
Q 2172 -91 1784 -91 
Q 1150 -91 751 415 
Q 353 922 353 1747 
Q 353 2572 751 3078 
Q 1150 3584 1784 3584 
Q 2172 3584 2448 3432 
Q 2725 3281 2906 2969 
z
M 947 1747 
Q 947 1113 1208 752 
Q 1469 391 1925 391 
Q 2381 391 2643 752 
Q 2906 1113 2906 1747 
Q 2906 2381 2643 2742 
Q 2381 3103 1925 3103 
Q 1469 3103 1208 2742 
Q 947 2381 947 1747 
z
" transform="scale(0.015625)"/>
     </defs>
     <use xlink:href="#DejaVuSans-32"/>
     <use xlink:href="#DejaVuSans-35" x="63.623047"/>
     <use xlink:href="#DejaVuSans-20" x="127.246094"/>
     <use xlink:href="#DejaVuSans-45" x="159.033203"/>
     <use xlink:href="#DejaVuSans-76" x="222.216797"/>
     <use xlink:href="#DejaVuSans-65" x="281.396484"/>
     <use xlink:href="#DejaVuSans-6e" x="342.919922"/>
     <use xlink:href="#DejaVuSans-74" x="406.298828"/>
     <use xlink:href="#DejaVuSans-73" x="445.507812"/>
     <use xlink:href="#DejaVuSans-20" x="497.607422"/>
     <use xlink:href="#DejaVuSans-43" x="529.394531"/>
     <use xlink:href="#DejaVuSans-6f" x="599.21875"/>
     <use xlink:href="#DejaVuSans-75" x="660.400391"/>
     <use xlink:href="#DejaVuSans-6e" x="723.779297"/>
     <use xlink:href="#DejaVuSans-74" x="787.158203"/>
     <use xlink:href="#DejaVuSans-65" x="826.367188"/>
     <use xlink:href="#DejaVuSans-64" x="887.890625"/>
     <use xlink:href="#DejaVuSans-20" x="951.367188"/>
     <use xlink:href="#DejaVuSans-34" x="983.154297"/>
     <use xlink:href="#DejaVuSans-30" x="1046.777344"/>
     <use xlink:href="#DejaVuSans-30" x="1110.400391"/>
     <use xlink:href="#DejaVuSans-30" x="1174.023438"/>
     <use xlink:href="#DejaVuSans-30" x="1237.646484"/>
     <use xlink:href="#DejaVuSans-20" x="1301.269531"/>
     <use xlink:href="#DejaVuSans-74" x="1333.056641"/>
     <use xlink:href="#DejaVuSans-69" x="1372.265625"/>
     <use xlink:href="#DejaVuSans-6d" x="1400.048828"/>
     <use xlink:href="#DejaVuSans-65" x="1497.460938"/>
     <use xlink:href="#DejaVuSans-73" x="1558.984375"/>
    </g>
   </g>
  </g>
 </g>
 <defs>
  <clipPath id="pc346c6880f">
   <rect x="57.6" y="41.472" width="357.12" height="266.112"/>
  </clipPath>
 </defs>
</svg>
