<?xml version="1.0" encoding="utf-8" standalone="no"?>
<!DOCTYPE svg PUBLIC "-//W3C//DTD SVG 1.1//EN"
  "http://www.w3.org/Graphics/SVG/1.1/DTD/svg11.dtd">
<svg xmlns:xlink="http://www.w3.org/1999/xlink" width="460.8pt" height="345.6pt" viewBox="0 0 460.8 345.6" xmlns="http://www.w3.org/2000/svg" version="1.1">
 <metadata>
  <rdf:RDF xmlns:dc="http://purl.org/dc/elements/1.1/" xmlns:cc="http://creativecommons.org/ns#" xmlns:rdf="http://www.w3.org/1999/02/22-rdf-syntax-ns#">
   <cc:Work>
    <dc:type rdf:resource="http://purl.org/dc/dcmitype/StillImage"/>
    <dc:date>2022-07-21T14:51:26.110895</dc:date>
    <dc:format>image/svg+xml</dc:format>
    <dc:creator>
     <cc:Agent>
      <dc:title>Matplotlib v3.5.2, https://matplotlib.org/</dc:title>
     </cc:Agent>
    </dc:creator>
   </cc:Work>
  </rdf:RDF>
 </metadata>
 <defs>
  <style type="text/css">*{stroke-linejoin: round; stroke-linecap: butt}</style>
 </defs>
 <g id="figure_1">
  <g id="patch_1">
   <path d="M 0 345.6 
L 460.8 345.6 
L 460.8 0 
L 0 0 
z
" style="fill: #ffffff"/>
  </g>
  <g id="axes_1">
   <g id="patch_2">
    <path d="M 57.6 307.584 
L 414.72 307.584 
L 414.72 41.472 
L 57.6 41.472 
z
" style="fill: #ffffff"/>
   </g>
   <g id="patch_3">
    <path d="M 73.832727 307.584 
L 79.243636 307.584 
L 79.243636 54.144 
L 73.832727 54.144 
z
" clip-path="url(#p5c7672e372)" style="fill: #0000ff; opacity: 0.5"/>
   </g>
   <g id="patch_4">
    <path d="M 79.243636 307.584 
L 84.654545 307.584 
L 84.654545 75.381989 
L 79.243636 75.381989 
z
" clip-path="url(#p5c7672e372)" style="fill: #0000ff; opacity: 0.5"/>
   </g>
   <g id="patch_5">
    <path d="M 84.654545 307.584 
L 90.065455 307.584 
L 90.065455 55.559866 
L 84.654545 55.559866 
z
" clip-path="url(#p5c7672e372)" style="fill: #0000ff; opacity: 0.5"/>
   </g>
   <g id="patch_6">
    <path d="M 90.065455 307.584 
L 95.476364 307.584 
L 95.476364 55.559866 
L 90.065455 55.559866 
z
" clip-path="url(#p5c7672e372)" style="fill: #0000ff; opacity: 0.5"/>
   </g>
   <g id="patch_7">
    <path d="M 95.476364 307.584 
L 100.887273 307.584 
L 100.887273 70.780425 
L 95.476364 70.780425 
z
" clip-path="url(#p5c7672e372)" style="fill: #0000ff; opacity: 0.5"/>
   </g>
   <g id="patch_8">
    <path d="M 100.887273 307.584 
L 106.298182 307.584 
L 106.298182 70.780425 
L 100.887273 70.780425 
z
" clip-path="url(#p5c7672e372)" style="fill: #0000ff; opacity: 0.5"/>
   </g>
   <g id="patch_9">
    <path d="M 106.298182 307.584 
L 111.709091 307.584 
L 111.709091 70.780425 
L 106.298182 70.780425 
z
" clip-path="url(#p5c7672e372)" style="fill: #0000ff; opacity: 0.5"/>
   </g>
   <g id="patch_10">
    <path d="M 111.709091 307.584 
L 117.12 307.584 
L 117.12 77.505788 
L 111.709091 77.505788 
z
" clip-path="url(#p5c7672e372)" style="fill: #0000ff; opacity: 0.5"/>
   </g>
   <g id="patch_11">
    <path d="M 117.12 307.584 
L 122.530909 307.584 
L 122.530909 72.904223 
L 117.12 72.904223 
z
" clip-path="url(#p5c7672e372)" style="fill: #0000ff; opacity: 0.5"/>
   </g>
   <g id="patch_12">
    <path d="M 122.530909 307.584 
L 127.941818 307.584 
L 127.941818 71.488358 
L 122.530909 71.488358 
z
" clip-path="url(#p5c7672e372)" style="fill: #0000ff; opacity: 0.5"/>
   </g>
   <g id="patch_13">
    <path d="M 127.941818 307.584 
L 133.352727 307.584 
L 133.352727 85.647017 
L 127.941818 85.647017 
z
" clip-path="url(#p5c7672e372)" style="fill: #0000ff; opacity: 0.5"/>
   </g>
   <g id="patch_14">
    <path d="M 133.352727 307.584 
L 138.763636 307.584 
L 138.763636 75.735955 
L 133.352727 75.735955 
z
" clip-path="url(#p5c7672e372)" style="fill: #0000ff; opacity: 0.5"/>
   </g>
   <g id="patch_15">
    <path d="M 138.763636 307.584 
L 144.174545 307.584 
L 144.174545 89.540648 
L 138.763636 89.540648 
z
" clip-path="url(#p5c7672e372)" style="fill: #0000ff; opacity: 0.5"/>
   </g>
   <g id="patch_16">
    <path d="M 144.174545 307.584 
L 149.585455 307.584 
L 149.585455 92.018413 
L 144.174545 92.018413 
z
" clip-path="url(#p5c7672e372)" style="fill: #0000ff; opacity: 0.5"/>
   </g>
   <g id="patch_17">
    <path d="M 149.585455 307.584 
L 154.996364 307.584 
L 154.996364 95.558078 
L 149.585455 95.558078 
z
" clip-path="url(#p5c7672e372)" style="fill: #0000ff; opacity: 0.5"/>
   </g>
   <g id="patch_18">
    <path d="M 154.996364 307.584 
L 160.407273 307.584 
L 160.407273 109.716737 
L 154.996364 109.716737 
z
" clip-path="url(#p5c7672e372)" style="fill: #0000ff; opacity: 0.5"/>
   </g>
   <g id="patch_19">
    <path d="M 160.407273 307.584 
L 165.818182 307.584 
L 165.818182 89.540648 
L 160.407273 89.540648 
z
" clip-path="url(#p5c7672e372)" style="fill: #0000ff; opacity: 0.5"/>
   </g>
   <g id="patch_20">
    <path d="M 165.818182 307.584 
L 171.229091 307.584 
L 171.229091 92.726346 
L 165.818182 92.726346 
z
" clip-path="url(#p5c7672e372)" style="fill: #0000ff; opacity: 0.5"/>
   </g>
   <g id="patch_21">
    <path d="M 171.229091 307.584 
L 176.64 307.584 
L 176.64 112.194503 
L 171.229091 112.194503 
z
" clip-path="url(#p5c7672e372)" style="fill: #0000ff; opacity: 0.5"/>
   </g>
   <g id="patch_22">
    <path d="M 176.64 307.584 
L 182.050909 307.584 
L 182.050909 95.558078 
L 176.64 95.558078 
z
" clip-path="url(#p5c7672e372)" style="fill: #0000ff; opacity: 0.5"/>
   </g>
   <g id="patch_23">
    <path d="M 182.050909 307.584 
L 187.461818 307.584 
L 187.461818 105.823106 
L 182.050909 105.823106 
z
" clip-path="url(#p5c7672e372)" style="fill: #0000ff; opacity: 0.5"/>
   </g>
   <g id="patch_24">
    <path d="M 187.461818 307.584 
L 192.872727 307.584 
L 192.872727 113.610369 
L 187.461818 113.610369 
z
" clip-path="url(#p5c7672e372)" style="fill: #0000ff; opacity: 0.5"/>
   </g>
   <g id="patch_25">
    <path d="M 192.872727 307.584 
L 198.283636 307.584 
L 198.283636 94.496179 
L 192.872727 94.496179 
z
" clip-path="url(#p5c7672e372)" style="fill: #0000ff; opacity: 0.5"/>
   </g>
   <g id="patch_26">
    <path d="M 198.283636 307.584 
L 203.694545 307.584 
L 203.694545 110.070704 
L 198.283636 110.070704 
z
" clip-path="url(#p5c7672e372)" style="fill: #0000ff; opacity: 0.5"/>
   </g>
   <g id="patch_27">
    <path d="M 203.694545 307.584 
L 209.105455 307.584 
L 209.105455 121.043665 
L 203.694545 121.043665 
z
" clip-path="url(#p5c7672e372)" style="fill: #0000ff; opacity: 0.5"/>
   </g>
   <g id="patch_28">
    <path d="M 209.105455 307.584 
L 214.516364 307.584 
L 214.516364 113.256402 
L 209.105455 113.256402 
z
" clip-path="url(#p5c7672e372)" style="fill: #0000ff; opacity: 0.5"/>
   </g>
   <g id="patch_29">
    <path d="M 214.516364 307.584 
L 219.927273 307.584 
L 219.927273 123.167464 
L 214.516364 123.167464 
z
" clip-path="url(#p5c7672e372)" style="fill: #0000ff; opacity: 0.5"/>
   </g>
   <g id="patch_30">
    <path d="M 219.927273 307.584 
L 225.338182 307.584 
L 225.338182 129.184894 
L 219.927273 129.184894 
z
" clip-path="url(#p5c7672e372)" style="fill: #0000ff; opacity: 0.5"/>
   </g>
   <g id="patch_31">
    <path d="M 225.338182 307.584 
L 230.749091 307.584 
L 230.749091 135.910257 
L 225.338182 135.910257 
z
" clip-path="url(#p5c7672e372)" style="fill: #0000ff; opacity: 0.5"/>
   </g>
   <g id="patch_32">
    <path d="M 230.749091 307.584 
L 236.16 307.584 
L 236.16 116.796067 
L 230.749091 116.796067 
z
" clip-path="url(#p5c7672e372)" style="fill: #0000ff; opacity: 0.5"/>
   </g>
   <g id="patch_33">
    <path d="M 236.16 307.584 
L 241.570909 307.584 
L 241.570909 97.681877 
L 236.16 97.681877 
z
" clip-path="url(#p5c7672e372)" style="fill: #0000ff; opacity: 0.5"/>
   </g>
   <g id="patch_34">
    <path d="M 241.570909 307.584 
L 246.981818 307.584 
L 246.981818 101.575508 
L 241.570909 101.575508 
z
" clip-path="url(#p5c7672e372)" style="fill: #0000ff; opacity: 0.5"/>
   </g>
   <g id="patch_35">
    <path d="M 246.981818 307.584 
L 252.392727 307.584 
L 252.392727 95.558078 
L 246.981818 95.558078 
z
" clip-path="url(#p5c7672e372)" style="fill: #0000ff; opacity: 0.5"/>
   </g>
   <g id="patch_36">
    <path d="M 252.392727 307.584 
L 257.803636 307.584 
L 257.803636 111.132603 
L 252.392727 111.132603 
z
" clip-path="url(#p5c7672e372)" style="fill: #0000ff; opacity: 0.5"/>
   </g>
   <g id="patch_37">
    <path d="M 257.803636 307.584 
L 263.214545 307.584 
L 263.214545 121.397631 
L 257.803636 121.397631 
z
" clip-path="url(#p5c7672e372)" style="fill: #0000ff; opacity: 0.5"/>
   </g>
   <g id="patch_38">
    <path d="M 263.214545 307.584 
L 268.625455 307.584 
L 268.625455 129.53886 
L 263.214545 129.53886 
z
" clip-path="url(#p5c7672e372)" style="fill: #0000ff; opacity: 0.5"/>
   </g>
   <g id="patch_39">
    <path d="M 268.625455 307.584 
L 274.036364 307.584 
L 274.036364 134.848358 
L 268.625455 134.848358 
z
" clip-path="url(#p5c7672e372)" style="fill: #0000ff; opacity: 0.5"/>
   </g>
   <g id="patch_40">
    <path d="M 274.036364 307.584 
L 279.447273 307.584 
L 279.447273 132.016626 
L 274.036364 132.016626 
z
" clip-path="url(#p5c7672e372)" style="fill: #0000ff; opacity: 0.5"/>
   </g>
   <g id="patch_41">
    <path d="M 279.447273 307.584 
L 284.858182 307.584 
L 284.858182 132.724559 
L 279.447273 132.724559 
z
" clip-path="url(#p5c7672e372)" style="fill: #0000ff; opacity: 0.5"/>
   </g>
   <g id="patch_42">
    <path d="M 284.858182 307.584 
L 290.269091 307.584 
L 290.269091 134.140425 
L 284.858182 134.140425 
z
" clip-path="url(#p5c7672e372)" style="fill: #0000ff; opacity: 0.5"/>
   </g>
   <g id="patch_43">
    <path d="M 290.269091 307.584 
L 295.68 307.584 
L 295.68 144.405453 
L 290.269091 144.405453 
z
" clip-path="url(#p5c7672e372)" style="fill: #0000ff; opacity: 0.5"/>
   </g>
   <g id="patch_44">
    <path d="M 295.68 307.584 
L 301.090909 307.584 
L 301.090909 138.388022 
L 295.68 138.388022 
z
" clip-path="url(#p5c7672e372)" style="fill: #0000ff; opacity: 0.5"/>
   </g>
   <g id="patch_45">
    <path d="M 301.090909 307.584 
L 306.501818 307.584 
L 306.501818 127.061095 
L 301.090909 127.061095 
z
" clip-path="url(#p5c7672e372)" style="fill: #0000ff; opacity: 0.5"/>
   </g>
   <g id="patch_46">
    <path d="M 306.501818 307.584 
L 311.912727 307.584 
L 311.912727 151.484782 
L 306.501818 151.484782 
z
" clip-path="url(#p5c7672e372)" style="fill: #0000ff; opacity: 0.5"/>
   </g>
   <g id="patch_47">
    <path d="M 311.912727 307.584 
L 317.323636 307.584 
L 317.323636 154.67048 
L 311.912727 154.67048 
z
" clip-path="url(#p5c7672e372)" style="fill: #0000ff; opacity: 0.5"/>
   </g>
   <g id="patch_48">
    <path d="M 317.323636 307.584 
L 322.734545 307.584 
L 322.734545 152.546682 
L 317.323636 152.546682 
z
" clip-path="url(#p5c7672e372)" style="fill: #0000ff; opacity: 0.5"/>
   </g>
   <g id="patch_49">
    <path d="M 322.734545 307.584 
L 328.145455 307.584 
L 328.145455 158.564112 
L 322.734545 158.564112 
z
" clip-path="url(#p5c7672e372)" style="fill: #0000ff; opacity: 0.5"/>
   </g>
   <g id="patch_50">
    <path d="M 328.145455 307.584 
L 333.556364 307.584 
L 333.556364 155.73238 
L 328.145455 155.73238 
z
" clip-path="url(#p5c7672e372)" style="fill: #0000ff; opacity: 0.5"/>
   </g>
   <g id="patch_51">
    <path d="M 333.556364 307.584 
L 338.967273 307.584 
L 338.967273 158.210145 
L 333.556364 158.210145 
z
" clip-path="url(#p5c7672e372)" style="fill: #0000ff; opacity: 0.5"/>
   </g>
   <g id="patch_52">
    <path d="M 338.967273 307.584 
L 344.378182 307.584 
L 344.378182 156.794279 
L 338.967273 156.794279 
z
" clip-path="url(#p5c7672e372)" style="fill: #0000ff; opacity: 0.5"/>
   </g>
   <g id="patch_53">
    <path d="M 344.378182 307.584 
L 349.789091 307.584 
L 349.789091 159.272045 
L 344.378182 159.272045 
z
" clip-path="url(#p5c7672e372)" style="fill: #0000ff; opacity: 0.5"/>
   </g>
   <g id="patch_54">
    <path d="M 349.789091 307.584 
L 355.2 307.584 
L 355.2 172.368804 
L 349.789091 172.368804 
z
" clip-path="url(#p5c7672e372)" style="fill: #0000ff; opacity: 0.5"/>
   </g>
   <g id="patch_55">
    <path d="M 355.2 307.584 
L 360.610909 307.584 
L 360.610909 182.279866 
L 355.2 182.279866 
z
" clip-path="url(#p5c7672e372)" style="fill: #0000ff; opacity: 0.5"/>
   </g>
   <g id="patch_56">
    <path d="M 360.610909 307.584 
L 366.021818 307.584 
L 366.021818 163.873609 
L 360.610909 163.873609 
z
" clip-path="url(#p5c7672e372)" style="fill: #0000ff; opacity: 0.5"/>
   </g>
   <g id="patch_57">
    <path d="M 366.021818 307.584 
L 371.432727 307.584 
L 371.432727 162.811709 
L 366.021818 162.811709 
z
" clip-path="url(#p5c7672e372)" style="fill: #0000ff; opacity: 0.5"/>
   </g>
   <g id="patch_58">
    <path d="M 371.432727 307.584 
L 376.843636 307.584 
L 376.843636 157.856179 
L 371.432727 157.856179 
z
" clip-path="url(#p5c7672e372)" style="fill: #0000ff; opacity: 0.5"/>
   </g>
   <g id="patch_59">
    <path d="M 376.843636 307.584 
L 382.254545 307.584 
L 382.254545 169.537073 
L 376.843636 169.537073 
z
" clip-path="url(#p5c7672e372)" style="fill: #0000ff; opacity: 0.5"/>
   </g>
   <g id="patch_60">
    <path d="M 382.254545 307.584 
L 387.665455 307.584 
L 387.665455 188.297296 
L 382.254545 188.297296 
z
" clip-path="url(#p5c7672e372)" style="fill: #0000ff; opacity: 0.5"/>
   </g>
   <g id="patch_61">
    <path d="M 387.665455 307.584 
L 393.076364 307.584 
L 393.076364 182.279866 
L 387.665455 182.279866 
z
" clip-path="url(#p5c7672e372)" style="fill: #0000ff; opacity: 0.5"/>
   </g>
   <g id="patch_62">
    <path d="M 393.076364 307.584 
L 398.487273 307.584 
L 398.487273 181.217966 
L 393.076364 181.217966 
z
" clip-path="url(#p5c7672e372)" style="fill: #0000ff; opacity: 0.5"/>
   </g>
   <g id="patch_63">
    <path d="M 73.832727 307.584 
L 79.243636 307.584 
L 79.243636 54.144 
L 73.832727 54.144 
z
" clip-path="url(#p5c7672e372)" style="fill: #008000; opacity: 0.5"/>
   </g>
   <g id="patch_64">
    <path d="M 79.243636 307.584 
L 84.654545 307.584 
L 84.654545 75.381989 
L 79.243636 75.381989 
z
" clip-path="url(#p5c7672e372)" style="fill: #008000; opacity: 0.5"/>
   </g>
   <g id="patch_65">
    <path d="M 84.654545 307.584 
L 90.065455 307.584 
L 90.065455 55.559866 
L 84.654545 55.559866 
z
" clip-path="url(#p5c7672e372)" style="fill: #008000; opacity: 0.5"/>
   </g>
   <g id="patch_66">
    <path d="M 90.065455 307.584 
L 95.476364 307.584 
L 95.476364 55.559866 
L 90.065455 55.559866 
z
" clip-path="url(#p5c7672e372)" style="fill: #008000; opacity: 0.5"/>
   </g>
   <g id="patch_67">
    <path d="M 95.476364 307.584 
L 100.887273 307.584 
L 100.887273 70.780425 
L 95.476364 70.780425 
z
" clip-path="url(#p5c7672e372)" style="fill: #008000; opacity: 0.5"/>
   </g>
   <g id="patch_68">
    <path d="M 100.887273 307.584 
L 106.298182 307.584 
L 106.298182 70.780425 
L 100.887273 70.780425 
z
" clip-path="url(#p5c7672e372)" style="fill: #008000; opacity: 0.5"/>
   </g>
   <g id="patch_69">
    <path d="M 106.298182 307.584 
L 111.709091 307.584 
L 111.709091 70.780425 
L 106.298182 70.780425 
z
" clip-path="url(#p5c7672e372)" style="fill: #008000; opacity: 0.5"/>
   </g>
   <g id="patch_70">
    <path d="M 111.709091 307.584 
L 117.12 307.584 
L 117.12 77.505788 
L 111.709091 77.505788 
z
" clip-path="url(#p5c7672e372)" style="fill: #008000; opacity: 0.5"/>
   </g>
   <g id="patch_71">
    <path d="M 117.12 307.584 
L 122.530909 307.584 
L 122.530909 72.904223 
L 117.12 72.904223 
z
" clip-path="url(#p5c7672e372)" style="fill: #008000; opacity: 0.5"/>
   </g>
   <g id="patch_72">
    <path d="M 122.530909 307.584 
L 127.941818 307.584 
L 127.941818 71.488358 
L 122.530909 71.488358 
z
" clip-path="url(#p5c7672e372)" style="fill: #008000; opacity: 0.5"/>
   </g>
   <g id="patch_73">
    <path d="M 127.941818 307.584 
L 133.352727 307.584 
L 133.352727 85.647017 
L 127.941818 85.647017 
z
" clip-path="url(#p5c7672e372)" style="fill: #008000; opacity: 0.5"/>
   </g>
   <g id="patch_74">
    <path d="M 133.352727 307.584 
L 138.763636 307.584 
L 138.763636 75.735955 
L 133.352727 75.735955 
z
" clip-path="url(#p5c7672e372)" style="fill: #008000; opacity: 0.5"/>
   </g>
   <g id="patch_75">
    <path d="M 138.763636 307.584 
L 144.174545 307.584 
L 144.174545 89.540648 
L 138.763636 89.540648 
z
" clip-path="url(#p5c7672e372)" style="fill: #008000; opacity: 0.5"/>
   </g>
   <g id="patch_76">
    <path d="M 144.174545 307.584 
L 149.585455 307.584 
L 149.585455 92.018413 
L 144.174545 92.018413 
z
" clip-path="url(#p5c7672e372)" style="fill: #008000; opacity: 0.5"/>
   </g>
   <g id="patch_77">
    <path d="M 149.585455 307.584 
L 154.996364 307.584 
L 154.996364 95.558078 
L 149.585455 95.558078 
z
" clip-path="url(#p5c7672e372)" style="fill: #008000; opacity: 0.5"/>
   </g>
   <g id="patch_78">
    <path d="M 154.996364 307.584 
L 160.407273 307.584 
L 160.407273 109.716737 
L 154.996364 109.716737 
z
" clip-path="url(#p5c7672e372)" style="fill: #008000; opacity: 0.5"/>
   </g>
   <g id="patch_79">
    <path d="M 160.407273 307.584 
L 165.818182 307.584 
L 165.818182 89.540648 
L 160.407273 89.540648 
z
" clip-path="url(#p5c7672e372)" style="fill: #008000; opacity: 0.5"/>
   </g>
   <g id="patch_80">
    <path d="M 165.818182 307.584 
L 171.229091 307.584 
L 171.229091 92.726346 
L 165.818182 92.726346 
z
" clip-path="url(#p5c7672e372)" style="fill: #008000; opacity: 0.5"/>
   </g>
   <g id="patch_81">
    <path d="M 171.229091 307.584 
L 176.64 307.584 
L 176.64 112.194503 
L 171.229091 112.194503 
z
" clip-path="url(#p5c7672e372)" style="fill: #008000; opacity: 0.5"/>
   </g>
   <g id="patch_82">
    <path d="M 176.64 307.584 
L 182.050909 307.584 
L 182.050909 95.558078 
L 176.64 95.558078 
z
" clip-path="url(#p5c7672e372)" style="fill: #008000; opacity: 0.5"/>
   </g>
   <g id="patch_83">
    <path d="M 182.050909 307.584 
L 187.461818 307.584 
L 187.461818 105.823106 
L 182.050909 105.823106 
z
" clip-path="url(#p5c7672e372)" style="fill: #008000; opacity: 0.5"/>
   </g>
   <g id="patch_84">
    <path d="M 187.461818 307.584 
L 192.872727 307.584 
L 192.872727 113.610369 
L 187.461818 113.610369 
z
" clip-path="url(#p5c7672e372)" style="fill: #008000; opacity: 0.5"/>
   </g>
   <g id="patch_85">
    <path d="M 192.872727 307.584 
L 198.283636 307.584 
L 198.283636 94.496179 
L 192.872727 94.496179 
z
" clip-path="url(#p5c7672e372)" style="fill: #008000; opacity: 0.5"/>
   </g>
   <g id="patch_86">
    <path d="M 198.283636 307.584 
L 203.694545 307.584 
L 203.694545 110.070704 
L 198.283636 110.070704 
z
" clip-path="url(#p5c7672e372)" style="fill: #008000; opacity: 0.5"/>
   </g>
   <g id="patch_87">
    <path d="M 203.694545 307.584 
L 209.105455 307.584 
L 209.105455 121.043665 
L 203.694545 121.043665 
z
" clip-path="url(#p5c7672e372)" style="fill: #008000; opacity: 0.5"/>
   </g>
   <g id="patch_88">
    <path d="M 209.105455 307.584 
L 214.516364 307.584 
L 214.516364 113.256402 
L 209.105455 113.256402 
z
" clip-path="url(#p5c7672e372)" style="fill: #008000; opacity: 0.5"/>
   </g>
   <g id="patch_89">
    <path d="M 214.516364 307.584 
L 219.927273 307.584 
L 219.927273 123.167464 
L 214.516364 123.167464 
z
" clip-path="url(#p5c7672e372)" style="fill: #008000; opacity: 0.5"/>
   </g>
   <g id="patch_90">
    <path d="M 219.927273 307.584 
L 225.338182 307.584 
L 225.338182 129.184894 
L 219.927273 129.184894 
z
" clip-path="url(#p5c7672e372)" style="fill: #008000; opacity: 0.5"/>
   </g>
   <g id="patch_91">
    <path d="M 225.338182 307.584 
L 230.749091 307.584 
L 230.749091 135.910257 
L 225.338182 135.910257 
z
" clip-path="url(#p5c7672e372)" style="fill: #008000; opacity: 0.5"/>
   </g>
   <g id="patch_92">
    <path d="M 230.749091 307.584 
L 236.16 307.584 
L 236.16 118.565899 
L 230.749091 118.565899 
z
" clip-path="url(#p5c7672e372)" style="fill: #008000; opacity: 0.5"/>
   </g>
   <g id="patch_93">
    <path d="M 236.16 307.584 
L 241.570909 307.584 
L 241.570909 113.610369 
L 236.16 113.610369 
z
" clip-path="url(#p5c7672e372)" style="fill: #008000; opacity: 0.5"/>
   </g>
   <g id="patch_94">
    <path d="M 241.570909 307.584 
L 246.981818 307.584 
L 246.981818 134.494391 
L 241.570909 134.494391 
z
" clip-path="url(#p5c7672e372)" style="fill: #008000; opacity: 0.5"/>
   </g>
   <g id="patch_95">
    <path d="M 246.981818 307.584 
L 252.392727 307.584 
L 252.392727 132.016626 
L 246.981818 132.016626 
z
" clip-path="url(#p5c7672e372)" style="fill: #008000; opacity: 0.5"/>
   </g>
   <g id="patch_96">
    <path d="M 252.392727 307.584 
L 257.803636 307.584 
L 257.803636 127.061095 
L 252.392727 127.061095 
z
" clip-path="url(#p5c7672e372)" style="fill: #008000; opacity: 0.5"/>
   </g>
   <g id="patch_97">
    <path d="M 257.803636 307.584 
L 263.214545 307.584 
L 263.214545 124.58333 
L 257.803636 124.58333 
z
" clip-path="url(#p5c7672e372)" style="fill: #008000; opacity: 0.5"/>
   </g>
   <g id="patch_98">
    <path d="M 263.214545 307.584 
L 268.625455 307.584 
L 268.625455 129.53886 
L 263.214545 129.53886 
z
" clip-path="url(#p5c7672e372)" style="fill: #008000; opacity: 0.5"/>
   </g>
   <g id="patch_99">
    <path d="M 268.625455 307.584 
L 274.036364 307.584 
L 274.036364 134.848358 
L 268.625455 134.848358 
z
" clip-path="url(#p5c7672e372)" style="fill: #008000; opacity: 0.5"/>
   </g>
   <g id="patch_100">
    <path d="M 274.036364 307.584 
L 279.447273 307.584 
L 279.447273 132.016626 
L 274.036364 132.016626 
z
" clip-path="url(#p5c7672e372)" style="fill: #008000; opacity: 0.5"/>
   </g>
   <g id="patch_101">
    <path d="M 279.447273 307.584 
L 284.858182 307.584 
L 284.858182 132.724559 
L 279.447273 132.724559 
z
" clip-path="url(#p5c7672e372)" style="fill: #008000; opacity: 0.5"/>
   </g>
   <g id="patch_102">
    <path d="M 284.858182 307.584 
L 290.269091 307.584 
L 290.269091 134.140425 
L 284.858182 134.140425 
z
" clip-path="url(#p5c7672e372)" style="fill: #008000; opacity: 0.5"/>
   </g>
   <g id="patch_103">
    <path d="M 290.269091 307.584 
L 295.68 307.584 
L 295.68 144.405453 
L 290.269091 144.405453 
z
" clip-path="url(#p5c7672e372)" style="fill: #008000; opacity: 0.5"/>
   </g>
   <g id="patch_104">
    <path d="M 295.68 307.584 
L 301.090909 307.584 
L 301.090909 138.388022 
L 295.68 138.388022 
z
" clip-path="url(#p5c7672e372)" style="fill: #008000; opacity: 0.5"/>
   </g>
   <g id="patch_105">
    <path d="M 301.090909 307.584 
L 306.501818 307.584 
L 306.501818 127.061095 
L 301.090909 127.061095 
z
" clip-path="url(#p5c7672e372)" style="fill: #008000; opacity: 0.5"/>
   </g>
   <g id="patch_106">
    <path d="M 306.501818 307.584 
L 311.912727 307.584 
L 311.912727 151.484782 
L 306.501818 151.484782 
z
" clip-path="url(#p5c7672e372)" style="fill: #008000; opacity: 0.5"/>
   </g>
   <g id="patch_107">
    <path d="M 311.912727 307.584 
L 317.323636 307.584 
L 317.323636 154.67048 
L 311.912727 154.67048 
z
" clip-path="url(#p5c7672e372)" style="fill: #008000; opacity: 0.5"/>
   </g>
   <g id="patch_108">
    <path d="M 317.323636 307.584 
L 322.734545 307.584 
L 322.734545 152.546682 
L 317.323636 152.546682 
z
" clip-path="url(#p5c7672e372)" style="fill: #008000; opacity: 0.5"/>
   </g>
   <g id="patch_109">
    <path d="M 322.734545 307.584 
L 328.145455 307.584 
L 328.145455 158.564112 
L 322.734545 158.564112 
z
" clip-path="url(#p5c7672e372)" style="fill: #008000; opacity: 0.5"/>
   </g>
   <g id="patch_110">
    <path d="M 328.145455 307.584 
L 333.556364 307.584 
L 333.556364 155.73238 
L 328.145455 155.73238 
z
" clip-path="url(#p5c7672e372)" style="fill: #008000; opacity: 0.5"/>
   </g>
   <g id="patch_111">
    <path d="M 333.556364 307.584 
L 338.967273 307.584 
L 338.967273 158.210145 
L 333.556364 158.210145 
z
" clip-path="url(#p5c7672e372)" style="fill: #008000; opacity: 0.5"/>
   </g>
   <g id="patch_112">
    <path d="M 338.967273 307.584 
L 344.378182 307.584 
L 344.378182 156.794279 
L 338.967273 156.794279 
z
" clip-path="url(#p5c7672e372)" style="fill: #008000; opacity: 0.5"/>
   </g>
   <g id="patch_113">
    <path d="M 344.378182 307.584 
L 349.789091 307.584 
L 349.789091 159.272045 
L 344.378182 159.272045 
z
" clip-path="url(#p5c7672e372)" style="fill: #008000; opacity: 0.5"/>
   </g>
   <g id="patch_114">
    <path d="M 349.789091 307.584 
L 355.2 307.584 
L 355.2 172.368804 
L 349.789091 172.368804 
z
" clip-path="url(#p5c7672e372)" style="fill: #008000; opacity: 0.5"/>
   </g>
   <g id="patch_115">
    <path d="M 355.2 307.584 
L 360.610909 307.584 
L 360.610909 182.279866 
L 355.2 182.279866 
z
" clip-path="url(#p5c7672e372)" style="fill: #008000; opacity: 0.5"/>
   </g>
   <g id="patch_116">
    <path d="M 360.610909 307.584 
L 366.021818 307.584 
L 366.021818 163.873609 
L 360.610909 163.873609 
z
" clip-path="url(#p5c7672e372)" style="fill: #008000; opacity: 0.5"/>
   </g>
   <g id="patch_117">
    <path d="M 366.021818 307.584 
L 371.432727 307.584 
L 371.432727 162.811709 
L 366.021818 162.811709 
z
" clip-path="url(#p5c7672e372)" style="fill: #008000; opacity: 0.5"/>
   </g>
   <g id="patch_118">
    <path d="M 371.432727 307.584 
L 376.843636 307.584 
L 376.843636 157.856179 
L 371.432727 157.856179 
z
" clip-path="url(#p5c7672e372)" style="fill: #008000; opacity: 0.5"/>
   </g>
   <g id="patch_119">
    <path d="M 376.843636 307.584 
L 382.254545 307.584 
L 382.254545 169.537073 
L 376.843636 169.537073 
z
" clip-path="url(#p5c7672e372)" style="fill: #008000; opacity: 0.5"/>
   </g>
   <g id="patch_120">
    <path d="M 382.254545 307.584 
L 387.665455 307.584 
L 387.665455 188.297296 
L 382.254545 188.297296 
z
" clip-path="url(#p5c7672e372)" style="fill: #008000; opacity: 0.5"/>
   </g>
   <g id="patch_121">
    <path d="M 387.665455 307.584 
L 393.076364 307.584 
L 393.076364 182.279866 
L 387.665455 182.279866 
z
" clip-path="url(#p5c7672e372)" style="fill: #008000; opacity: 0.5"/>
   </g>
   <g id="patch_122">
    <path d="M 393.076364 307.584 
L 398.487273 307.584 
L 398.487273 181.217966 
L 393.076364 181.217966 
z
" clip-path="url(#p5c7672e372)" style="fill: #008000; opacity: 0.5"/>
   </g>
   <g id="patch_123">
    <path d="M 73.832727 307.584 
L 79.243636 307.584 
L 79.243636 307.584 
L 73.832727 307.584 
z
" clip-path="url(#p5c7672e372)" style="fill: #ff0000; opacity: 0.5"/>
   </g>
   <g id="patch_124">
    <path d="M 79.243636 307.584 
L 84.654545 307.584 
L 84.654545 307.584 
L 79.243636 307.584 
z
" clip-path="url(#p5c7672e372)" style="fill: #ff0000; opacity: 0.5"/>
   </g>
   <g id="patch_125">
    <path d="M 84.654545 307.584 
L 90.065455 307.584 
L 90.065455 307.584 
L 84.654545 307.584 
z
" clip-path="url(#p5c7672e372)" style="fill: #ff0000; opacity: 0.5"/>
   </g>
   <g id="patch_126">
    <path d="M 90.065455 307.584 
L 95.476364 307.584 
L 95.476364 307.584 
L 90.065455 307.584 
z
" clip-path="url(#p5c7672e372)" style="fill: #ff0000; opacity: 0.5"/>
   </g>
   <g id="patch_127">
    <path d="M 95.476364 307.584 
L 100.887273 307.584 
L 100.887273 307.584 
L 95.476364 307.584 
z
" clip-path="url(#p5c7672e372)" style="fill: #ff0000; opacity: 0.5"/>
   </g>
   <g id="patch_128">
    <path d="M 100.887273 307.584 
L 106.298182 307.584 
L 106.298182 307.584 
L 100.887273 307.584 
z
" clip-path="url(#p5c7672e372)" style="fill: #ff0000; opacity: 0.5"/>
   </g>
   <g id="patch_129">
    <path d="M 106.298182 307.584 
L 111.709091 307.584 
L 111.709091 307.584 
L 106.298182 307.584 
z
" clip-path="url(#p5c7672e372)" style="fill: #ff0000; opacity: 0.5"/>
   </g>
   <g id="patch_130">
    <path d="M 111.709091 307.584 
L 117.12 307.584 
L 117.12 307.584 
L 111.709091 307.584 
z
" clip-path="url(#p5c7672e372)" style="fill: #ff0000; opacity: 0.5"/>
   </g>
   <g id="patch_131">
    <path d="M 117.12 307.584 
L 122.530909 307.584 
L 122.530909 307.584 
L 117.12 307.584 
z
" clip-path="url(#p5c7672e372)" style="fill: #ff0000; opacity: 0.5"/>
   </g>
   <g id="patch_132">
    <path d="M 122.530909 307.584 
L 127.941818 307.584 
L 127.941818 307.584 
L 122.530909 307.584 
z
" clip-path="url(#p5c7672e372)" style="fill: #ff0000; opacity: 0.5"/>
   </g>
   <g id="patch_133">
    <path d="M 127.941818 307.584 
L 133.352727 307.584 
L 133.352727 307.584 
L 127.941818 307.584 
z
" clip-path="url(#p5c7672e372)" style="fill: #ff0000; opacity: 0.5"/>
   </g>
   <g id="patch_134">
    <path d="M 133.352727 307.584 
L 138.763636 307.584 
L 138.763636 307.584 
L 133.352727 307.584 
z
" clip-path="url(#p5c7672e372)" style="fill: #ff0000; opacity: 0.5"/>
   </g>
   <g id="patch_135">
    <path d="M 138.763636 307.584 
L 144.174545 307.584 
L 144.174545 307.584 
L 138.763636 307.584 
z
" clip-path="url(#p5c7672e372)" style="fill: #ff0000; opacity: 0.5"/>
   </g>
   <g id="patch_136">
    <path d="M 144.174545 307.584 
L 149.585455 307.584 
L 149.585455 307.584 
L 144.174545 307.584 
z
" clip-path="url(#p5c7672e372)" style="fill: #ff0000; opacity: 0.5"/>
   </g>
   <g id="patch_137">
    <path d="M 149.585455 307.584 
L 154.996364 307.584 
L 154.996364 307.584 
L 149.585455 307.584 
z
" clip-path="url(#p5c7672e372)" style="fill: #ff0000; opacity: 0.5"/>
   </g>
   <g id="patch_138">
    <path d="M 154.996364 307.584 
L 160.407273 307.584 
L 160.407273 307.584 
L 154.996364 307.584 
z
" clip-path="url(#p5c7672e372)" style="fill: #ff0000; opacity: 0.5"/>
   </g>
   <g id="patch_139">
    <path d="M 160.407273 307.584 
L 165.818182 307.584 
L 165.818182 307.584 
L 160.407273 307.584 
z
" clip-path="url(#p5c7672e372)" style="fill: #ff0000; opacity: 0.5"/>
   </g>
   <g id="patch_140">
    <path d="M 165.818182 307.584 
L 171.229091 307.584 
L 171.229091 307.584 
L 165.818182 307.584 
z
" clip-path="url(#p5c7672e372)" style="fill: #ff0000; opacity: 0.5"/>
   </g>
   <g id="patch_141">
    <path d="M 171.229091 307.584 
L 176.64 307.584 
L 176.64 307.584 
L 171.229091 307.584 
z
" clip-path="url(#p5c7672e372)" style="fill: #ff0000; opacity: 0.5"/>
   </g>
   <g id="patch_142">
    <path d="M 176.64 307.584 
L 182.050909 307.584 
L 182.050909 307.584 
L 176.64 307.584 
z
" clip-path="url(#p5c7672e372)" style="fill: #ff0000; opacity: 0.5"/>
   </g>
   <g id="patch_143">
    <path d="M 182.050909 307.584 
L 187.461818 307.584 
L 187.461818 307.584 
L 182.050909 307.584 
z
" clip-path="url(#p5c7672e372)" style="fill: #ff0000; opacity: 0.5"/>
   </g>
   <g id="patch_144">
    <path d="M 187.461818 307.584 
L 192.872727 307.584 
L 192.872727 307.584 
L 187.461818 307.584 
z
" clip-path="url(#p5c7672e372)" style="fill: #ff0000; opacity: 0.5"/>
   </g>
   <g id="patch_145">
    <path d="M 192.872727 307.584 
L 198.283636 307.584 
L 198.283636 307.584 
L 192.872727 307.584 
z
" clip-path="url(#p5c7672e372)" style="fill: #ff0000; opacity: 0.5"/>
   </g>
   <g id="patch_146">
    <path d="M 198.283636 307.584 
L 203.694545 307.584 
L 203.694545 307.584 
L 198.283636 307.584 
z
" clip-path="url(#p5c7672e372)" style="fill: #ff0000; opacity: 0.5"/>
   </g>
   <g id="patch_147">
    <path d="M 203.694545 307.584 
L 209.105455 307.584 
L 209.105455 307.584 
L 203.694545 307.584 
z
" clip-path="url(#p5c7672e372)" style="fill: #ff0000; opacity: 0.5"/>
   </g>
   <g id="patch_148">
    <path d="M 209.105455 307.584 
L 214.516364 307.584 
L 214.516364 307.584 
L 209.105455 307.584 
z
" clip-path="url(#p5c7672e372)" style="fill: #ff0000; opacity: 0.5"/>
   </g>
   <g id="patch_149">
    <path d="M 214.516364 307.584 
L 219.927273 307.584 
L 219.927273 307.584 
L 214.516364 307.584 
z
" clip-path="url(#p5c7672e372)" style="fill: #ff0000; opacity: 0.5"/>
   </g>
   <g id="patch_150">
    <path d="M 219.927273 307.584 
L 225.338182 307.584 
L 225.338182 307.584 
L 219.927273 307.584 
z
" clip-path="url(#p5c7672e372)" style="fill: #ff0000; opacity: 0.5"/>
   </g>
   <g id="patch_151">
    <path d="M 225.338182 307.584 
L 230.749091 307.584 
L 230.749091 307.584 
L 225.338182 307.584 
z
" clip-path="url(#p5c7672e372)" style="fill: #ff0000; opacity: 0.5"/>
   </g>
   <g id="patch_152">
    <path d="M 230.749091 307.584 
L 236.16 307.584 
L 236.16 305.814168 
L 230.749091 305.814168 
z
" clip-path="url(#p5c7672e372)" style="fill: #ff0000; opacity: 0.5"/>
   </g>
   <g id="patch_153">
    <path d="M 236.16 307.584 
L 241.570909 307.584 
L 241.570909 291.655508 
L 236.16 291.655508 
z
" clip-path="url(#p5c7672e372)" style="fill: #ff0000; opacity: 0.5"/>
   </g>
   <g id="patch_154">
    <path d="M 241.570909 307.584 
L 246.981818 307.584 
L 246.981818 274.665117 
L 241.570909 274.665117 
z
" clip-path="url(#p5c7672e372)" style="fill: #ff0000; opacity: 0.5"/>
   </g>
   <g id="patch_155">
    <path d="M 246.981818 307.584 
L 252.392727 307.584 
L 252.392727 271.125453 
L 246.981818 271.125453 
z
" clip-path="url(#p5c7672e372)" style="fill: #ff0000; opacity: 0.5"/>
   </g>
   <g id="patch_156">
    <path d="M 252.392727 307.584 
L 257.803636 307.584 
L 257.803636 291.655508 
L 252.392727 291.655508 
z
" clip-path="url(#p5c7672e372)" style="fill: #ff0000; opacity: 0.5"/>
   </g>
   <g id="patch_157">
    <path d="M 257.803636 307.584 
L 263.214545 307.584 
L 263.214545 304.398302 
L 257.803636 304.398302 
z
" clip-path="url(#p5c7672e372)" style="fill: #ff0000; opacity: 0.5"/>
   </g>
   <g id="patch_158">
    <path d="M 263.214545 307.584 
L 268.625455 307.584 
L 268.625455 307.584 
L 263.214545 307.584 
z
" clip-path="url(#p5c7672e372)" style="fill: #ff0000; opacity: 0.5"/>
   </g>
   <g id="patch_159">
    <path d="M 268.625455 307.584 
L 274.036364 307.584 
L 274.036364 307.584 
L 268.625455 307.584 
z
" clip-path="url(#p5c7672e372)" style="fill: #ff0000; opacity: 0.5"/>
   </g>
   <g id="patch_160">
    <path d="M 274.036364 307.584 
L 279.447273 307.584 
L 279.447273 307.584 
L 274.036364 307.584 
z
" clip-path="url(#p5c7672e372)" style="fill: #ff0000; opacity: 0.5"/>
   </g>
   <g id="patch_161">
    <path d="M 279.447273 307.584 
L 284.858182 307.584 
L 284.858182 307.584 
L 279.447273 307.584 
z
" clip-path="url(#p5c7672e372)" style="fill: #ff0000; opacity: 0.5"/>
   </g>
   <g id="patch_162">
    <path d="M 284.858182 307.584 
L 290.269091 307.584 
L 290.269091 307.584 
L 284.858182 307.584 
z
" clip-path="url(#p5c7672e372)" style="fill: #ff0000; opacity: 0.5"/>
   </g>
   <g id="patch_163">
    <path d="M 290.269091 307.584 
L 295.68 307.584 
L 295.68 307.584 
L 290.269091 307.584 
z
" clip-path="url(#p5c7672e372)" style="fill: #ff0000; opacity: 0.5"/>
   </g>
   <g id="patch_164">
    <path d="M 295.68 307.584 
L 301.090909 307.584 
L 301.090909 307.584 
L 295.68 307.584 
z
" clip-path="url(#p5c7672e372)" style="fill: #ff0000; opacity: 0.5"/>
   </g>
   <g id="patch_165">
    <path d="M 301.090909 307.584 
L 306.501818 307.584 
L 306.501818 307.584 
L 301.090909 307.584 
z
" clip-path="url(#p5c7672e372)" style="fill: #ff0000; opacity: 0.5"/>
   </g>
   <g id="patch_166">
    <path d="M 306.501818 307.584 
L 311.912727 307.584 
L 311.912727 307.584 
L 306.501818 307.584 
z
" clip-path="url(#p5c7672e372)" style="fill: #ff0000; opacity: 0.5"/>
   </g>
   <g id="patch_167">
    <path d="M 311.912727 307.584 
L 317.323636 307.584 
L 317.323636 307.584 
L 311.912727 307.584 
z
" clip-path="url(#p5c7672e372)" style="fill: #ff0000; opacity: 0.5"/>
   </g>
   <g id="patch_168">
    <path d="M 317.323636 307.584 
L 322.734545 307.584 
L 322.734545 307.584 
L 317.323636 307.584 
z
" clip-path="url(#p5c7672e372)" style="fill: #ff0000; opacity: 0.5"/>
   </g>
   <g id="patch_169">
    <path d="M 322.734545 307.584 
L 328.145455 307.584 
L 328.145455 307.584 
L 322.734545 307.584 
z
" clip-path="url(#p5c7672e372)" style="fill: #ff0000; opacity: 0.5"/>
   </g>
   <g id="patch_170">
    <path d="M 328.145455 307.584 
L 333.556364 307.584 
L 333.556364 307.584 
L 328.145455 307.584 
z
" clip-path="url(#p5c7672e372)" style="fill: #ff0000; opacity: 0.5"/>
   </g>
   <g id="patch_171">
    <path d="M 333.556364 307.584 
L 338.967273 307.584 
L 338.967273 307.584 
L 333.556364 307.584 
z
" clip-path="url(#p5c7672e372)" style="fill: #ff0000; opacity: 0.5"/>
   </g>
   <g id="patch_172">
    <path d="M 338.967273 307.584 
L 344.378182 307.584 
L 344.378182 307.584 
L 338.967273 307.584 
z
" clip-path="url(#p5c7672e372)" style="fill: #ff0000; opacity: 0.5"/>
   </g>
   <g id="patch_173">
    <path d="M 344.378182 307.584 
L 349.789091 307.584 
L 349.789091 307.584 
L 344.378182 307.584 
z
" clip-path="url(#p5c7672e372)" style="fill: #ff0000; opacity: 0.5"/>
   </g>
   <g id="patch_174">
    <path d="M 349.789091 307.584 
L 355.2 307.584 
L 355.2 307.584 
L 349.789091 307.584 
z
" clip-path="url(#p5c7672e372)" style="fill: #ff0000; opacity: 0.5"/>
   </g>
   <g id="patch_175">
    <path d="M 355.2 307.584 
L 360.610909 307.584 
L 360.610909 307.584 
L 355.2 307.584 
z
" clip-path="url(#p5c7672e372)" style="fill: #ff0000; opacity: 0.5"/>
   </g>
   <g id="patch_176">
    <path d="M 360.610909 307.584 
L 366.021818 307.584 
L 366.021818 307.584 
L 360.610909 307.584 
z
" clip-path="url(#p5c7672e372)" style="fill: #ff0000; opacity: 0.5"/>
   </g>
   <g id="patch_177">
    <path d="M 366.021818 307.584 
L 371.432727 307.584 
L 371.432727 307.584 
L 366.021818 307.584 
z
" clip-path="url(#p5c7672e372)" style="fill: #ff0000; opacity: 0.5"/>
   </g>
   <g id="patch_178">
    <path d="M 371.432727 307.584 
L 376.843636 307.584 
L 376.843636 307.584 
L 371.432727 307.584 
z
" clip-path="url(#p5c7672e372)" style="fill: #ff0000; opacity: 0.5"/>
   </g>
   <g id="patch_179">
    <path d="M 376.843636 307.584 
L 382.254545 307.584 
L 382.254545 307.584 
L 376.843636 307.584 
z
" clip-path="url(#p5c7672e372)" style="fill: #ff0000; opacity: 0.5"/>
   </g>
   <g id="patch_180">
    <path d="M 382.254545 307.584 
L 387.665455 307.584 
L 387.665455 307.584 
L 382.254545 307.584 
z
" clip-path="url(#p5c7672e372)" style="fill: #ff0000; opacity: 0.5"/>
   </g>
   <g id="patch_181">
    <path d="M 387.665455 307.584 
L 393.076364 307.584 
L 393.076364 307.584 
L 387.665455 307.584 
z
" clip-path="url(#p5c7672e372)" style="fill: #ff0000; opacity: 0.5"/>
   </g>
   <g id="patch_182">
    <path d="M 393.076364 307.584 
L 398.487273 307.584 
L 398.487273 307.584 
L 393.076364 307.584 
z
" clip-path="url(#p5c7672e372)" style="fill: #ff0000; opacity: 0.5"/>
   </g>
   <g id="matplotlib.axis_1">
    <g id="xtick_1">
     <g id="line2d_1">
      <defs>
       <path id="m7a887e2c7f" d="M 0 0 
L 0 3.5 
" style="stroke: #000000; stroke-width: 0.8"/>
      </defs>
      <g>
       <use xlink:href="#m7a887e2c7f" x="73.832727" y="307.584" style="stroke: #000000; stroke-width: 0.8"/>
      </g>
     </g>
     <g id="text_1">
      <!-- 110 -->
      <g transform="translate(64.288977 322.182437)scale(0.1 -0.1)">
       <defs>
        <path id="DejaVuSans-31" d="M 794 531 
L 1825 531 
L 1825 4091 
L 703 3866 
L 703 4441 
L 1819 4666 
L 2450 4666 
L 2450 531 
L 3481 531 
L 3481 0 
L 794 0 
L 794 531 
z
" transform="scale(0.015625)"/>
        <path id="DejaVuSans-30" d="M 2034 4250 
Q 1547 4250 1301 3770 
Q 1056 3291 1056 2328 
Q 1056 1369 1301 889 
Q 1547 409 2034 409 
Q 2525 409 2770 889 
Q 3016 1369 3016 2328 
Q 3016 3291 2770 3770 
Q 2525 4250 2034 4250 
z
M 2034 4750 
Q 2819 4750 3233 4129 
Q 3647 3509 3647 2328 
Q 3647 1150 3233 529 
Q 2819 -91 2034 -91 
Q 1250 -91 836 529 
Q 422 1150 422 2328 
Q 422 3509 836 4129 
Q 1250 4750 2034 4750 
z
" transform="scale(0.015625)"/>
       </defs>
       <use xlink:href="#DejaVuSans-31"/>
       <use xlink:href="#DejaVuSans-31" x="63.623047"/>
       <use xlink:href="#DejaVuSans-30" x="127.246094"/>
      </g>
     </g>
    </g>
    <g id="xtick_2">
     <g id="line2d_2">
      <g>
       <use xlink:href="#m7a887e2c7f" x="127.941818" y="307.584" style="stroke: #000000; stroke-width: 0.8"/>
      </g>
     </g>
     <g id="text_2">
      <!-- 115 -->
      <g transform="translate(118.398068 322.182437)scale(0.1 -0.1)">
       <defs>
        <path id="DejaVuSans-35" d="M 691 4666 
L 3169 4666 
L 3169 4134 
L 1269 4134 
L 1269 2991 
Q 1406 3038 1543 3061 
Q 1681 3084 1819 3084 
Q 2600 3084 3056 2656 
Q 3513 2228 3513 1497 
Q 3513 744 3044 326 
Q 2575 -91 1722 -91 
Q 1428 -91 1123 -41 
Q 819 9 494 109 
L 494 744 
Q 775 591 1075 516 
Q 1375 441 1709 441 
Q 2250 441 2565 725 
Q 2881 1009 2881 1497 
Q 2881 1984 2565 2268 
Q 2250 2553 1709 2553 
Q 1456 2553 1204 2497 
Q 953 2441 691 2322 
L 691 4666 
z
" transform="scale(0.015625)"/>
       </defs>
       <use xlink:href="#DejaVuSans-31"/>
       <use xlink:href="#DejaVuSans-31" x="63.623047"/>
       <use xlink:href="#DejaVuSans-35" x="127.246094"/>
      </g>
     </g>
    </g>
    <g id="xtick_3">
     <g id="line2d_3">
      <g>
       <use xlink:href="#m7a887e2c7f" x="182.050909" y="307.584" style="stroke: #000000; stroke-width: 0.8"/>
      </g>
     </g>
     <g id="text_3">
      <!-- 120 -->
      <g transform="translate(172.507159 322.182437)scale(0.1 -0.1)">
       <defs>
        <path id="DejaVuSans-32" d="M 1228 531 
L 3431 531 
L 3431 0 
L 469 0 
L 469 531 
Q 828 903 1448 1529 
Q 2069 2156 2228 2338 
Q 2531 2678 2651 2914 
Q 2772 3150 2772 3378 
Q 2772 3750 2511 3984 
Q 2250 4219 1831 4219 
Q 1534 4219 1204 4116 
Q 875 4013 500 3803 
L 500 4441 
Q 881 4594 1212 4672 
Q 1544 4750 1819 4750 
Q 2544 4750 2975 4387 
Q 3406 4025 3406 3419 
Q 3406 3131 3298 2873 
Q 3191 2616 2906 2266 
Q 2828 2175 2409 1742 
Q 1991 1309 1228 531 
z
" transform="scale(0.015625)"/>
       </defs>
       <use xlink:href="#DejaVuSans-31"/>
       <use xlink:href="#DejaVuSans-32" x="63.623047"/>
       <use xlink:href="#DejaVuSans-30" x="127.246094"/>
      </g>
     </g>
    </g>
    <g id="xtick_4">
     <g id="line2d_4">
      <g>
       <use xlink:href="#m7a887e2c7f" x="236.16" y="307.584" style="stroke: #000000; stroke-width: 0.8"/>
      </g>
     </g>
     <g id="text_4">
      <!-- 125 -->
      <g transform="translate(226.61625 322.182437)scale(0.1 -0.1)">
       <use xlink:href="#DejaVuSans-31"/>
       <use xlink:href="#DejaVuSans-32" x="63.623047"/>
       <use xlink:href="#DejaVuSans-35" x="127.246094"/>
      </g>
     </g>
    </g>
    <g id="xtick_5">
     <g id="line2d_5">
      <g>
       <use xlink:href="#m7a887e2c7f" x="290.269091" y="307.584" style="stroke: #000000; stroke-width: 0.8"/>
      </g>
     </g>
     <g id="text_5">
      <!-- 130 -->
      <g transform="translate(280.725341 322.182437)scale(0.1 -0.1)">
       <defs>
        <path id="DejaVuSans-33" d="M 2597 2516 
Q 3050 2419 3304 2112 
Q 3559 1806 3559 1356 
Q 3559 666 3084 287 
Q 2609 -91 1734 -91 
Q 1441 -91 1130 -33 
Q 819 25 488 141 
L 488 750 
Q 750 597 1062 519 
Q 1375 441 1716 441 
Q 2309 441 2620 675 
Q 2931 909 2931 1356 
Q 2931 1769 2642 2001 
Q 2353 2234 1838 2234 
L 1294 2234 
L 1294 2753 
L 1863 2753 
Q 2328 2753 2575 2939 
Q 2822 3125 2822 3475 
Q 2822 3834 2567 4026 
Q 2313 4219 1838 4219 
Q 1578 4219 1281 4162 
Q 984 4106 628 3988 
L 628 4550 
Q 988 4650 1302 4700 
Q 1616 4750 1894 4750 
Q 2613 4750 3031 4423 
Q 3450 4097 3450 3541 
Q 3450 3153 3228 2886 
Q 3006 2619 2597 2516 
z
" transform="scale(0.015625)"/>
       </defs>
       <use xlink:href="#DejaVuSans-31"/>
       <use xlink:href="#DejaVuSans-33" x="63.623047"/>
       <use xlink:href="#DejaVuSans-30" x="127.246094"/>
      </g>
     </g>
    </g>
    <g id="xtick_6">
     <g id="line2d_6">
      <g>
       <use xlink:href="#m7a887e2c7f" x="344.378182" y="307.584" style="stroke: #000000; stroke-width: 0.8"/>
      </g>
     </g>
     <g id="text_6">
      <!-- 135 -->
      <g transform="translate(334.834432 322.182437)scale(0.1 -0.1)">
       <use xlink:href="#DejaVuSans-31"/>
       <use xlink:href="#DejaVuSans-33" x="63.623047"/>
       <use xlink:href="#DejaVuSans-35" x="127.246094"/>
      </g>
     </g>
    </g>
    <g id="xtick_7">
     <g id="line2d_7">
      <g>
       <use xlink:href="#m7a887e2c7f" x="398.487273" y="307.584" style="stroke: #000000; stroke-width: 0.8"/>
      </g>
     </g>
     <g id="text_7">
      <!-- 140 -->
      <g transform="translate(388.943523 322.182437)scale(0.1 -0.1)">
       <defs>
        <path id="DejaVuSans-34" d="M 2419 4116 
L 825 1625 
L 2419 1625 
L 2419 4116 
z
M 2253 4666 
L 3047 4666 
L 3047 1625 
L 3713 1625 
L 3713 1100 
L 3047 1100 
L 3047 0 
L 2419 0 
L 2419 1100 
L 313 1100 
L 313 1709 
L 2253 4666 
z
" transform="scale(0.015625)"/>
       </defs>
       <use xlink:href="#DejaVuSans-31"/>
       <use xlink:href="#DejaVuSans-34" x="63.623047"/>
       <use xlink:href="#DejaVuSans-30" x="127.246094"/>
      </g>
     </g>
    </g>
   </g>
   <g id="matplotlib.axis_2">
    <g id="ytick_1">
     <g id="line2d_8">
      <defs>
       <path id="m8de3a8a85a" d="M 0 0 
L -3.5 0 
" style="stroke: #000000; stroke-width: 0.8"/>
      </defs>
      <g>
       <use xlink:href="#m8de3a8a85a" x="57.6" y="307.584" style="stroke: #000000; stroke-width: 0.8"/>
      </g>
     </g>
     <g id="text_8">
      <!-- 0 -->
      <g transform="translate(44.2375 311.383219)scale(0.1 -0.1)">
       <use xlink:href="#DejaVuSans-30"/>
      </g>
     </g>
    </g>
    <g id="ytick_2">
     <g id="line2d_9">
      <g>
       <use xlink:href="#m8de3a8a85a" x="57.6" y="272.187352" style="stroke: #000000; stroke-width: 0.8"/>
      </g>
     </g>
     <g id="text_9">
      <!-- 100 -->
      <g transform="translate(31.5125 275.986571)scale(0.1 -0.1)">
       <use xlink:href="#DejaVuSans-31"/>
       <use xlink:href="#DejaVuSans-30" x="63.623047"/>
       <use xlink:href="#DejaVuSans-30" x="127.246094"/>
      </g>
     </g>
    </g>
    <g id="ytick_3">
     <g id="line2d_10">
      <g>
       <use xlink:href="#m8de3a8a85a" x="57.6" y="236.790704" style="stroke: #000000; stroke-width: 0.8"/>
      </g>
     </g>
     <g id="text_10">
      <!-- 200 -->
      <g transform="translate(31.5125 240.589923)scale(0.1 -0.1)">
       <use xlink:href="#DejaVuSans-32"/>
       <use xlink:href="#DejaVuSans-30" x="63.623047"/>
       <use xlink:href="#DejaVuSans-30" x="127.246094"/>
      </g>
     </g>
    </g>
    <g id="ytick_4">
     <g id="line2d_11">
      <g>
       <use xlink:href="#m8de3a8a85a" x="57.6" y="201.394056" style="stroke: #000000; stroke-width: 0.8"/>
      </g>
     </g>
     <g id="text_11">
      <!-- 300 -->
      <g transform="translate(31.5125 205.193275)scale(0.1 -0.1)">
       <use xlink:href="#DejaVuSans-33"/>
       <use xlink:href="#DejaVuSans-30" x="63.623047"/>
       <use xlink:href="#DejaVuSans-30" x="127.246094"/>
      </g>
     </g>
    </g>
    <g id="ytick_5">
     <g id="line2d_12">
      <g>
       <use xlink:href="#m8de3a8a85a" x="57.6" y="165.997408" style="stroke: #000000; stroke-width: 0.8"/>
      </g>
     </g>
     <g id="text_12">
      <!-- 400 -->
      <g transform="translate(31.5125 169.796627)scale(0.1 -0.1)">
       <use xlink:href="#DejaVuSans-34"/>
       <use xlink:href="#DejaVuSans-30" x="63.623047"/>
       <use xlink:href="#DejaVuSans-30" x="127.246094"/>
      </g>
     </g>
    </g>
    <g id="ytick_6">
     <g id="line2d_13">
      <g>
       <use xlink:href="#m8de3a8a85a" x="57.6" y="130.60076" style="stroke: #000000; stroke-width: 0.8"/>
      </g>
     </g>
     <g id="text_13">
      <!-- 500 -->
      <g transform="translate(31.5125 134.399979)scale(0.1 -0.1)">
       <use xlink:href="#DejaVuSans-35"/>
       <use xlink:href="#DejaVuSans-30" x="63.623047"/>
       <use xlink:href="#DejaVuSans-30" x="127.246094"/>
      </g>
     </g>
    </g>
    <g id="ytick_7">
     <g id="line2d_14">
      <g>
       <use xlink:href="#m8de3a8a85a" x="57.6" y="95.204112" style="stroke: #000000; stroke-width: 0.8"/>
      </g>
     </g>
     <g id="text_14">
      <!-- 600 -->
      <g transform="translate(31.5125 99.00333)scale(0.1 -0.1)">
       <defs>
        <path id="DejaVuSans-36" d="M 2113 2584 
Q 1688 2584 1439 2293 
Q 1191 2003 1191 1497 
Q 1191 994 1439 701 
Q 1688 409 2113 409 
Q 2538 409 2786 701 
Q 3034 994 3034 1497 
Q 3034 2003 2786 2293 
Q 2538 2584 2113 2584 
z
M 3366 4563 
L 3366 3988 
Q 3128 4100 2886 4159 
Q 2644 4219 2406 4219 
Q 1781 4219 1451 3797 
Q 1122 3375 1075 2522 
Q 1259 2794 1537 2939 
Q 1816 3084 2150 3084 
Q 2853 3084 3261 2657 
Q 3669 2231 3669 1497 
Q 3669 778 3244 343 
Q 2819 -91 2113 -91 
Q 1303 -91 875 529 
Q 447 1150 447 2328 
Q 447 3434 972 4092 
Q 1497 4750 2381 4750 
Q 2619 4750 2861 4703 
Q 3103 4656 3366 4563 
z
" transform="scale(0.015625)"/>
       </defs>
       <use xlink:href="#DejaVuSans-36"/>
       <use xlink:href="#DejaVuSans-30" x="63.623047"/>
       <use xlink:href="#DejaVuSans-30" x="127.246094"/>
      </g>
     </g>
    </g>
    <g id="ytick_8">
     <g id="line2d_15">
      <g>
       <use xlink:href="#m8de3a8a85a" x="57.6" y="59.807464" style="stroke: #000000; stroke-width: 0.8"/>
      </g>
     </g>
     <g id="text_15">
      <!-- 700 -->
      <g transform="translate(31.5125 63.606682)scale(0.1 -0.1)">
       <defs>
        <path id="DejaVuSans-37" d="M 525 4666 
L 3525 4666 
L 3525 4397 
L 1831 0 
L 1172 0 
L 2766 4134 
L 525 4134 
L 525 4666 
z
" transform="scale(0.015625)"/>
       </defs>
       <use xlink:href="#DejaVuSans-37"/>
       <use xlink:href="#DejaVuSans-30" x="63.623047"/>
       <use xlink:href="#DejaVuSans-30" x="127.246094"/>
      </g>
     </g>
    </g>
   </g>
   <g id="patch_183">
    <path d="M 57.6 307.584 
L 57.6 41.472 
" style="fill: none; stroke: #000000; stroke-width: 0.8; stroke-linejoin: miter; stroke-linecap: square"/>
   </g>
   <g id="patch_184">
    <path d="M 414.72 307.584 
L 414.72 41.472 
" style="fill: none; stroke: #000000; stroke-width: 0.8; stroke-linejoin: miter; stroke-linecap: square"/>
   </g>
   <g id="patch_185">
    <path d="M 57.6 307.584 
L 414.72 307.584 
" style="fill: none; stroke: #000000; stroke-width: 0.8; stroke-linejoin: miter; stroke-linecap: square"/>
   </g>
   <g id="patch_186">
    <path d="M 57.6 41.472 
L 414.72 41.472 
" style="fill: none; stroke: #000000; stroke-width: 0.8; stroke-linejoin: miter; stroke-linecap: square"/>
   </g>
   <g id="text_16">
    <g id="patch_187">
     <path d="M 66.064688 41.927625 
L 406.255313 41.927625 
L 406.255313 22.393875 
L 66.064688 22.393875 
z
" style="fill: #ffffff; stroke: #ffffff; stroke-linejoin: miter"/>
    </g>
    <!-- 0.5 Gev Higgs in 0.5 GeV bins with Sloping Background -->
    <g transform="translate(70.024687 35.472)scale(0.12 -0.12)">
     <defs>
      <path id="DejaVuSans-2e" d="M 684 794 
L 1344 794 
L 1344 0 
L 684 0 
L 684 794 
z
" transform="scale(0.015625)"/>
      <path id="DejaVuSans-20" transform="scale(0.015625)"/>
      <path id="DejaVuSans-47" d="M 3809 666 
L 3809 1919 
L 2778 1919 
L 2778 2438 
L 4434 2438 
L 4434 434 
Q 4069 175 3628 42 
Q 3188 -91 2688 -91 
Q 1594 -91 976 548 
Q 359 1188 359 2328 
Q 359 3472 976 4111 
Q 1594 4750 2688 4750 
Q 3144 4750 3555 4637 
Q 3966 4525 4313 4306 
L 4313 3634 
Q 3963 3931 3569 4081 
Q 3175 4231 2741 4231 
Q 1884 4231 1454 3753 
Q 1025 3275 1025 2328 
Q 1025 1384 1454 906 
Q 1884 428 2741 428 
Q 3075 428 3337 486 
Q 3600 544 3809 666 
z
" transform="scale(0.015625)"/>
      <path id="DejaVuSans-65" d="M 3597 1894 
L 3597 1613 
L 953 1613 
Q 991 1019 1311 708 
Q 1631 397 2203 397 
Q 2534 397 2845 478 
Q 3156 559 3463 722 
L 3463 178 
Q 3153 47 2828 -22 
Q 2503 -91 2169 -91 
Q 1331 -91 842 396 
Q 353 884 353 1716 
Q 353 2575 817 3079 
Q 1281 3584 2069 3584 
Q 2775 3584 3186 3129 
Q 3597 2675 3597 1894 
z
M 3022 2063 
Q 3016 2534 2758 2815 
Q 2500 3097 2075 3097 
Q 1594 3097 1305 2825 
Q 1016 2553 972 2059 
L 3022 2063 
z
" transform="scale(0.015625)"/>
      <path id="DejaVuSans-76" d="M 191 3500 
L 800 3500 
L 1894 563 
L 2988 3500 
L 3597 3500 
L 2284 0 
L 1503 0 
L 191 3500 
z
" transform="scale(0.015625)"/>
      <path id="DejaVuSans-48" d="M 628 4666 
L 1259 4666 
L 1259 2753 
L 3553 2753 
L 3553 4666 
L 4184 4666 
L 4184 0 
L 3553 0 
L 3553 2222 
L 1259 2222 
L 1259 0 
L 628 0 
L 628 4666 
z
" transform="scale(0.015625)"/>
      <path id="DejaVuSans-69" d="M 603 3500 
L 1178 3500 
L 1178 0 
L 603 0 
L 603 3500 
z
M 603 4863 
L 1178 4863 
L 1178 4134 
L 603 4134 
L 603 4863 
z
" transform="scale(0.015625)"/>
      <path id="DejaVuSans-67" d="M 2906 1791 
Q 2906 2416 2648 2759 
Q 2391 3103 1925 3103 
Q 1463 3103 1205 2759 
Q 947 2416 947 1791 
Q 947 1169 1205 825 
Q 1463 481 1925 481 
Q 2391 481 2648 825 
Q 2906 1169 2906 1791 
z
M 3481 434 
Q 3481 -459 3084 -895 
Q 2688 -1331 1869 -1331 
Q 1566 -1331 1297 -1286 
Q 1028 -1241 775 -1147 
L 775 -588 
Q 1028 -725 1275 -790 
Q 1522 -856 1778 -856 
Q 2344 -856 2625 -561 
Q 2906 -266 2906 331 
L 2906 616 
Q 2728 306 2450 153 
Q 2172 0 1784 0 
Q 1141 0 747 490 
Q 353 981 353 1791 
Q 353 2603 747 3093 
Q 1141 3584 1784 3584 
Q 2172 3584 2450 3431 
Q 2728 3278 2906 2969 
L 2906 3500 
L 3481 3500 
L 3481 434 
z
" transform="scale(0.015625)"/>
      <path id="DejaVuSans-73" d="M 2834 3397 
L 2834 2853 
Q 2591 2978 2328 3040 
Q 2066 3103 1784 3103 
Q 1356 3103 1142 2972 
Q 928 2841 928 2578 
Q 928 2378 1081 2264 
Q 1234 2150 1697 2047 
L 1894 2003 
Q 2506 1872 2764 1633 
Q 3022 1394 3022 966 
Q 3022 478 2636 193 
Q 2250 -91 1575 -91 
Q 1294 -91 989 -36 
Q 684 19 347 128 
L 347 722 
Q 666 556 975 473 
Q 1284 391 1588 391 
Q 1994 391 2212 530 
Q 2431 669 2431 922 
Q 2431 1156 2273 1281 
Q 2116 1406 1581 1522 
L 1381 1569 
Q 847 1681 609 1914 
Q 372 2147 372 2553 
Q 372 3047 722 3315 
Q 1072 3584 1716 3584 
Q 2034 3584 2315 3537 
Q 2597 3491 2834 3397 
z
" transform="scale(0.015625)"/>
      <path id="DejaVuSans-6e" d="M 3513 2113 
L 3513 0 
L 2938 0 
L 2938 2094 
Q 2938 2591 2744 2837 
Q 2550 3084 2163 3084 
Q 1697 3084 1428 2787 
Q 1159 2491 1159 1978 
L 1159 0 
L 581 0 
L 581 3500 
L 1159 3500 
L 1159 2956 
Q 1366 3272 1645 3428 
Q 1925 3584 2291 3584 
Q 2894 3584 3203 3211 
Q 3513 2838 3513 2113 
z
" transform="scale(0.015625)"/>
      <path id="DejaVuSans-56" d="M 1831 0 
L 50 4666 
L 709 4666 
L 2188 738 
L 3669 4666 
L 4325 4666 
L 2547 0 
L 1831 0 
z
" transform="scale(0.015625)"/>
      <path id="DejaVuSans-62" d="M 3116 1747 
Q 3116 2381 2855 2742 
Q 2594 3103 2138 3103 
Q 1681 3103 1420 2742 
Q 1159 2381 1159 1747 
Q 1159 1113 1420 752 
Q 1681 391 2138 391 
Q 2594 391 2855 752 
Q 3116 1113 3116 1747 
z
M 1159 2969 
Q 1341 3281 1617 3432 
Q 1894 3584 2278 3584 
Q 2916 3584 3314 3078 
Q 3713 2572 3713 1747 
Q 3713 922 3314 415 
Q 2916 -91 2278 -91 
Q 1894 -91 1617 61 
Q 1341 213 1159 525 
L 1159 0 
L 581 0 
L 581 4863 
L 1159 4863 
L 1159 2969 
z
" transform="scale(0.015625)"/>
      <path id="DejaVuSans-77" d="M 269 3500 
L 844 3500 
L 1563 769 
L 2278 3500 
L 2956 3500 
L 3675 769 
L 4391 3500 
L 4966 3500 
L 4050 0 
L 3372 0 
L 2619 2869 
L 1863 0 
L 1184 0 
L 269 3500 
z
" transform="scale(0.015625)"/>
      <path id="DejaVuSans-74" d="M 1172 4494 
L 1172 3500 
L 2356 3500 
L 2356 3053 
L 1172 3053 
L 1172 1153 
Q 1172 725 1289 603 
Q 1406 481 1766 481 
L 2356 481 
L 2356 0 
L 1766 0 
Q 1100 0 847 248 
Q 594 497 594 1153 
L 594 3053 
L 172 3053 
L 172 3500 
L 594 3500 
L 594 4494 
L 1172 4494 
z
" transform="scale(0.015625)"/>
      <path id="DejaVuSans-68" d="M 3513 2113 
L 3513 0 
L 2938 0 
L 2938 2094 
Q 2938 2591 2744 2837 
Q 2550 3084 2163 3084 
Q 1697 3084 1428 2787 
Q 1159 2491 1159 1978 
L 1159 0 
L 581 0 
L 581 4863 
L 1159 4863 
L 1159 2956 
Q 1366 3272 1645 3428 
Q 1925 3584 2291 3584 
Q 2894 3584 3203 3211 
Q 3513 2838 3513 2113 
z
" transform="scale(0.015625)"/>
      <path id="DejaVuSans-53" d="M 3425 4513 
L 3425 3897 
Q 3066 4069 2747 4153 
Q 2428 4238 2131 4238 
Q 1616 4238 1336 4038 
Q 1056 3838 1056 3469 
Q 1056 3159 1242 3001 
Q 1428 2844 1947 2747 
L 2328 2669 
Q 3034 2534 3370 2195 
Q 3706 1856 3706 1288 
Q 3706 609 3251 259 
Q 2797 -91 1919 -91 
Q 1588 -91 1214 -16 
Q 841 59 441 206 
L 441 856 
Q 825 641 1194 531 
Q 1563 422 1919 422 
Q 2459 422 2753 634 
Q 3047 847 3047 1241 
Q 3047 1584 2836 1778 
Q 2625 1972 2144 2069 
L 1759 2144 
Q 1053 2284 737 2584 
Q 422 2884 422 3419 
Q 422 4038 858 4394 
Q 1294 4750 2059 4750 
Q 2388 4750 2728 4690 
Q 3069 4631 3425 4513 
z
" transform="scale(0.015625)"/>
      <path id="DejaVuSans-6c" d="M 603 4863 
L 1178 4863 
L 1178 0 
L 603 0 
L 603 4863 
z
" transform="scale(0.015625)"/>
      <path id="DejaVuSans-6f" d="M 1959 3097 
Q 1497 3097 1228 2736 
Q 959 2375 959 1747 
Q 959 1119 1226 758 
Q 1494 397 1959 397 
Q 2419 397 2687 759 
Q 2956 1122 2956 1747 
Q 2956 2369 2687 2733 
Q 2419 3097 1959 3097 
z
M 1959 3584 
Q 2709 3584 3137 3096 
Q 3566 2609 3566 1747 
Q 3566 888 3137 398 
Q 2709 -91 1959 -91 
Q 1206 -91 779 398 
Q 353 888 353 1747 
Q 353 2609 779 3096 
Q 1206 3584 1959 3584 
z
" transform="scale(0.015625)"/>
      <path id="DejaVuSans-70" d="M 1159 525 
L 1159 -1331 
L 581 -1331 
L 581 3500 
L 1159 3500 
L 1159 2969 
Q 1341 3281 1617 3432 
Q 1894 3584 2278 3584 
Q 2916 3584 3314 3078 
Q 3713 2572 3713 1747 
Q 3713 922 3314 415 
Q 2916 -91 2278 -91 
Q 1894 -91 1617 61 
Q 1341 213 1159 525 
z
M 3116 1747 
Q 3116 2381 2855 2742 
Q 2594 3103 2138 3103 
Q 1681 3103 1420 2742 
Q 1159 2381 1159 1747 
Q 1159 1113 1420 752 
Q 1681 391 2138 391 
Q 2594 391 2855 752 
Q 3116 1113 3116 1747 
z
" transform="scale(0.015625)"/>
      <path id="DejaVuSans-42" d="M 1259 2228 
L 1259 519 
L 2272 519 
Q 2781 519 3026 730 
Q 3272 941 3272 1375 
Q 3272 1813 3026 2020 
Q 2781 2228 2272 2228 
L 1259 2228 
z
M 1259 4147 
L 1259 2741 
L 2194 2741 
Q 2656 2741 2882 2914 
Q 3109 3088 3109 3444 
Q 3109 3797 2882 3972 
Q 2656 4147 2194 4147 
L 1259 4147 
z
M 628 4666 
L 2241 4666 
Q 2963 4666 3353 4366 
Q 3744 4066 3744 3513 
Q 3744 3084 3544 2831 
Q 3344 2578 2956 2516 
Q 3422 2416 3680 2098 
Q 3938 1781 3938 1306 
Q 3938 681 3513 340 
Q 3088 0 2303 0 
L 628 0 
L 628 4666 
z
" transform="scale(0.015625)"/>
      <path id="DejaVuSans-61" d="M 2194 1759 
Q 1497 1759 1228 1600 
Q 959 1441 959 1056 
Q 959 750 1161 570 
Q 1363 391 1709 391 
Q 2188 391 2477 730 
Q 2766 1069 2766 1631 
L 2766 1759 
L 2194 1759 
z
M 3341 1997 
L 3341 0 
L 2766 0 
L 2766 531 
Q 2569 213 2275 61 
Q 1981 -91 1556 -91 
Q 1019 -91 701 211 
Q 384 513 384 1019 
Q 384 1609 779 1909 
Q 1175 2209 1959 2209 
L 2766 2209 
L 2766 2266 
Q 2766 2663 2505 2880 
Q 2244 3097 1772 3097 
Q 1472 3097 1187 3025 
Q 903 2953 641 2809 
L 641 3341 
Q 956 3463 1253 3523 
Q 1550 3584 1831 3584 
Q 2591 3584 2966 3190 
Q 3341 2797 3341 1997 
z
" transform="scale(0.015625)"/>
      <path id="DejaVuSans-63" d="M 3122 3366 
L 3122 2828 
Q 2878 2963 2633 3030 
Q 2388 3097 2138 3097 
Q 1578 3097 1268 2742 
Q 959 2388 959 1747 
Q 959 1106 1268 751 
Q 1578 397 2138 397 
Q 2388 397 2633 464 
Q 2878 531 3122 666 
L 3122 134 
Q 2881 22 2623 -34 
Q 2366 -91 2075 -91 
Q 1284 -91 818 406 
Q 353 903 353 1747 
Q 353 2603 823 3093 
Q 1294 3584 2113 3584 
Q 2378 3584 2631 3529 
Q 2884 3475 3122 3366 
z
" transform="scale(0.015625)"/>
      <path id="DejaVuSans-6b" d="M 581 4863 
L 1159 4863 
L 1159 1991 
L 2875 3500 
L 3609 3500 
L 1753 1863 
L 3688 0 
L 2938 0 
L 1159 1709 
L 1159 0 
L 581 0 
L 581 4863 
z
" transform="scale(0.015625)"/>
      <path id="DejaVuSans-72" d="M 2631 2963 
Q 2534 3019 2420 3045 
Q 2306 3072 2169 3072 
Q 1681 3072 1420 2755 
Q 1159 2438 1159 1844 
L 1159 0 
L 581 0 
L 581 3500 
L 1159 3500 
L 1159 2956 
Q 1341 3275 1631 3429 
Q 1922 3584 2338 3584 
Q 2397 3584 2469 3576 
Q 2541 3569 2628 3553 
L 2631 2963 
z
" transform="scale(0.015625)"/>
      <path id="DejaVuSans-75" d="M 544 1381 
L 544 3500 
L 1119 3500 
L 1119 1403 
Q 1119 906 1312 657 
Q 1506 409 1894 409 
Q 2359 409 2629 706 
Q 2900 1003 2900 1516 
L 2900 3500 
L 3475 3500 
L 3475 0 
L 2900 0 
L 2900 538 
Q 2691 219 2414 64 
Q 2138 -91 1772 -91 
Q 1169 -91 856 284 
Q 544 659 544 1381 
z
M 1991 3584 
L 1991 3584 
z
" transform="scale(0.015625)"/>
      <path id="DejaVuSans-64" d="M 2906 2969 
L 2906 4863 
L 3481 4863 
L 3481 0 
L 2906 0 
L 2906 525 
Q 2725 213 2448 61 
Q 2172 -91 1784 -91 
Q 1150 -91 751 415 
Q 353 922 353 1747 
Q 353 2572 751 3078 
Q 1150 3584 1784 3584 
Q 2172 3584 2448 3432 
Q 2725 3281 2906 2969 
z
M 947 1747 
Q 947 1113 1208 752 
Q 1469 391 1925 391 
Q 2381 391 2643 752 
Q 2906 1113 2906 1747 
Q 2906 2381 2643 2742 
Q 2381 3103 1925 3103 
Q 1469 3103 1208 2742 
Q 947 2381 947 1747 
z
" transform="scale(0.015625)"/>
     </defs>
     <use xlink:href="#DejaVuSans-30"/>
     <use xlink:href="#DejaVuSans-2e" x="63.623047"/>
     <use xlink:href="#DejaVuSans-35" x="95.410156"/>
     <use xlink:href="#DejaVuSans-20" x="159.033203"/>
     <use xlink:href="#DejaVuSans-47" x="190.820312"/>
     <use xlink:href="#DejaVuSans-65" x="268.310547"/>
     <use xlink:href="#DejaVuSans-76" x="329.833984"/>
     <use xlink:href="#DejaVuSans-20" x="389.013672"/>
     <use xlink:href="#DejaVuSans-48" x="420.800781"/>
     <use xlink:href="#DejaVuSans-69" x="495.996094"/>
     <use xlink:href="#DejaVuSans-67" x="523.779297"/>
     <use xlink:href="#DejaVuSans-67" x="587.255859"/>
     <use xlink:href="#DejaVuSans-73" x="650.732422"/>
     <use xlink:href="#DejaVuSans-20" x="702.832031"/>
     <use xlink:href="#DejaVuSans-69" x="734.619141"/>
     <use xlink:href="#DejaVuSans-6e" x="762.402344"/>
     <use xlink:href="#DejaVuSans-20" x="825.78125"/>
     <use xlink:href="#DejaVuSans-30" x="857.568359"/>
     <use xlink:href="#DejaVuSans-2e" x="921.191406"/>
     <use xlink:href="#DejaVuSans-35" x="952.978516"/>
     <use xlink:href="#DejaVuSans-20" x="1016.601562"/>
     <use xlink:href="#DejaVuSans-47" x="1048.388672"/>
     <use xlink:href="#DejaVuSans-65" x="1125.878906"/>
     <use xlink:href="#DejaVuSans-56" x="1187.402344"/>
     <use xlink:href="#DejaVuSans-20" x="1255.810547"/>
     <use xlink:href="#DejaVuSans-62" x="1287.597656"/>
     <use xlink:href="#DejaVuSans-69" x="1351.074219"/>
     <use xlink:href="#DejaVuSans-6e" x="1378.857422"/>
     <use xlink:href="#DejaVuSans-73" x="1442.236328"/>
     <use xlink:href="#DejaVuSans-20" x="1494.335938"/>
     <use xlink:href="#DejaVuSans-77" x="1526.123047"/>
     <use xlink:href="#DejaVuSans-69" x="1607.910156"/>
     <use xlink:href="#DejaVuSans-74" x="1635.693359"/>
     <use xlink:href="#DejaVuSans-68" x="1674.902344"/>
     <use xlink:href="#DejaVuSans-20" x="1738.28125"/>
     <use xlink:href="#DejaVuSans-53" x="1770.068359"/>
     <use xlink:href="#DejaVuSans-6c" x="1833.544922"/>
     <use xlink:href="#DejaVuSans-6f" x="1861.328125"/>
     <use xlink:href="#DejaVuSans-70" x="1922.509766"/>
     <use xlink:href="#DejaVuSans-69" x="1985.986328"/>
     <use xlink:href="#DejaVuSans-6e" x="2013.769531"/>
     <use xlink:href="#DejaVuSans-67" x="2077.148438"/>
     <use xlink:href="#DejaVuSans-20" x="2140.625"/>
     <use xlink:href="#DejaVuSans-42" x="2172.412109"/>
     <use xlink:href="#DejaVuSans-61" x="2241.015625"/>
     <use xlink:href="#DejaVuSans-63" x="2302.294922"/>
     <use xlink:href="#DejaVuSans-6b" x="2357.275391"/>
     <use xlink:href="#DejaVuSans-67" x="2415.185547"/>
     <use xlink:href="#DejaVuSans-72" x="2478.662109"/>
     <use xlink:href="#DejaVuSans-6f" x="2517.525391"/>
     <use xlink:href="#DejaVuSans-75" x="2578.707031"/>
     <use xlink:href="#DejaVuSans-6e" x="2642.085938"/>
     <use xlink:href="#DejaVuSans-64" x="2705.464844"/>
    </g>
   </g>
  </g>
 </g>
 <defs>
  <clipPath id="p5c7672e372">
   <rect x="57.6" y="41.472" width="357.12" height="266.112"/>
  </clipPath>
 </defs>
</svg>
