<?xml version="1.0" encoding="utf-8" standalone="no"?>
<!DOCTYPE svg PUBLIC "-//W3C//DTD SVG 1.1//EN"
  "http://www.w3.org/Graphics/SVG/1.1/DTD/svg11.dtd">
<svg xmlns:xlink="http://www.w3.org/1999/xlink" width="460.8pt" height="345.6pt" viewBox="0 0 460.8 345.6" xmlns="http://www.w3.org/2000/svg" version="1.1">
 <metadata>
  <rdf:RDF xmlns:dc="http://purl.org/dc/elements/1.1/" xmlns:cc="http://creativecommons.org/ns#" xmlns:rdf="http://www.w3.org/1999/02/22-rdf-syntax-ns#">
   <cc:Work>
    <dc:type rdf:resource="http://purl.org/dc/dcmitype/StillImage"/>
    <dc:date>2022-06-06T11:07:04.727956</dc:date>
    <dc:format>image/svg+xml</dc:format>
    <dc:creator>
     <cc:Agent>
      <dc:title>Matplotlib v3.5.2, https://matplotlib.org/</dc:title>
     </cc:Agent>
    </dc:creator>
   </cc:Work>
  </rdf:RDF>
 </metadata>
 <defs>
  <style type="text/css">*{stroke-linejoin: round; stroke-linecap: butt}</style>
 </defs>
 <g id="figure_1">
  <g id="patch_1">
   <path d="M 0 345.6 
L 460.8 345.6 
L 460.8 0 
L 0 0 
z
" style="fill: #ffffff"/>
  </g>
  <g id="axes_1">
   <g id="patch_2">
    <path d="M 57.6 307.584 
L 414.72 307.584 
L 414.72 41.472 
L 57.6 41.472 
z
" style="fill: #ffffff"/>
   </g>
   <g id="matplotlib.axis_1">
    <g id="xtick_1">
     <g id="line2d_1">
      <defs>
       <path id="m18268b7ec8" d="M 0 0 
L 0 3.5 
" style="stroke: #000000; stroke-width: 0.8"/>
      </defs>
      <g>
       <use xlink:href="#m18268b7ec8" x="57.6" y="307.584" style="stroke: #000000; stroke-width: 0.8"/>
      </g>
     </g>
     <g id="text_1">
      <!-- −10.0 -->
      <g transform="translate(42.277344 322.182437)scale(0.1 -0.1)">
       <defs>
        <path id="DejaVuSans-2212" d="M 678 2272 
L 4684 2272 
L 4684 1741 
L 678 1741 
L 678 2272 
z
" transform="scale(0.015625)"/>
        <path id="DejaVuSans-31" d="M 794 531 
L 1825 531 
L 1825 4091 
L 703 3866 
L 703 4441 
L 1819 4666 
L 2450 4666 
L 2450 531 
L 3481 531 
L 3481 0 
L 794 0 
L 794 531 
z
" transform="scale(0.015625)"/>
        <path id="DejaVuSans-30" d="M 2034 4250 
Q 1547 4250 1301 3770 
Q 1056 3291 1056 2328 
Q 1056 1369 1301 889 
Q 1547 409 2034 409 
Q 2525 409 2770 889 
Q 3016 1369 3016 2328 
Q 3016 3291 2770 3770 
Q 2525 4250 2034 4250 
z
M 2034 4750 
Q 2819 4750 3233 4129 
Q 3647 3509 3647 2328 
Q 3647 1150 3233 529 
Q 2819 -91 2034 -91 
Q 1250 -91 836 529 
Q 422 1150 422 2328 
Q 422 3509 836 4129 
Q 1250 4750 2034 4750 
z
" transform="scale(0.015625)"/>
        <path id="DejaVuSans-2e" d="M 684 794 
L 1344 794 
L 1344 0 
L 684 0 
L 684 794 
z
" transform="scale(0.015625)"/>
       </defs>
       <use xlink:href="#DejaVuSans-2212"/>
       <use xlink:href="#DejaVuSans-31" x="83.789062"/>
       <use xlink:href="#DejaVuSans-30" x="147.412109"/>
       <use xlink:href="#DejaVuSans-2e" x="211.035156"/>
       <use xlink:href="#DejaVuSans-30" x="242.822266"/>
      </g>
     </g>
    </g>
    <g id="xtick_2">
     <g id="line2d_2">
      <g>
       <use xlink:href="#m18268b7ec8" x="102.24" y="307.584" style="stroke: #000000; stroke-width: 0.8"/>
      </g>
     </g>
     <g id="text_2">
      <!-- −7.5 -->
      <g transform="translate(90.098594 322.182437)scale(0.1 -0.1)">
       <defs>
        <path id="DejaVuSans-37" d="M 525 4666 
L 3525 4666 
L 3525 4397 
L 1831 0 
L 1172 0 
L 2766 4134 
L 525 4134 
L 525 4666 
z
" transform="scale(0.015625)"/>
        <path id="DejaVuSans-35" d="M 691 4666 
L 3169 4666 
L 3169 4134 
L 1269 4134 
L 1269 2991 
Q 1406 3038 1543 3061 
Q 1681 3084 1819 3084 
Q 2600 3084 3056 2656 
Q 3513 2228 3513 1497 
Q 3513 744 3044 326 
Q 2575 -91 1722 -91 
Q 1428 -91 1123 -41 
Q 819 9 494 109 
L 494 744 
Q 775 591 1075 516 
Q 1375 441 1709 441 
Q 2250 441 2565 725 
Q 2881 1009 2881 1497 
Q 2881 1984 2565 2268 
Q 2250 2553 1709 2553 
Q 1456 2553 1204 2497 
Q 953 2441 691 2322 
L 691 4666 
z
" transform="scale(0.015625)"/>
       </defs>
       <use xlink:href="#DejaVuSans-2212"/>
       <use xlink:href="#DejaVuSans-37" x="83.789062"/>
       <use xlink:href="#DejaVuSans-2e" x="147.412109"/>
       <use xlink:href="#DejaVuSans-35" x="179.199219"/>
      </g>
     </g>
    </g>
    <g id="xtick_3">
     <g id="line2d_3">
      <g>
       <use xlink:href="#m18268b7ec8" x="146.88" y="307.584" style="stroke: #000000; stroke-width: 0.8"/>
      </g>
     </g>
     <g id="text_3">
      <!-- −5.0 -->
      <g transform="translate(134.738594 322.182437)scale(0.1 -0.1)">
       <use xlink:href="#DejaVuSans-2212"/>
       <use xlink:href="#DejaVuSans-35" x="83.789062"/>
       <use xlink:href="#DejaVuSans-2e" x="147.412109"/>
       <use xlink:href="#DejaVuSans-30" x="179.199219"/>
      </g>
     </g>
    </g>
    <g id="xtick_4">
     <g id="line2d_4">
      <g>
       <use xlink:href="#m18268b7ec8" x="191.52" y="307.584" style="stroke: #000000; stroke-width: 0.8"/>
      </g>
     </g>
     <g id="text_4">
      <!-- −2.5 -->
      <g transform="translate(179.378594 322.182437)scale(0.1 -0.1)">
       <defs>
        <path id="DejaVuSans-32" d="M 1228 531 
L 3431 531 
L 3431 0 
L 469 0 
L 469 531 
Q 828 903 1448 1529 
Q 2069 2156 2228 2338 
Q 2531 2678 2651 2914 
Q 2772 3150 2772 3378 
Q 2772 3750 2511 3984 
Q 2250 4219 1831 4219 
Q 1534 4219 1204 4116 
Q 875 4013 500 3803 
L 500 4441 
Q 881 4594 1212 4672 
Q 1544 4750 1819 4750 
Q 2544 4750 2975 4387 
Q 3406 4025 3406 3419 
Q 3406 3131 3298 2873 
Q 3191 2616 2906 2266 
Q 2828 2175 2409 1742 
Q 1991 1309 1228 531 
z
" transform="scale(0.015625)"/>
       </defs>
       <use xlink:href="#DejaVuSans-2212"/>
       <use xlink:href="#DejaVuSans-32" x="83.789062"/>
       <use xlink:href="#DejaVuSans-2e" x="147.412109"/>
       <use xlink:href="#DejaVuSans-35" x="179.199219"/>
      </g>
     </g>
    </g>
    <g id="xtick_5">
     <g id="line2d_5">
      <g>
       <use xlink:href="#m18268b7ec8" x="236.16" y="307.584" style="stroke: #000000; stroke-width: 0.8"/>
      </g>
     </g>
     <g id="text_5">
      <!-- 0.0 -->
      <g transform="translate(228.208438 322.182437)scale(0.1 -0.1)">
       <use xlink:href="#DejaVuSans-30"/>
       <use xlink:href="#DejaVuSans-2e" x="63.623047"/>
       <use xlink:href="#DejaVuSans-30" x="95.410156"/>
      </g>
     </g>
    </g>
    <g id="xtick_6">
     <g id="line2d_6">
      <g>
       <use xlink:href="#m18268b7ec8" x="280.8" y="307.584" style="stroke: #000000; stroke-width: 0.8"/>
      </g>
     </g>
     <g id="text_6">
      <!-- 2.5 -->
      <g transform="translate(272.848437 322.182437)scale(0.1 -0.1)">
       <use xlink:href="#DejaVuSans-32"/>
       <use xlink:href="#DejaVuSans-2e" x="63.623047"/>
       <use xlink:href="#DejaVuSans-35" x="95.410156"/>
      </g>
     </g>
    </g>
    <g id="xtick_7">
     <g id="line2d_7">
      <g>
       <use xlink:href="#m18268b7ec8" x="325.44" y="307.584" style="stroke: #000000; stroke-width: 0.8"/>
      </g>
     </g>
     <g id="text_7">
      <!-- 5.0 -->
      <g transform="translate(317.488437 322.182437)scale(0.1 -0.1)">
       <use xlink:href="#DejaVuSans-35"/>
       <use xlink:href="#DejaVuSans-2e" x="63.623047"/>
       <use xlink:href="#DejaVuSans-30" x="95.410156"/>
      </g>
     </g>
    </g>
    <g id="xtick_8">
     <g id="line2d_8">
      <g>
       <use xlink:href="#m18268b7ec8" x="370.08" y="307.584" style="stroke: #000000; stroke-width: 0.8"/>
      </g>
     </g>
     <g id="text_8">
      <!-- 7.5 -->
      <g transform="translate(362.128438 322.182437)scale(0.1 -0.1)">
       <use xlink:href="#DejaVuSans-37"/>
       <use xlink:href="#DejaVuSans-2e" x="63.623047"/>
       <use xlink:href="#DejaVuSans-35" x="95.410156"/>
      </g>
     </g>
    </g>
    <g id="xtick_9">
     <g id="line2d_9">
      <g>
       <use xlink:href="#m18268b7ec8" x="414.72" y="307.584" style="stroke: #000000; stroke-width: 0.8"/>
      </g>
     </g>
     <g id="text_9">
      <!-- 10.0 -->
      <g transform="translate(403.587188 322.182437)scale(0.1 -0.1)">
       <use xlink:href="#DejaVuSans-31"/>
       <use xlink:href="#DejaVuSans-30" x="63.623047"/>
       <use xlink:href="#DejaVuSans-2e" x="127.246094"/>
       <use xlink:href="#DejaVuSans-30" x="159.033203"/>
      </g>
     </g>
    </g>
    <g id="text_10">
     <!-- x -->
     <g transform="translate(233.200625 335.860562)scale(0.1 -0.1)">
      <defs>
       <path id="DejaVuSans-78" d="M 3513 3500 
L 2247 1797 
L 3578 0 
L 2900 0 
L 1881 1375 
L 863 0 
L 184 0 
L 1544 1831 
L 300 3500 
L 978 3500 
L 1906 2253 
L 2834 3500 
L 3513 3500 
z
" transform="scale(0.015625)"/>
      </defs>
      <use xlink:href="#DejaVuSans-78"/>
     </g>
    </g>
   </g>
   <g id="matplotlib.axis_2">
    <g id="ytick_1">
     <g id="line2d_10">
      <defs>
       <path id="m4eb019e57a" d="M 0 0 
L -3.5 0 
" style="stroke: #000000; stroke-width: 0.8"/>
      </defs>
      <g>
       <use xlink:href="#m4eb019e57a" x="57.6" y="307.584" style="stroke: #000000; stroke-width: 0.8"/>
      </g>
     </g>
     <g id="text_11">
      <!-- −10.0 -->
      <g transform="translate(19.954687 311.383219)scale(0.1 -0.1)">
       <use xlink:href="#DejaVuSans-2212"/>
       <use xlink:href="#DejaVuSans-31" x="83.789062"/>
       <use xlink:href="#DejaVuSans-30" x="147.412109"/>
       <use xlink:href="#DejaVuSans-2e" x="211.035156"/>
       <use xlink:href="#DejaVuSans-30" x="242.822266"/>
      </g>
     </g>
    </g>
    <g id="ytick_2">
     <g id="line2d_11">
      <g>
       <use xlink:href="#m4eb019e57a" x="57.6" y="274.32" style="stroke: #000000; stroke-width: 0.8"/>
      </g>
     </g>
     <g id="text_12">
      <!-- −7.5 -->
      <g transform="translate(26.317187 278.119219)scale(0.1 -0.1)">
       <use xlink:href="#DejaVuSans-2212"/>
       <use xlink:href="#DejaVuSans-37" x="83.789062"/>
       <use xlink:href="#DejaVuSans-2e" x="147.412109"/>
       <use xlink:href="#DejaVuSans-35" x="179.199219"/>
      </g>
     </g>
    </g>
    <g id="ytick_3">
     <g id="line2d_12">
      <g>
       <use xlink:href="#m4eb019e57a" x="57.6" y="241.056" style="stroke: #000000; stroke-width: 0.8"/>
      </g>
     </g>
     <g id="text_13">
      <!-- −5.0 -->
      <g transform="translate(26.317187 244.855219)scale(0.1 -0.1)">
       <use xlink:href="#DejaVuSans-2212"/>
       <use xlink:href="#DejaVuSans-35" x="83.789062"/>
       <use xlink:href="#DejaVuSans-2e" x="147.412109"/>
       <use xlink:href="#DejaVuSans-30" x="179.199219"/>
      </g>
     </g>
    </g>
    <g id="ytick_4">
     <g id="line2d_13">
      <g>
       <use xlink:href="#m4eb019e57a" x="57.6" y="207.792" style="stroke: #000000; stroke-width: 0.8"/>
      </g>
     </g>
     <g id="text_14">
      <!-- −2.5 -->
      <g transform="translate(26.317187 211.591219)scale(0.1 -0.1)">
       <use xlink:href="#DejaVuSans-2212"/>
       <use xlink:href="#DejaVuSans-32" x="83.789062"/>
       <use xlink:href="#DejaVuSans-2e" x="147.412109"/>
       <use xlink:href="#DejaVuSans-35" x="179.199219"/>
      </g>
     </g>
    </g>
    <g id="ytick_5">
     <g id="line2d_14">
      <g>
       <use xlink:href="#m4eb019e57a" x="57.6" y="174.528" style="stroke: #000000; stroke-width: 0.8"/>
      </g>
     </g>
     <g id="text_15">
      <!-- 0.0 -->
      <g transform="translate(34.696875 178.327219)scale(0.1 -0.1)">
       <use xlink:href="#DejaVuSans-30"/>
       <use xlink:href="#DejaVuSans-2e" x="63.623047"/>
       <use xlink:href="#DejaVuSans-30" x="95.410156"/>
      </g>
     </g>
    </g>
    <g id="ytick_6">
     <g id="line2d_15">
      <g>
       <use xlink:href="#m4eb019e57a" x="57.6" y="141.264" style="stroke: #000000; stroke-width: 0.8"/>
      </g>
     </g>
     <g id="text_16">
      <!-- 2.5 -->
      <g transform="translate(34.696875 145.063219)scale(0.1 -0.1)">
       <use xlink:href="#DejaVuSans-32"/>
       <use xlink:href="#DejaVuSans-2e" x="63.623047"/>
       <use xlink:href="#DejaVuSans-35" x="95.410156"/>
      </g>
     </g>
    </g>
    <g id="ytick_7">
     <g id="line2d_16">
      <g>
       <use xlink:href="#m4eb019e57a" x="57.6" y="108" style="stroke: #000000; stroke-width: 0.8"/>
      </g>
     </g>
     <g id="text_17">
      <!-- 5.0 -->
      <g transform="translate(34.696875 111.799219)scale(0.1 -0.1)">
       <use xlink:href="#DejaVuSans-35"/>
       <use xlink:href="#DejaVuSans-2e" x="63.623047"/>
       <use xlink:href="#DejaVuSans-30" x="95.410156"/>
      </g>
     </g>
    </g>
    <g id="ytick_8">
     <g id="line2d_17">
      <g>
       <use xlink:href="#m4eb019e57a" x="57.6" y="74.736" style="stroke: #000000; stroke-width: 0.8"/>
      </g>
     </g>
     <g id="text_18">
      <!-- 7.5 -->
      <g transform="translate(34.696875 78.535219)scale(0.1 -0.1)">
       <use xlink:href="#DejaVuSans-37"/>
       <use xlink:href="#DejaVuSans-2e" x="63.623047"/>
       <use xlink:href="#DejaVuSans-35" x="95.410156"/>
      </g>
     </g>
    </g>
    <g id="ytick_9">
     <g id="line2d_18">
      <g>
       <use xlink:href="#m4eb019e57a" x="57.6" y="41.472" style="stroke: #000000; stroke-width: 0.8"/>
      </g>
     </g>
     <g id="text_19">
      <!-- 10.0 -->
      <g transform="translate(28.334375 45.271219)scale(0.1 -0.1)">
       <use xlink:href="#DejaVuSans-31"/>
       <use xlink:href="#DejaVuSans-30" x="63.623047"/>
       <use xlink:href="#DejaVuSans-2e" x="127.246094"/>
       <use xlink:href="#DejaVuSans-30" x="159.033203"/>
      </g>
     </g>
    </g>
    <g id="text_20">
     <!-- y -->
     <g transform="translate(13.875 177.487375)rotate(-90)scale(0.1 -0.1)">
      <defs>
       <path id="DejaVuSans-79" d="M 2059 -325 
Q 1816 -950 1584 -1140 
Q 1353 -1331 966 -1331 
L 506 -1331 
L 506 -850 
L 844 -850 
Q 1081 -850 1212 -737 
Q 1344 -625 1503 -206 
L 1606 56 
L 191 3500 
L 800 3500 
L 1894 763 
L 2988 3500 
L 3597 3500 
L 2059 -325 
z
" transform="scale(0.015625)"/>
      </defs>
      <use xlink:href="#DejaVuSans-79"/>
     </g>
    </g>
   </g>
   <g id="PathCollection_1">
    <path d="M 225.227755 307.584 
" clip-path="url(#p866b37b31f)" style="fill: none; stroke: #440154; stroke-width: 1.5"/>
    <path d="M 225.227755 41.472 
" clip-path="url(#p866b37b31f)" style="fill: none; stroke: #440154; stroke-width: 1.5"/>
   </g>
   <g id="PathCollection_2">
    <path d="M 175.916317 307.584 
L 178.72847 302.153143 
L 181.42345 296.722286 
L 181.498776 296.563592 
L 184.424609 291.291429 
L 187.301516 285.860571 
L 188.786939 282.916271 
L 190.296865 280.429714 
L 193.429786 274.998857 
L 196.075102 270.158498 
L 196.480329 269.568 
L 200.00018 264.137143 
L 203.312982 258.706286 
L 203.363265 258.618358 
L 207.468321 253.275429 
L 210.651429 248.836534 
L 211.734968 247.844571 
L 217.243463 242.413714 
L 217.939592 241.670204 
L 225.227755 237.959118 
L 232.515918 238.321176 
L 239.241002 242.413714 
L 239.804082 242.730017 
L 244.550249 247.844571 
L 247.092245 250.388208 
L 249.043495 253.275429 
L 252.975957 258.706286 
L 254.380408 260.524653 
L 256.488204 264.137143 
L 259.855018 269.568 
L 261.668571 272.330841 
L 263.075737 274.998857 
L 266.099211 280.429714 
L 268.956735 285.305848 
L 269.228426 285.860571 
L 272.021335 291.291429 
L 274.94724 296.722286 
L 276.244898 299.026183 
L 277.75769 302.153143 
L 280.499318 307.584 
" clip-path="url(#p866b37b31f)" style="fill: none; stroke: #481b6d; stroke-width: 1.5"/>
    <path d="M 280.499318 41.472 
L 277.75769 46.902857 
L 276.244898 50.029817 
L 274.94724 52.333714 
L 272.021335 57.764571 
L 269.228426 63.195429 
L 268.956735 63.750152 
L 266.099211 68.626286 
L 263.075737 74.057143 
L 261.668571 76.725159 
L 259.855018 79.488 
L 256.488204 84.918857 
L 254.380408 88.531347 
L 252.975957 90.349714 
L 249.043495 95.780571 
L 247.092245 98.667792 
L 244.550249 101.211429 
L 239.804082 106.325983 
L 239.241002 106.642286 
L 232.515918 110.734824 
L 225.227755 111.096882 
L 217.939592 107.385796 
L 217.243463 106.642286 
L 211.734968 101.211429 
L 210.651429 100.219466 
L 207.468321 95.780571 
L 203.363265 90.437642 
L 203.312982 90.349714 
L 200.00018 84.918857 
L 196.480329 79.488 
L 196.075102 78.897502 
L 193.429786 74.057143 
L 190.296865 68.626286 
L 188.786939 66.139729 
L 187.301516 63.195429 
L 184.424609 57.764571 
L 181.498776 52.492408 
L 181.42345 52.333714 
L 178.72847 46.902857 
L 175.916317 41.472 
" clip-path="url(#p866b37b31f)" style="fill: none; stroke: #481b6d; stroke-width: 1.5"/>
   </g>
   <g id="PathCollection_3">
    <path d="M 154.251036 307.584 
L 156.211977 302.153143 
L 158.091212 296.722286 
L 159.634286 292.060212 
L 159.917296 291.291429 
L 161.825668 285.860571 
L 163.643165 280.429714 
L 165.369787 274.998857 
L 166.922449 269.843853 
L 167.016037 269.568 
L 168.756188 264.137143 
L 170.393978 258.706286 
L 171.929405 253.275429 
L 173.362471 247.844571 
L 174.210612 244.383146 
L 174.762999 242.413714 
L 176.169076 236.982857 
L 177.457979 231.552 
L 178.62971 226.121143 
L 179.684267 220.690286 
L 180.621652 215.259429 
L 181.441863 209.828571 
L 181.498776 209.388931 
L 182.254208 204.397714 
L 182.939186 198.966857 
L 183.487168 193.536 
L 183.898155 188.105143 
L 184.172146 182.674286 
L 184.309141 177.243429 
L 184.309141 171.812571 
L 184.172146 166.381714 
L 183.898155 160.950857 
L 183.487168 155.52 
L 182.939186 150.089143 
L 182.254208 144.658286 
L 181.498776 139.667069 
L 181.441863 139.227429 
L 180.621652 133.796571 
L 179.684267 128.365714 
L 178.62971 122.934857 
L 177.457979 117.504 
L 176.169076 112.073143 
L 174.762999 106.642286 
L 174.210612 104.672854 
L 173.362471 101.211429 
L 171.929405 95.780571 
L 170.393978 90.349714 
L 168.756188 84.918857 
L 167.016037 79.488 
L 166.922449 79.212147 
L 165.369787 74.057143 
L 163.643165 68.626286 
L 161.825668 63.195429 
L 159.917296 57.764571 
L 159.634286 56.995788 
L 158.091212 52.333714 
L 156.211977 46.902857 
L 154.251036 41.472 
" clip-path="url(#p866b37b31f)" style="fill: none; stroke: #46327e; stroke-width: 1.5"/>
    <path d="M 302.177733 41.472 
L 300.251346 46.902857 
L 298.405226 52.333714 
L 298.109388 53.243559 
L 296.477633 57.764571 
L 294.606589 63.195429 
L 292.824642 68.626286 
L 291.131792 74.057143 
L 290.821224 75.108833 
L 289.368168 79.488 
L 287.666262 84.918857 
L 286.064468 90.349714 
L 284.562786 95.780571 
L 283.533061 99.770589 
L 283.108762 101.211429 
L 281.623713 106.642286 
L 280.252898 112.073143 
L 278.996318 117.504 
L 277.853973 122.934857 
L 276.825862 128.365714 
L 276.244898 131.818188 
L 275.857311 133.796571 
L 274.926341 139.227429 
L 274.128367 144.658286 
L 273.463388 150.089143 
L 272.931406 155.52 
L 272.532419 160.950857 
L 272.266427 166.381714 
L 272.133432 171.812571 
L 272.133432 177.243429 
L 272.266427 182.674286 
L 272.532419 188.105143 
L 272.931406 193.536 
L 273.463388 198.966857 
L 274.128367 204.397714 
L 274.926341 209.828571 
L 275.857311 215.259429 
L 276.244898 217.237812 
L 276.825862 220.690286 
L 277.853973 226.121143 
L 278.996318 231.552 
L 280.252898 236.982857 
L 281.623713 242.413714 
L 283.108762 247.844571 
L 283.533061 249.285411 
L 284.562786 253.275429 
L 286.064468 258.706286 
L 287.666262 264.137143 
L 289.368168 269.568 
L 290.821224 273.947167 
L 291.131792 274.998857 
L 292.824642 280.429714 
L 294.606589 285.860571 
L 296.477633 291.291429 
L 298.109388 295.812441 
L 298.405226 296.722286 
L 300.251346 302.153143 
L 302.177733 307.584 
" clip-path="url(#p866b37b31f)" style="fill: none; stroke: #46327e; stroke-width: 1.5"/>
   </g>
   <g id="PathCollection_4">
    <path d="M 137.573569 307.584 
L 137.769796 306.876049 
L 139.188773 302.153143 
L 140.752465 296.722286 
L 142.24817 291.291429 
L 143.675889 285.860571 
L 145.035621 280.429714 
L 145.057959 280.335797 
L 146.443707 274.998857 
L 147.779623 269.568 
L 149.041321 264.137143 
L 150.228802 258.706286 
L 151.342065 253.275429 
L 152.346122 248.027447 
L 152.384641 247.844571 
L 153.446817 242.413714 
L 154.427288 236.982857 
L 155.326052 231.552 
L 156.143111 226.121143 
L 156.878464 220.690286 
L 157.53211 215.259429 
L 158.104052 209.828571 
L 158.594287 204.397714 
L 159.002816 198.966857 
L 159.32964 193.536 
L 159.574757 188.105143 
L 159.634286 186.126759 
L 159.749827 182.674286 
L 159.840701 177.243429 
L 159.840701 171.812571 
L 159.749827 166.381714 
L 159.634286 162.929241 
L 159.574757 160.950857 
L 159.32964 155.52 
L 159.002816 150.089143 
L 158.594287 144.658286 
L 158.104052 139.227429 
L 157.53211 133.796571 
L 156.878464 128.365714 
L 156.143111 122.934857 
L 155.326052 117.504 
L 154.427288 112.073143 
L 153.446817 106.642286 
L 152.384641 101.211429 
L 152.346122 101.028553 
L 151.342065 95.780571 
L 150.228802 90.349714 
L 149.041321 84.918857 
L 147.779623 79.488 
L 146.443707 74.057143 
L 145.057959 68.720203 
L 145.035621 68.626286 
L 143.675889 63.195429 
L 142.24817 57.764571 
L 140.752465 52.333714 
L 139.188773 46.902857 
L 137.769796 42.179951 
L 137.573569 41.472 
" clip-path="url(#p866b37b31f)" style="fill: none; stroke: #3f4788; stroke-width: 1.5"/>
    <path d="M 318.843715 41.472 
L 317.236032 46.902857 
L 315.695335 52.333714 
L 314.221626 57.764571 
L 312.814903 63.195429 
L 312.685714 63.719118 
L 311.366 68.626286 
L 309.978474 74.057143 
L 308.663975 79.488 
L 307.422504 84.918857 
L 306.254061 90.349714 
L 305.397551 94.596127 
L 305.134966 95.780571 
L 304.011241 101.211429 
L 302.967781 106.642286 
L 302.004588 112.073143 
L 301.12166 117.504 
L 300.318999 122.934857 
L 299.596604 128.365714 
L 298.954475 133.796571 
L 298.392612 139.227429 
L 298.109388 142.42129 
L 297.88919 144.658286 
L 297.443703 150.089143 
L 297.087314 155.52 
L 296.820022 160.950857 
L 296.641827 166.381714 
L 296.55273 171.812571 
L 296.55273 177.243429 
L 296.641827 182.674286 
L 296.820022 188.105143 
L 297.087314 193.536 
L 297.443703 198.966857 
L 297.88919 204.397714 
L 298.109388 206.63471 
L 298.392612 209.828571 
L 298.954475 215.259429 
L 299.596604 220.690286 
L 300.318999 226.121143 
L 301.12166 231.552 
L 302.004588 236.982857 
L 302.967781 242.413714 
L 304.011241 247.844571 
L 305.134966 253.275429 
L 305.397551 254.459873 
L 306.254061 258.706286 
L 307.422504 264.137143 
L 308.663975 269.568 
L 309.978474 274.998857 
L 311.366 280.429714 
L 312.685714 285.336882 
L 312.814903 285.860571 
L 314.221626 291.291429 
L 315.695335 296.722286 
L 317.236032 302.153143 
L 318.843715 307.584 
" clip-path="url(#p866b37b31f)" style="fill: none; stroke: #3f4788; stroke-width: 1.5"/>
   </g>
   <g id="PathCollection_5">
    <path d="M 123.56769 307.584 
L 124.964782 302.153143 
L 126.303662 296.722286 
L 127.58433 291.291429 
L 128.806785 285.860571 
L 129.971029 280.429714 
L 130.481633 277.922537 
L 131.123177 274.998857 
L 132.252153 269.568 
L 133.318407 264.137143 
L 134.321941 258.706286 
L 135.262754 253.275429 
L 136.140846 247.844571 
L 136.956217 242.413714 
L 137.708867 236.982857 
L 137.769796 236.503249 
L 138.451604 231.552 
L 139.13147 226.121143 
L 139.74335 220.690286 
L 140.287243 215.259429 
L 140.763149 209.828571 
L 141.171068 204.397714 
L 141.511001 198.966857 
L 141.782948 193.536 
L 141.986907 188.105143 
L 142.122881 182.674286 
L 142.190867 177.243429 
L 142.190867 171.812571 
L 142.122881 166.381714 
L 141.986907 160.950857 
L 141.782948 155.52 
L 141.511001 150.089143 
L 141.171068 144.658286 
L 140.763149 139.227429 
L 140.287243 133.796571 
L 139.74335 128.365714 
L 139.13147 122.934857 
L 138.451604 117.504 
L 137.769796 112.552751 
L 137.708867 112.073143 
L 136.956217 106.642286 
L 136.140846 101.211429 
L 135.262754 95.780571 
L 134.321941 90.349714 
L 133.318407 84.918857 
L 132.252153 79.488 
L 131.123177 74.057143 
L 130.481633 71.133463 
L 129.971029 68.626286 
L 128.806785 63.195429 
L 127.58433 57.764571 
L 126.303662 52.333714 
L 124.964782 46.902857 
L 123.56769 41.472 
" clip-path="url(#p866b37b31f)" style="fill: none; stroke: #365c8d; stroke-width: 1.5"/>
    <path d="M 332.847224 41.472 
L 331.467761 46.902857 
L 330.145776 52.333714 
L 328.881268 57.764571 
L 327.674238 63.195429 
L 327.262041 65.142779 
L 326.46835 68.626286 
L 325.29284 74.057143 
L 324.179199 79.488 
L 323.127427 84.918857 
L 322.137523 90.349714 
L 321.209489 95.780571 
L 320.343324 101.211429 
L 319.973878 103.706042 
L 319.503056 106.642286 
L 318.699215 112.073143 
L 317.96236 117.504 
L 317.292492 122.934857 
L 316.689611 128.365714 
L 316.153716 133.796571 
L 315.684809 139.227429 
L 315.282888 144.658286 
L 314.947954 150.089143 
L 314.680007 155.52 
L 314.479046 160.950857 
L 314.345073 166.381714 
L 314.278086 171.812571 
L 314.278086 177.243429 
L 314.345073 182.674286 
L 314.479046 188.105143 
L 314.680007 193.536 
L 314.947954 198.966857 
L 315.282888 204.397714 
L 315.684809 209.828571 
L 316.153716 215.259429 
L 316.689611 220.690286 
L 317.292492 226.121143 
L 317.96236 231.552 
L 318.699215 236.982857 
L 319.503056 242.413714 
L 319.973878 245.349958 
L 320.343324 247.844571 
L 321.209489 253.275429 
L 322.137523 258.706286 
L 323.127427 264.137143 
L 324.179199 269.568 
L 325.29284 274.998857 
L 326.46835 280.429714 
L 327.262041 283.913221 
L 327.674238 285.860571 
L 328.881268 291.291429 
L 330.145776 296.722286 
L 331.467761 302.153143 
L 332.847224 307.584 
" clip-path="url(#p866b37b31f)" style="fill: none; stroke: #365c8d; stroke-width: 1.5"/>
   </g>
   <g id="PathCollection_6">
    <path d="M 111.262956 307.584 
L 112.484435 302.153143 
L 113.65502 296.722286 
L 114.77471 291.291429 
L 115.843505 285.860571 
L 115.905306 285.530841 
L 116.925525 280.429714 
L 117.957381 274.998857 
L 118.934929 269.568 
L 119.858169 264.137143 
L 120.7271 258.706286 
L 121.541724 253.275429 
L 122.302039 247.844571 
L 123.008046 242.413714 
L 123.193469 240.868506 
L 123.693262 236.982857 
L 124.333596 231.552 
L 124.915718 226.121143 
L 125.439627 220.690286 
L 125.905325 215.259429 
L 126.31281 209.828571 
L 126.662083 204.397714 
L 126.953144 198.966857 
L 127.185992 193.536 
L 127.360629 188.105143 
L 127.477053 182.674286 
L 127.535265 177.243429 
L 127.535265 171.812571 
L 127.477053 166.381714 
L 127.360629 160.950857 
L 127.185992 155.52 
L 126.953144 150.089143 
L 126.662083 144.658286 
L 126.31281 139.227429 
L 125.905325 133.796571 
L 125.439627 128.365714 
L 124.915718 122.934857 
L 124.333596 117.504 
L 123.693262 112.073143 
L 123.193469 108.187494 
L 123.008046 106.642286 
L 122.302039 101.211429 
L 121.541724 95.780571 
L 120.7271 90.349714 
L 119.858169 84.918857 
L 118.934929 79.488 
L 117.957381 74.057143 
L 116.925525 68.626286 
L 115.905306 63.525159 
L 115.843505 63.195429 
L 114.77471 57.764571 
L 113.65502 52.333714 
L 112.484435 46.902857 
L 111.262956 41.472 
" clip-path="url(#p866b37b31f)" style="fill: none; stroke: #2e6e8e; stroke-width: 1.5"/>
    <path d="M 345.181172 41.472 
L 343.973189 46.902857 
L 342.815539 52.333714 
L 341.838367 57.126269 
L 341.699596 57.764571 
L 340.572561 63.195429 
L 339.499194 68.626286 
L 338.479495 74.057143 
L 337.513464 79.488 
L 336.601102 84.918857 
L 335.742408 90.349714 
L 334.937383 95.780571 
L 334.550204 98.579125 
L 334.160177 101.211429 
L 333.412968 106.642286 
L 332.723237 112.073143 
L 332.090983 117.504 
L 331.516206 122.934857 
L 330.998908 128.365714 
L 330.539087 133.796571 
L 330.136743 139.227429 
L 329.791878 144.658286 
L 329.504489 150.089143 
L 329.274579 155.52 
L 329.102146 160.950857 
L 328.987191 166.381714 
L 328.929713 171.812571 
L 328.929713 177.243429 
L 328.987191 182.674286 
L 329.102146 188.105143 
L 329.274579 193.536 
L 329.504489 198.966857 
L 329.791878 204.397714 
L 330.136743 209.828571 
L 330.539087 215.259429 
L 330.998908 220.690286 
L 331.516206 226.121143 
L 332.090983 231.552 
L 332.723237 236.982857 
L 333.412968 242.413714 
L 334.160177 247.844571 
L 334.550204 250.476875 
L 334.937383 253.275429 
L 335.742408 258.706286 
L 336.601102 264.137143 
L 337.513464 269.568 
L 338.479495 274.998857 
L 339.499194 280.429714 
L 340.572561 285.860571 
L 341.699596 291.291429 
L 341.838367 291.929731 
L 342.815539 296.722286 
L 343.973189 302.153143 
L 345.181172 307.584 
" clip-path="url(#p866b37b31f)" style="fill: none; stroke: #2e6e8e; stroke-width: 1.5"/>
   </g>
   <g id="PathCollection_7">
    <path d="M 100.078547 307.584 
L 101.163633 302.153143 
L 101.32898 301.289603 
L 102.255221 296.722286 
L 103.3087 291.291429 
L 104.314294 285.860571 
L 105.272003 280.429714 
L 106.181826 274.998857 
L 107.043764 269.568 
L 107.857817 264.137143 
L 108.617143 258.754776 
L 108.624414 258.706286 
L 109.387838 253.275429 
L 110.100368 247.844571 
L 110.762003 242.413714 
L 111.372743 236.982857 
L 111.932588 231.552 
L 112.441538 226.121143 
L 112.899593 220.690286 
L 113.306753 215.259429 
L 113.663018 209.828571 
L 113.968388 204.397714 
L 114.222863 198.966857 
L 114.426443 193.536 
L 114.579128 188.105143 
L 114.680918 182.674286 
L 114.731813 177.243429 
L 114.731813 171.812571 
L 114.680918 166.381714 
L 114.579128 160.950857 
L 114.426443 155.52 
L 114.222863 150.089143 
L 113.968388 144.658286 
L 113.663018 139.227429 
L 113.306753 133.796571 
L 112.899593 128.365714 
L 112.441538 122.934857 
L 111.932588 117.504 
L 111.372743 112.073143 
L 110.762003 106.642286 
L 110.100368 101.211429 
L 109.387838 95.780571 
L 108.624414 90.349714 
L 108.617143 90.301224 
L 107.857817 84.918857 
L 107.043764 79.488 
L 106.181826 74.057143 
L 105.272003 68.626286 
L 104.314294 63.195429 
L 103.3087 57.764571 
L 102.255221 52.333714 
L 101.32898 47.766397 
L 101.163633 46.902857 
L 100.078547 41.472 
" clip-path="url(#p866b37b31f)" style="fill: none; stroke: #277f8e; stroke-width: 1.5"/>
    <path d="M 356.398447 41.472 
L 355.261152 46.902857 
L 354.171245 52.333714 
L 353.128725 57.764571 
L 352.133592 63.195429 
L 351.185846 68.626286 
L 350.285488 74.057143 
L 349.432517 79.488 
L 349.126531 81.550813 
L 348.595881 84.918857 
L 347.790559 90.349714 
L 347.03557 95.780571 
L 346.330913 101.211429 
L 345.676589 106.642286 
L 345.072598 112.073143 
L 344.518939 117.504 
L 344.015613 122.934857 
L 343.562619 128.365714 
L 343.159958 133.796571 
L 342.80763 139.227429 
L 342.505634 144.658286 
L 342.253971 150.089143 
L 342.05264 155.52 
L 341.901643 160.950857 
L 341.838367 164.364539 
L 341.798499 166.381714 
L 341.744831 171.812571 
L 341.744831 177.243429 
L 341.798499 182.674286 
L 341.838367 184.691461 
L 341.901643 188.105143 
L 342.05264 193.536 
L 342.253971 198.966857 
L 342.505634 204.397714 
L 342.80763 209.828571 
L 343.159958 215.259429 
L 343.562619 220.690286 
L 344.015613 226.121143 
L 344.518939 231.552 
L 345.072598 236.982857 
L 345.676589 242.413714 
L 346.330913 247.844571 
L 347.03557 253.275429 
L 347.790559 258.706286 
L 348.595881 264.137143 
L 349.126531 267.505187 
L 349.432517 269.568 
L 350.285488 274.998857 
L 351.185846 280.429714 
L 352.133592 285.860571 
L 353.128725 291.291429 
L 354.171245 296.722286 
L 355.261152 302.153143 
L 356.398447 307.584 
" clip-path="url(#p866b37b31f)" style="fill: none; stroke: #277f8e; stroke-width: 1.5"/>
   </g>
   <g id="PathCollection_8">
    <path d="M 89.831495 307.584 
L 90.859203 302.153143 
L 91.84409 296.722286 
L 92.786156 291.291429 
L 93.685401 285.860571 
L 94.040816 283.606766 
L 94.569796 280.429714 
L 95.428823 274.998857 
L 96.242637 269.568 
L 97.01124 264.137143 
L 97.734631 258.706286 
L 98.41281 253.275429 
L 99.045777 247.844571 
L 99.633532 242.413714 
L 100.176075 236.982857 
L 100.673407 231.552 
L 101.125526 226.121143 
L 101.32898 223.405714 
L 101.544464 220.690286 
L 101.927548 215.259429 
L 102.262746 209.828571 
L 102.550058 204.397714 
L 102.789485 198.966857 
L 102.981027 193.536 
L 103.124683 188.105143 
L 103.220454 182.674286 
L 103.26834 177.243429 
L 103.26834 171.812571 
L 103.220454 166.381714 
L 103.124683 160.950857 
L 102.981027 155.52 
L 102.789485 150.089143 
L 102.550058 144.658286 
L 102.262746 139.227429 
L 101.927548 133.796571 
L 101.544464 128.365714 
L 101.32898 125.650286 
L 101.125526 122.934857 
L 100.673407 117.504 
L 100.176075 112.073143 
L 99.633532 106.642286 
L 99.045777 101.211429 
L 98.41281 95.780571 
L 97.734631 90.349714 
L 97.01124 84.918857 
L 96.242637 79.488 
L 95.428823 74.057143 
L 94.569796 68.626286 
L 94.040816 65.449234 
L 93.685401 63.195429 
L 92.786156 57.764571 
L 91.84409 52.333714 
L 90.859203 46.902857 
L 89.831495 41.472 
" clip-path="url(#p866b37b31f)" style="fill: none; stroke: #21918c; stroke-width: 1.5"/>
    <path d="M 366.617274 41.472 
L 365.599137 46.902857 
L 364.623423 52.333714 
L 363.702857 57.690514 
L 363.689427 57.764571 
L 362.749308 63.195429 
L 361.853956 68.626286 
L 361.003372 74.057143 
L 360.197555 79.488 
L 359.436506 84.918857 
L 358.720225 90.349714 
L 358.048711 95.780571 
L 357.421965 101.211429 
L 356.839986 106.642286 
L 356.414694 110.941714 
L 356.296226 112.073143 
L 355.774966 117.504 
L 355.301093 122.934857 
L 354.874607 128.365714 
L 354.495509 133.796571 
L 354.163798 139.227429 
L 353.879475 144.658286 
L 353.642538 150.089143 
L 353.452989 155.52 
L 353.310827 160.950857 
L 353.216053 166.381714 
L 353.168665 171.812571 
L 353.168665 177.243429 
L 353.216053 182.674286 
L 353.310827 188.105143 
L 353.452989 193.536 
L 353.642538 198.966857 
L 353.879475 204.397714 
L 354.163798 209.828571 
L 354.495509 215.259429 
L 354.874607 220.690286 
L 355.301093 226.121143 
L 355.774966 231.552 
L 356.296226 236.982857 
L 356.414694 238.114286 
L 356.839986 242.413714 
L 357.421965 247.844571 
L 358.048711 253.275429 
L 358.720225 258.706286 
L 359.436506 264.137143 
L 360.197555 269.568 
L 361.003372 274.998857 
L 361.853956 280.429714 
L 362.749308 285.860571 
L 363.689427 291.291429 
L 363.702857 291.365486 
L 364.623423 296.722286 
L 365.599137 302.153143 
L 366.617274 307.584 
" clip-path="url(#p866b37b31f)" style="fill: none; stroke: #21918c; stroke-width: 1.5"/>
   </g>
   <g id="PathCollection_9">
    <path d="M 80.247688 307.584 
L 81.223782 302.153143 
L 82.159204 296.722286 
L 83.053957 291.291429 
L 83.908038 285.860571 
L 84.721449 280.429714 
L 85.49419 274.998857 
L 86.22626 269.568 
L 86.752653 265.433247 
L 86.926385 264.137143 
L 87.611523 258.706286 
L 88.253841 253.275429 
L 88.853337 247.844571 
L 89.410013 242.413714 
L 89.923867 236.982857 
L 90.3949 231.552 
L 90.823111 226.121143 
L 91.208502 220.690286 
L 91.551071 215.259429 
L 91.850819 209.828571 
L 92.107746 204.397714 
L 92.321852 198.966857 
L 92.493137 193.536 
L 92.6216 188.105143 
L 92.707243 182.674286 
L 92.750064 177.243429 
L 92.750064 171.812571 
L 92.707243 166.381714 
L 92.6216 160.950857 
L 92.493137 155.52 
L 92.321852 150.089143 
L 92.107746 144.658286 
L 91.850819 139.227429 
L 91.551071 133.796571 
L 91.208502 128.365714 
L 90.823111 122.934857 
L 90.3949 117.504 
L 89.923867 112.073143 
L 89.410013 106.642286 
L 88.853337 101.211429 
L 88.253841 95.780571 
L 87.611523 90.349714 
L 86.926385 84.918857 
L 86.752653 83.622753 
L 86.22626 79.488 
L 85.49419 74.057143 
L 84.721449 68.626286 
L 83.908038 63.195429 
L 83.053957 57.764571 
L 82.159204 52.333714 
L 81.223782 46.902857 
L 80.247688 41.472 
" clip-path="url(#p866b37b31f)" style="fill: none; stroke: #1fa187; stroke-width: 1.5"/>
    <path d="M 376.180727 41.472 
L 375.213272 46.902857 
L 374.286127 52.333714 
L 373.399293 57.764571 
L 372.55277 63.195429 
L 371.746557 68.626286 
L 370.99102 73.983643 
L 370.980112 74.057143 
L 370.216509 79.488 
L 369.495329 84.918857 
L 368.816571 90.349714 
L 368.180235 95.780571 
L 367.586322 101.211429 
L 367.034831 106.642286 
L 366.525763 112.073143 
L 366.059117 117.504 
L 365.634893 122.934857 
L 365.253092 128.365714 
L 364.913713 133.796571 
L 364.616756 139.227429 
L 364.362222 144.658286 
L 364.15011 150.089143 
L 363.980421 155.52 
L 363.853154 160.950857 
L 363.768309 166.381714 
L 363.725886 171.812571 
L 363.725886 177.243429 
L 363.768309 182.674286 
L 363.853154 188.105143 
L 363.980421 193.536 
L 364.15011 198.966857 
L 364.362222 204.397714 
L 364.616756 209.828571 
L 364.913713 215.259429 
L 365.253092 220.690286 
L 365.634893 226.121143 
L 366.059117 231.552 
L 366.525763 236.982857 
L 367.034831 242.413714 
L 367.586322 247.844571 
L 368.180235 253.275429 
L 368.816571 258.706286 
L 369.495329 264.137143 
L 370.216509 269.568 
L 370.980112 274.998857 
L 370.99102 275.072357 
L 371.746557 280.429714 
L 372.55277 285.860571 
L 373.399293 291.291429 
L 374.286127 296.722286 
L 375.213272 302.153143 
L 376.180727 307.584 
" clip-path="url(#p866b37b31f)" style="fill: none; stroke: #1fa187; stroke-width: 1.5"/>
   </g>
   <g id="PathCollection_10">
    <path d="M 71.275074 307.584 
L 72.162071 302.153143 
L 72.176327 302.062066 
L 73.052079 296.722286 
L 73.904043 291.291429 
L 74.717281 285.860571 
L 75.491794 280.429714 
L 76.22758 274.998857 
L 76.924642 269.568 
L 77.582977 264.137143 
L 78.202588 258.706286 
L 78.783472 253.275429 
L 79.325631 247.844571 
L 79.46449 246.34661 
L 79.847374 242.413714 
L 80.335421 236.982857 
L 80.782797 231.552 
L 81.189502 226.121143 
L 81.555537 220.690286 
L 81.880902 215.259429 
L 82.165596 209.828571 
L 82.409619 204.397714 
L 82.612972 198.966857 
L 82.775654 193.536 
L 82.897666 188.105143 
L 82.979007 182.674286 
L 83.019677 177.243429 
L 83.019677 171.812571 
L 82.979007 166.381714 
L 82.897666 160.950857 
L 82.775654 155.52 
L 82.612972 150.089143 
L 82.409619 144.658286 
L 82.165596 139.227429 
L 81.880902 133.796571 
L 81.555537 128.365714 
L 81.189502 122.934857 
L 80.782797 117.504 
L 80.335421 112.073143 
L 79.847374 106.642286 
L 79.46449 102.70939 
L 79.325631 101.211429 
L 78.783472 95.780571 
L 78.202588 90.349714 
L 77.582977 84.918857 
L 76.924642 79.488 
L 76.22758 74.057143 
L 75.491794 68.626286 
L 74.717281 63.195429 
L 73.904043 57.764571 
L 73.052079 52.333714 
L 72.176327 46.993934 
L 72.162071 46.902857 
L 71.275074 41.472 
" clip-path="url(#p866b37b31f)" style="fill: none; stroke: #2db27d; stroke-width: 1.5"/>
    <path d="M 385.182807 41.472 
L 384.261226 46.902857 
L 383.378045 52.333714 
L 382.533264 57.764571 
L 381.726881 63.195429 
L 380.958897 68.626286 
L 380.229313 74.057143 
L 379.538128 79.488 
L 378.885342 84.918857 
L 378.279184 90.27698 
L 378.270546 90.349714 
L 377.665886 95.780571 
L 377.101537 101.211429 
L 376.577499 106.642286 
L 376.093771 112.073143 
L 375.650354 117.504 
L 375.247248 122.934857 
L 374.884452 128.365714 
L 374.561967 133.796571 
L 374.279793 139.227429 
L 374.037929 144.658286 
L 373.836376 150.089143 
L 373.675133 155.52 
L 373.554201 160.950857 
L 373.47358 166.381714 
L 373.433269 171.812571 
L 373.433269 177.243429 
L 373.47358 182.674286 
L 373.554201 188.105143 
L 373.675133 193.536 
L 373.836376 198.966857 
L 374.037929 204.397714 
L 374.279793 209.828571 
L 374.561967 215.259429 
L 374.884452 220.690286 
L 375.247248 226.121143 
L 375.650354 231.552 
L 376.093771 236.982857 
L 376.577499 242.413714 
L 377.101537 247.844571 
L 377.665886 253.275429 
L 378.270546 258.706286 
L 378.279184 258.77902 
L 378.885342 264.137143 
L 379.538128 269.568 
L 380.229313 274.998857 
L 380.958897 280.429714 
L 381.726881 285.860571 
L 382.533264 291.291429 
L 383.378045 296.722286 
L 384.261226 302.153143 
L 385.182807 307.584 
" clip-path="url(#p866b37b31f)" style="fill: none; stroke: #2db27d; stroke-width: 1.5"/>
   </g>
   <g id="PathCollection_11">
    <path d="M 62.801791 307.584 
L 63.650074 302.153143 
L 64.463012 296.722286 
L 64.888163 293.752947 
L 65.25669 291.291429 
L 66.032812 285.860571 
L 66.771977 280.429714 
L 67.474184 274.998857 
L 68.139432 269.568 
L 68.767722 264.137143 
L 69.359053 258.706286 
L 69.913427 253.275429 
L 70.430842 247.844571 
L 70.911299 242.413714 
L 71.354798 236.982857 
L 71.761338 231.552 
L 72.130921 226.121143 
L 72.176327 225.379788 
L 72.47728 220.690286 
L 72.787085 215.259429 
L 73.058164 209.828571 
L 73.290518 204.397714 
L 73.484146 198.966857 
L 73.639049 193.536 
L 73.755226 188.105143 
L 73.832677 182.674286 
L 73.871403 177.243429 
L 73.871403 171.812571 
L 73.832677 166.381714 
L 73.755226 160.950857 
L 73.639049 155.52 
L 73.484146 150.089143 
L 73.290518 144.658286 
L 73.058164 139.227429 
L 72.787085 133.796571 
L 72.47728 128.365714 
L 72.176327 123.676212 
L 72.130921 122.934857 
L 71.761338 117.504 
L 71.354798 112.073143 
L 70.911299 106.642286 
L 70.430842 101.211429 
L 69.913427 95.780571 
L 69.359053 90.349714 
L 68.767722 84.918857 
L 68.139432 79.488 
L 67.474184 74.057143 
L 66.771977 68.626286 
L 66.032812 63.195429 
L 65.25669 57.764571 
L 64.888163 55.303053 
L 64.463012 52.333714 
L 63.650074 46.902857 
L 62.801791 41.472 
" clip-path="url(#p866b37b31f)" style="fill: none; stroke: #4ac16d; stroke-width: 1.5"/>
    <path d="M 393.663191 41.472 
L 392.85551 46.683037 
L 392.819897 46.902857 
L 391.976699 52.333714 
L 391.170162 57.764571 
L 390.400285 63.195429 
L 389.66707 68.626286 
L 388.970515 74.057143 
L 388.310621 79.488 
L 387.687388 84.918857 
L 387.100815 90.349714 
L 386.550903 95.780571 
L 386.037652 101.211429 
L 385.567347 106.57067 
L 385.560764 106.642286 
L 385.099974 112.073143 
L 384.677583 117.504 
L 384.293591 122.934857 
L 383.947999 128.365714 
L 383.640806 133.796571 
L 383.372011 139.227429 
L 383.141616 144.658286 
L 382.94962 150.089143 
L 382.796024 155.52 
L 382.680826 160.950857 
L 382.604028 166.381714 
L 382.565629 171.812571 
L 382.565629 177.243429 
L 382.604028 182.674286 
L 382.680826 188.105143 
L 382.796024 193.536 
L 382.94962 198.966857 
L 383.141616 204.397714 
L 383.372011 209.828571 
L 383.640806 215.259429 
L 383.947999 220.690286 
L 384.293591 226.121143 
L 384.677583 231.552 
L 385.099974 236.982857 
L 385.560764 242.413714 
L 385.567347 242.48533 
L 386.037652 247.844571 
L 386.550903 253.275429 
L 387.100815 258.706286 
L 387.687388 264.137143 
L 388.310621 269.568 
L 388.970515 274.998857 
L 389.66707 280.429714 
L 390.400285 285.860571 
L 391.170162 291.291429 
L 391.976699 296.722286 
L 392.819897 302.153143 
L 392.85551 302.372963 
L 393.663191 307.584 
" clip-path="url(#p866b37b31f)" style="fill: none; stroke: #4ac16d; stroke-width: 1.5"/>
   </g>
   <g id="PathCollection_12">
    <path d="M 57.6 287.238605 
L 57.788339 285.860571 
L 58.495241 280.429714 
L 59.166799 274.998857 
L 59.803011 269.568 
L 60.403878 264.137143 
L 60.9694 258.706286 
L 61.499576 253.275429 
L 61.994408 247.844571 
L 62.453895 242.413714 
L 62.878036 236.982857 
L 63.266832 231.552 
L 63.620283 226.121143 
L 63.938389 220.690286 
L 64.22115 215.259429 
L 64.468566 209.828571 
L 64.680637 204.397714 
L 64.857363 198.966857 
L 64.888163 197.783706 
L 65.00379 193.536 
L 65.114664 188.105143 
L 65.188581 182.674286 
L 65.225539 177.243429 
L 65.225539 171.812571 
L 65.188581 166.381714 
L 65.114664 160.950857 
L 65.00379 155.52 
L 64.888163 151.272294 
L 64.857363 150.089143 
L 64.680637 144.658286 
L 64.468566 139.227429 
L 64.22115 133.796571 
L 63.938389 128.365714 
L 63.620283 122.934857 
L 63.266832 117.504 
L 62.878036 112.073143 
L 62.453895 106.642286 
L 61.994408 101.211429 
L 61.499576 95.780571 
L 60.9694 90.349714 
L 60.403878 84.918857 
L 59.803011 79.488 
L 59.166799 74.057143 
L 58.495241 68.626286 
L 57.788339 63.195429 
L 57.6 61.817395 
" clip-path="url(#p866b37b31f)" style="fill: none; stroke: #73d056; stroke-width: 1.5"/>
    <path d="M 401.726073 41.472 
L 400.919265 46.902857 
L 400.146075 52.333714 
L 400.143673 52.351347 
L 399.374573 57.764571 
L 398.638041 63.195429 
L 397.936582 68.626286 
L 397.270195 74.057143 
L 396.638882 79.488 
L 396.042641 84.918857 
L 395.481474 90.349714 
L 394.955379 95.780571 
L 394.464357 101.211429 
L 394.008409 106.642286 
L 393.587533 112.073143 
L 393.201731 117.504 
L 392.85551 122.865032 
L 392.850797 122.934857 
L 392.52085 128.365714 
L 392.227563 133.796571 
L 391.970938 139.227429 
L 391.750973 144.658286 
L 391.567669 150.089143 
L 391.421026 155.52 
L 391.311044 160.950857 
L 391.237722 166.381714 
L 391.201062 171.812571 
L 391.201062 177.243429 
L 391.237722 182.674286 
L 391.311044 188.105143 
L 391.421026 193.536 
L 391.567669 198.966857 
L 391.750973 204.397714 
L 391.970938 209.828571 
L 392.227563 215.259429 
L 392.52085 220.690286 
L 392.850797 226.121143 
L 392.85551 226.190968 
L 393.201731 231.552 
L 393.587533 236.982857 
L 394.008409 242.413714 
L 394.464357 247.844571 
L 394.955379 253.275429 
L 395.481474 258.706286 
L 396.042641 264.137143 
L 396.638882 269.568 
L 397.270195 274.998857 
L 397.936582 280.429714 
L 398.638041 285.860571 
L 399.374573 291.291429 
L 400.143673 296.704653 
L 400.146075 296.722286 
L 400.919265 302.153143 
L 401.726073 307.584 
" clip-path="url(#p866b37b31f)" style="fill: none; stroke: #73d056; stroke-width: 1.5"/>
   </g>
   <g id="PathCollection_13">
    <path d="M 409.436704 41.472 
L 408.662054 46.902857 
L 407.919682 52.333714 
L 407.431837 56.064784 
L 407.20036 57.764571 
L 406.494403 63.195429 
L 405.822063 68.626286 
L 405.18334 74.057143 
L 404.578235 79.488 
L 404.006746 84.918857 
L 403.468874 90.349714 
L 402.964619 95.780571 
L 402.493981 101.211429 
L 402.05696 106.642286 
L 401.653557 112.073143 
L 401.28377 117.504 
L 400.9476 122.934857 
L 400.645047 128.365714 
L 400.376111 133.796571 
L 400.143673 139.160928 
L 400.140667 139.227429 
L 399.930229 144.658286 
L 399.754865 150.089143 
L 399.614573 155.52 
L 399.509354 160.950857 
L 399.439208 166.381714 
L 399.404135 171.812571 
L 399.404135 177.243429 
L 399.439208 182.674286 
L 399.509354 188.105143 
L 399.614573 193.536 
L 399.754865 198.966857 
L 399.930229 204.397714 
L 400.140667 209.828571 
L 400.143673 209.895072 
L 400.376111 215.259429 
L 400.645047 220.690286 
L 400.9476 226.121143 
L 401.28377 231.552 
L 401.653557 236.982857 
L 402.05696 242.413714 
L 402.493981 247.844571 
L 402.964619 253.275429 
L 403.468874 258.706286 
L 404.006746 264.137143 
L 404.578235 269.568 
L 405.18334 274.998857 
L 405.822063 280.429714 
L 406.494403 285.860571 
L 407.20036 291.291429 
L 407.431837 292.991216 
L 407.919682 296.722286 
L 408.662054 302.153143 
L 409.436704 307.584 
" clip-path="url(#p866b37b31f)" style="fill: none; stroke: #a0da39; stroke-width: 1.5"/>
   </g>
   <g id="PathCollection_14">
    <path d="M 414.72 57.556506 
L 414.692795 57.764571 
L 414.014976 63.195429 
L 413.369435 68.626286 
L 412.756171 74.057143 
L 412.175183 79.488 
L 411.626473 84.918857 
L 411.11004 90.349714 
L 410.625884 95.780571 
L 410.174005 101.211429 
L 409.754403 106.642286 
L 409.367078 112.073143 
L 409.01203 117.504 
L 408.689259 122.934857 
L 408.398766 128.365714 
L 408.140549 133.796571 
L 407.91461 139.227429 
L 407.720947 144.658286 
L 407.559562 150.089143 
L 407.431837 155.461812 
L 407.430396 155.52 
L 407.329545 160.950857 
L 407.262311 166.381714 
L 407.228694 171.812571 
L 407.228694 177.243429 
L 407.262311 182.674286 
L 407.329545 188.105143 
L 407.430396 193.536 
L 407.431837 193.594188 
L 407.559562 198.966857 
L 407.720947 204.397714 
L 407.91461 209.828571 
L 408.140549 215.259429 
L 408.398766 220.690286 
L 408.689259 226.121143 
L 409.01203 231.552 
L 409.367078 236.982857 
L 409.754403 242.413714 
L 410.174005 247.844571 
L 410.625884 253.275429 
L 411.11004 258.706286 
L 411.626473 264.137143 
L 412.175183 269.568 
L 412.756171 274.998857 
L 413.369435 280.429714 
L 414.014976 285.860571 
L 414.692795 291.291429 
L 414.72 291.499494 
" clip-path="url(#p866b37b31f)" style="fill: none; stroke: #d0e11c; stroke-width: 1.5"/>
   </g>
   <g id="PathCollection_15"/>
   <g id="patch_3">
    <path d="M 57.6 307.584 
L 57.6 41.472 
" style="fill: none; stroke: #000000; stroke-width: 0.8; stroke-linejoin: miter; stroke-linecap: square"/>
   </g>
   <g id="patch_4">
    <path d="M 414.72 307.584 
L 414.72 41.472 
" style="fill: none; stroke: #000000; stroke-width: 0.8; stroke-linejoin: miter; stroke-linecap: square"/>
   </g>
   <g id="patch_5">
    <path d="M 57.6 307.584 
L 414.72 307.584 
" style="fill: none; stroke: #000000; stroke-width: 0.8; stroke-linejoin: miter; stroke-linecap: square"/>
   </g>
   <g id="patch_6">
    <path d="M 57.6 41.472 
L 414.72 41.472 
" style="fill: none; stroke: #000000; stroke-width: 0.8; stroke-linejoin: miter; stroke-linecap: square"/>
   </g>
   <g id="text_21">
    <!-- Function of z(x,y) -->
    <g transform="translate(184.204688 35.472)scale(0.12 -0.12)">
     <defs>
      <path id="DejaVuSans-46" d="M 628 4666 
L 3309 4666 
L 3309 4134 
L 1259 4134 
L 1259 2759 
L 3109 2759 
L 3109 2228 
L 1259 2228 
L 1259 0 
L 628 0 
L 628 4666 
z
" transform="scale(0.015625)"/>
      <path id="DejaVuSans-75" d="M 544 1381 
L 544 3500 
L 1119 3500 
L 1119 1403 
Q 1119 906 1312 657 
Q 1506 409 1894 409 
Q 2359 409 2629 706 
Q 2900 1003 2900 1516 
L 2900 3500 
L 3475 3500 
L 3475 0 
L 2900 0 
L 2900 538 
Q 2691 219 2414 64 
Q 2138 -91 1772 -91 
Q 1169 -91 856 284 
Q 544 659 544 1381 
z
M 1991 3584 
L 1991 3584 
z
" transform="scale(0.015625)"/>
      <path id="DejaVuSans-6e" d="M 3513 2113 
L 3513 0 
L 2938 0 
L 2938 2094 
Q 2938 2591 2744 2837 
Q 2550 3084 2163 3084 
Q 1697 3084 1428 2787 
Q 1159 2491 1159 1978 
L 1159 0 
L 581 0 
L 581 3500 
L 1159 3500 
L 1159 2956 
Q 1366 3272 1645 3428 
Q 1925 3584 2291 3584 
Q 2894 3584 3203 3211 
Q 3513 2838 3513 2113 
z
" transform="scale(0.015625)"/>
      <path id="DejaVuSans-63" d="M 3122 3366 
L 3122 2828 
Q 2878 2963 2633 3030 
Q 2388 3097 2138 3097 
Q 1578 3097 1268 2742 
Q 959 2388 959 1747 
Q 959 1106 1268 751 
Q 1578 397 2138 397 
Q 2388 397 2633 464 
Q 2878 531 3122 666 
L 3122 134 
Q 2881 22 2623 -34 
Q 2366 -91 2075 -91 
Q 1284 -91 818 406 
Q 353 903 353 1747 
Q 353 2603 823 3093 
Q 1294 3584 2113 3584 
Q 2378 3584 2631 3529 
Q 2884 3475 3122 3366 
z
" transform="scale(0.015625)"/>
      <path id="DejaVuSans-74" d="M 1172 4494 
L 1172 3500 
L 2356 3500 
L 2356 3053 
L 1172 3053 
L 1172 1153 
Q 1172 725 1289 603 
Q 1406 481 1766 481 
L 2356 481 
L 2356 0 
L 1766 0 
Q 1100 0 847 248 
Q 594 497 594 1153 
L 594 3053 
L 172 3053 
L 172 3500 
L 594 3500 
L 594 4494 
L 1172 4494 
z
" transform="scale(0.015625)"/>
      <path id="DejaVuSans-69" d="M 603 3500 
L 1178 3500 
L 1178 0 
L 603 0 
L 603 3500 
z
M 603 4863 
L 1178 4863 
L 1178 4134 
L 603 4134 
L 603 4863 
z
" transform="scale(0.015625)"/>
      <path id="DejaVuSans-6f" d="M 1959 3097 
Q 1497 3097 1228 2736 
Q 959 2375 959 1747 
Q 959 1119 1226 758 
Q 1494 397 1959 397 
Q 2419 397 2687 759 
Q 2956 1122 2956 1747 
Q 2956 2369 2687 2733 
Q 2419 3097 1959 3097 
z
M 1959 3584 
Q 2709 3584 3137 3096 
Q 3566 2609 3566 1747 
Q 3566 888 3137 398 
Q 2709 -91 1959 -91 
Q 1206 -91 779 398 
Q 353 888 353 1747 
Q 353 2609 779 3096 
Q 1206 3584 1959 3584 
z
" transform="scale(0.015625)"/>
      <path id="DejaVuSans-20" transform="scale(0.015625)"/>
      <path id="DejaVuSans-66" d="M 2375 4863 
L 2375 4384 
L 1825 4384 
Q 1516 4384 1395 4259 
Q 1275 4134 1275 3809 
L 1275 3500 
L 2222 3500 
L 2222 3053 
L 1275 3053 
L 1275 0 
L 697 0 
L 697 3053 
L 147 3053 
L 147 3500 
L 697 3500 
L 697 3744 
Q 697 4328 969 4595 
Q 1241 4863 1831 4863 
L 2375 4863 
z
" transform="scale(0.015625)"/>
      <path id="DejaVuSans-7a" d="M 353 3500 
L 3084 3500 
L 3084 2975 
L 922 459 
L 3084 459 
L 3084 0 
L 275 0 
L 275 525 
L 2438 3041 
L 353 3041 
L 353 3500 
z
" transform="scale(0.015625)"/>
      <path id="DejaVuSans-28" d="M 1984 4856 
Q 1566 4138 1362 3434 
Q 1159 2731 1159 2009 
Q 1159 1288 1364 580 
Q 1569 -128 1984 -844 
L 1484 -844 
Q 1016 -109 783 600 
Q 550 1309 550 2009 
Q 550 2706 781 3412 
Q 1013 4119 1484 4856 
L 1984 4856 
z
" transform="scale(0.015625)"/>
      <path id="DejaVuSans-2c" d="M 750 794 
L 1409 794 
L 1409 256 
L 897 -744 
L 494 -744 
L 750 256 
L 750 794 
z
" transform="scale(0.015625)"/>
      <path id="DejaVuSans-29" d="M 513 4856 
L 1013 4856 
Q 1481 4119 1714 3412 
Q 1947 2706 1947 2009 
Q 1947 1309 1714 600 
Q 1481 -109 1013 -844 
L 513 -844 
Q 928 -128 1133 580 
Q 1338 1288 1338 2009 
Q 1338 2731 1133 3434 
Q 928 4138 513 4856 
z
" transform="scale(0.015625)"/>
     </defs>
     <use xlink:href="#DejaVuSans-46"/>
     <use xlink:href="#DejaVuSans-75" x="52.019531"/>
     <use xlink:href="#DejaVuSans-6e" x="115.398438"/>
     <use xlink:href="#DejaVuSans-63" x="178.777344"/>
     <use xlink:href="#DejaVuSans-74" x="233.757812"/>
     <use xlink:href="#DejaVuSans-69" x="272.966797"/>
     <use xlink:href="#DejaVuSans-6f" x="300.75"/>
     <use xlink:href="#DejaVuSans-6e" x="361.931641"/>
     <use xlink:href="#DejaVuSans-20" x="425.310547"/>
     <use xlink:href="#DejaVuSans-6f" x="457.097656"/>
     <use xlink:href="#DejaVuSans-66" x="518.279297"/>
     <use xlink:href="#DejaVuSans-20" x="553.484375"/>
     <use xlink:href="#DejaVuSans-7a" x="585.271484"/>
     <use xlink:href="#DejaVuSans-28" x="637.761719"/>
     <use xlink:href="#DejaVuSans-78" x="676.775391"/>
     <use xlink:href="#DejaVuSans-2c" x="735.955078"/>
     <use xlink:href="#DejaVuSans-79" x="767.742188"/>
     <use xlink:href="#DejaVuSans-29" x="826.921875"/>
    </g>
   </g>
  </g>
 </g>
 <defs>
  <clipPath id="p866b37b31f">
   <rect x="57.6" y="41.472" width="357.12" height="266.112"/>
  </clipPath>
 </defs>
</svg>
