<?xml version="1.0" encoding="utf-8" standalone="no"?>
<!DOCTYPE svg PUBLIC "-//W3C//DTD SVG 1.1//EN"
  "http://www.w3.org/Graphics/SVG/1.1/DTD/svg11.dtd">
<svg xmlns:xlink="http://www.w3.org/1999/xlink" width="460.8pt" height="345.6pt" viewBox="0 0 460.8 345.6" xmlns="http://www.w3.org/2000/svg" version="1.1">
 <metadata>
  <rdf:RDF xmlns:dc="http://purl.org/dc/elements/1.1/" xmlns:cc="http://creativecommons.org/ns#" xmlns:rdf="http://www.w3.org/1999/02/22-rdf-syntax-ns#">
   <cc:Work>
    <dc:type rdf:resource="http://purl.org/dc/dcmitype/StillImage"/>
    <dc:date>2022-06-07T14:47:16.133066</dc:date>
    <dc:format>image/svg+xml</dc:format>
    <dc:creator>
     <cc:Agent>
      <dc:title>Matplotlib v3.5.2, https://matplotlib.org/</dc:title>
     </cc:Agent>
    </dc:creator>
   </cc:Work>
  </rdf:RDF>
 </metadata>
 <defs>
  <style type="text/css">*{stroke-linejoin: round; stroke-linecap: butt}</style>
 </defs>
 <g id="figure_1">
  <g id="patch_1">
   <path d="M 0 345.6 
L 460.8 345.6 
L 460.8 0 
L 0 0 
z
" style="fill: #ffffff"/>
  </g>
  <g id="axes_1">
   <g id="patch_2">
    <path d="M 57.6 307.584 
L 414.72 307.584 
L 414.72 41.472 
L 57.6 41.472 
z
" style="fill: #ffffff"/>
   </g>
   <g id="PathCollection_1">
    <defs>
     <path id="m8f8faabaa4" d="M 0 3 
C 0.795609 3 1.55874 2.683901 2.12132 2.12132 
C 2.683901 1.55874 3 0.795609 3 0 
C 3 -0.795609 2.683901 -1.55874 2.12132 -2.12132 
C 1.55874 -2.683901 0.795609 -3 0 -3 
C -0.795609 -3 -1.55874 -2.683901 -2.12132 -2.12132 
C -2.683901 -1.55874 -3 -0.795609 -3 0 
C -3 0.795609 -2.683901 1.55874 -2.12132 2.12132 
C -1.55874 2.683901 -0.795609 3 0 3 
z
" style="stroke: #1f77b4; stroke-opacity: 0.8"/>
    </defs>
    <g clip-path="url(#p4cd7ef9bec)">
     <use xlink:href="#m8f8faabaa4" x="236.16" y="184.018012" style="fill: #1f77b4; fill-opacity: 0.8; stroke: #1f77b4; stroke-opacity: 0.8"/>
     <use xlink:href="#m8f8faabaa4" x="317.323636" y="208.119631" style="fill: #1f77b4; fill-opacity: 0.8; stroke: #1f77b4; stroke-opacity: 0.8"/>
     <use xlink:href="#m8f8faabaa4" x="154.996364" y="210.1281" style="fill: #1f77b4; fill-opacity: 0.8; stroke: #1f77b4; stroke-opacity: 0.8"/>
     <use xlink:href="#m8f8faabaa4" x="73.832727" y="230.212782" style="fill: #1f77b4; fill-opacity: 0.8; stroke: #1f77b4; stroke-opacity: 0.8"/>
     <use xlink:href="#m8f8faabaa4" x="398.487273" y="295.488" style="fill: #1f77b4; fill-opacity: 0.8; stroke: #1f77b4; stroke-opacity: 0.8"/>
    </g>
   </g>
   <g id="PolyCollection_1">
    <path d="M 73.832727 53.568 
L 73.832727 231.934326 
L 77.112066 230.983709 
L 80.391405 230.153948 
L 83.670744 229.32013 
L 86.950083 229.022579 
L 90.229421 228.725028 
L 93.50876 228.427477 
L 96.788099 228.129926 
L 100.067438 227.832375 
L 103.346777 228.149972 
L 106.626116 228.672618 
L 109.905455 229.195264 
L 113.184793 229.717911 
L 116.464132 230.240557 
L 119.743471 230.763203 
L 123.02281 231.285849 
L 126.302149 231.808495 
L 129.581488 232.331141 
L 132.860826 232.940734 
L 136.140165 233.67012 
L 139.419504 234.399506 
L 142.698843 235.128892 
L 145.978182 235.858278 
L 149.257521 236.587664 
L 152.53686 237.31705 
L 155.816198 238.046436 
L 159.095537 238.775822 
L 162.374876 239.505208 
L 165.654215 240.234594 
L 168.933554 240.96398 
L 172.212893 241.693366 
L 175.492231 242.422752 
L 178.77157 243.152138 
L 182.050909 243.881524 
L 185.330248 244.61091 
L 188.609587 245.340296 
L 191.888926 246.069682 
L 195.168264 246.799068 
L 198.447603 247.528454 
L 201.726942 248.25784 
L 205.006281 248.987226 
L 208.28562 249.716612 
L 211.564959 250.445998 
L 214.844298 251.175384 
L 218.123636 251.90477 
L 221.402975 252.603426 
L 224.682314 253.264523 
L 227.961653 253.92562 
L 231.240992 254.586716 
L 234.520331 255.247813 
L 237.799669 255.908909 
L 241.079008 256.570006 
L 244.358347 257.231103 
L 247.637686 257.892199 
L 250.917025 258.553296 
L 254.196364 259.214393 
L 257.475702 259.875489 
L 260.755041 260.536586 
L 264.03438 261.197683 
L 267.313719 261.858779 
L 270.593058 262.519876 
L 273.872397 263.180973 
L 277.151736 263.842069 
L 280.431074 264.503166 
L 283.710413 265.164263 
L 286.989752 265.92348 
L 290.269091 266.735532 
L 293.54843 267.547584 
L 296.827769 268.359636 
L 300.107107 269.171689 
L 303.386446 269.983741 
L 306.665785 270.795793 
L 309.945124 271.607845 
L 313.224463 272.419897 
L 316.503802 273.231949 
L 319.78314 274.044001 
L 323.062479 274.856053 
L 326.341818 275.668105 
L 329.621157 276.480157 
L 332.900496 277.292209 
L 336.179835 278.104262 
L 339.459174 278.892053 
L 342.738512 279.621439 
L 346.017851 280.350825 
L 349.29719 281.080211 
L 352.576529 281.809597 
L 355.855868 282.538983 
L 359.135207 283.268369 
L 362.414545 283.997755 
L 365.693884 284.727141 
L 368.973223 285.456527 
L 372.252562 286.290974 
L 375.531901 287.440602 
L 378.81124 288.59023 
L 382.090579 289.501168 
L 385.369917 290.31534 
L 388.649256 291.129512 
L 391.928595 291.943684 
L 395.207934 293.236081 
L 398.487273 295.488 
L 398.487273 137.823243 
L 398.487273 137.823243 
L 395.207934 138.77386 
L 391.928595 139.724477 
L 388.649256 140.675094 
L 385.369917 141.625711 
L 382.090579 142.576328 
L 378.81124 143.526945 
L 375.531901 144.477562 
L 372.252562 145.428179 
L 368.973223 146.378796 
L 365.693884 147.329413 
L 362.414545 148.28003 
L 359.135207 149.230647 
L 355.855868 150.181264 
L 352.576529 151.131881 
L 349.29719 152.082498 
L 346.017851 153.033115 
L 342.738512 153.983732 
L 339.459174 154.934349 
L 336.179835 155.884966 
L 332.900496 156.835583 
L 329.621157 157.7862 
L 326.341818 158.736817 
L 323.062479 159.687434 
L 319.78314 160.638051 
L 316.503802 161.588668 
L 313.224463 162.539285 
L 309.945124 163.489902 
L 306.665785 164.440519 
L 303.386446 165.391136 
L 300.107107 166.341753 
L 296.827769 167.29237 
L 293.54843 168.242987 
L 290.269091 169.193604 
L 286.989752 170.144221 
L 283.710413 171.088752 
L 280.431074 171.419439 
L 277.151736 172.352667 
L 273.872397 173.285894 
L 270.593058 174.219122 
L 267.313719 175.15235 
L 264.03438 176.085577 
L 260.755041 177.018805 
L 257.475702 177.952033 
L 254.196364 178.215771 
L 250.917025 179.270724 
L 247.637686 180.325677 
L 244.358347 178.184706 
L 241.079008 175.773022 
L 237.799669 173.361339 
L 234.520331 170.949655 
L 231.240992 168.537972 
L 227.961653 166.126288 
L 224.682314 163.714605 
L 221.402975 161.302921 
L 218.123636 158.891238 
L 214.844298 156.479554 
L 211.564959 154.067871 
L 208.28562 151.656187 
L 205.006281 149.244504 
L 201.726942 146.832821 
L 198.447603 144.421137 
L 195.168264 142.009454 
L 191.888926 139.59777 
L 188.609587 137.186087 
L 185.330248 134.774403 
L 182.050909 132.36272 
L 178.77157 129.951036 
L 175.492231 127.539353 
L 172.212893 125.127669 
L 168.933554 122.715986 
L 165.654215 120.304303 
L 162.374876 117.892619 
L 159.095537 115.480936 
L 155.816198 113.069252 
L 152.53686 110.657569 
L 149.257521 108.245885 
L 145.978182 105.834202 
L 142.698843 103.422518 
L 139.419504 101.010835 
L 136.140165 98.599151 
L 132.860826 96.187468 
L 129.581488 93.775784 
L 126.302149 91.364101 
L 123.02281 88.952418 
L 119.743471 86.540734 
L 116.464132 84.129051 
L 113.184793 81.717367 
L 109.905455 79.305684 
L 106.626116 76.894 
L 103.346777 74.482317 
L 100.067438 72.070633 
L 96.788099 69.65895 
L 93.50876 67.247266 
L 90.229421 64.835583 
L 86.950083 62.575676 
L 83.670744 60.323757 
L 80.391405 58.071838 
L 77.112066 55.819919 
L 73.832727 53.568 
z
" clip-path="url(#p4cd7ef9bec)" style="fill: #1f77b4; fill-opacity: 0.15"/>
   </g>
   <g id="matplotlib.axis_1">
    <g id="xtick_1">
     <g id="line2d_1">
      <defs>
       <path id="m33297497bd" d="M 0 0 
L 0 3.5 
" style="stroke: #000000; stroke-width: 0.8"/>
      </defs>
      <g>
       <use xlink:href="#m33297497bd" x="73.832727" y="307.584" style="stroke: #000000; stroke-width: 0.8"/>
      </g>
     </g>
     <g id="text_1">
      <!-- 1.0 -->
      <g transform="translate(65.881165 322.182437)scale(0.1 -0.1)">
       <defs>
        <path id="DejaVuSans-31" d="M 794 531 
L 1825 531 
L 1825 4091 
L 703 3866 
L 703 4441 
L 1819 4666 
L 2450 4666 
L 2450 531 
L 3481 531 
L 3481 0 
L 794 0 
L 794 531 
z
" transform="scale(0.015625)"/>
        <path id="DejaVuSans-2e" d="M 684 794 
L 1344 794 
L 1344 0 
L 684 0 
L 684 794 
z
" transform="scale(0.015625)"/>
        <path id="DejaVuSans-30" d="M 2034 4250 
Q 1547 4250 1301 3770 
Q 1056 3291 1056 2328 
Q 1056 1369 1301 889 
Q 1547 409 2034 409 
Q 2525 409 2770 889 
Q 3016 1369 3016 2328 
Q 3016 3291 2770 3770 
Q 2525 4250 2034 4250 
z
M 2034 4750 
Q 2819 4750 3233 4129 
Q 3647 3509 3647 2328 
Q 3647 1150 3233 529 
Q 2819 -91 2034 -91 
Q 1250 -91 836 529 
Q 422 1150 422 2328 
Q 422 3509 836 4129 
Q 1250 4750 2034 4750 
z
" transform="scale(0.015625)"/>
       </defs>
       <use xlink:href="#DejaVuSans-31"/>
       <use xlink:href="#DejaVuSans-2e" x="63.623047"/>
       <use xlink:href="#DejaVuSans-30" x="95.410156"/>
      </g>
     </g>
    </g>
    <g id="xtick_2">
     <g id="line2d_2">
      <g>
       <use xlink:href="#m33297497bd" x="114.414545" y="307.584" style="stroke: #000000; stroke-width: 0.8"/>
      </g>
     </g>
     <g id="text_2">
      <!-- 1.5 -->
      <g transform="translate(106.462983 322.182437)scale(0.1 -0.1)">
       <defs>
        <path id="DejaVuSans-35" d="M 691 4666 
L 3169 4666 
L 3169 4134 
L 1269 4134 
L 1269 2991 
Q 1406 3038 1543 3061 
Q 1681 3084 1819 3084 
Q 2600 3084 3056 2656 
Q 3513 2228 3513 1497 
Q 3513 744 3044 326 
Q 2575 -91 1722 -91 
Q 1428 -91 1123 -41 
Q 819 9 494 109 
L 494 744 
Q 775 591 1075 516 
Q 1375 441 1709 441 
Q 2250 441 2565 725 
Q 2881 1009 2881 1497 
Q 2881 1984 2565 2268 
Q 2250 2553 1709 2553 
Q 1456 2553 1204 2497 
Q 953 2441 691 2322 
L 691 4666 
z
" transform="scale(0.015625)"/>
       </defs>
       <use xlink:href="#DejaVuSans-31"/>
       <use xlink:href="#DejaVuSans-2e" x="63.623047"/>
       <use xlink:href="#DejaVuSans-35" x="95.410156"/>
      </g>
     </g>
    </g>
    <g id="xtick_3">
     <g id="line2d_3">
      <g>
       <use xlink:href="#m33297497bd" x="154.996364" y="307.584" style="stroke: #000000; stroke-width: 0.8"/>
      </g>
     </g>
     <g id="text_3">
      <!-- 2.0 -->
      <g transform="translate(147.044801 322.182437)scale(0.1 -0.1)">
       <defs>
        <path id="DejaVuSans-32" d="M 1228 531 
L 3431 531 
L 3431 0 
L 469 0 
L 469 531 
Q 828 903 1448 1529 
Q 2069 2156 2228 2338 
Q 2531 2678 2651 2914 
Q 2772 3150 2772 3378 
Q 2772 3750 2511 3984 
Q 2250 4219 1831 4219 
Q 1534 4219 1204 4116 
Q 875 4013 500 3803 
L 500 4441 
Q 881 4594 1212 4672 
Q 1544 4750 1819 4750 
Q 2544 4750 2975 4387 
Q 3406 4025 3406 3419 
Q 3406 3131 3298 2873 
Q 3191 2616 2906 2266 
Q 2828 2175 2409 1742 
Q 1991 1309 1228 531 
z
" transform="scale(0.015625)"/>
       </defs>
       <use xlink:href="#DejaVuSans-32"/>
       <use xlink:href="#DejaVuSans-2e" x="63.623047"/>
       <use xlink:href="#DejaVuSans-30" x="95.410156"/>
      </g>
     </g>
    </g>
    <g id="xtick_4">
     <g id="line2d_4">
      <g>
       <use xlink:href="#m33297497bd" x="195.578182" y="307.584" style="stroke: #000000; stroke-width: 0.8"/>
      </g>
     </g>
     <g id="text_4">
      <!-- 2.5 -->
      <g transform="translate(187.626619 322.182437)scale(0.1 -0.1)">
       <use xlink:href="#DejaVuSans-32"/>
       <use xlink:href="#DejaVuSans-2e" x="63.623047"/>
       <use xlink:href="#DejaVuSans-35" x="95.410156"/>
      </g>
     </g>
    </g>
    <g id="xtick_5">
     <g id="line2d_5">
      <g>
       <use xlink:href="#m33297497bd" x="236.16" y="307.584" style="stroke: #000000; stroke-width: 0.8"/>
      </g>
     </g>
     <g id="text_5">
      <!-- 3.0 -->
      <g transform="translate(228.208437 322.182437)scale(0.1 -0.1)">
       <defs>
        <path id="DejaVuSans-33" d="M 2597 2516 
Q 3050 2419 3304 2112 
Q 3559 1806 3559 1356 
Q 3559 666 3084 287 
Q 2609 -91 1734 -91 
Q 1441 -91 1130 -33 
Q 819 25 488 141 
L 488 750 
Q 750 597 1062 519 
Q 1375 441 1716 441 
Q 2309 441 2620 675 
Q 2931 909 2931 1356 
Q 2931 1769 2642 2001 
Q 2353 2234 1838 2234 
L 1294 2234 
L 1294 2753 
L 1863 2753 
Q 2328 2753 2575 2939 
Q 2822 3125 2822 3475 
Q 2822 3834 2567 4026 
Q 2313 4219 1838 4219 
Q 1578 4219 1281 4162 
Q 984 4106 628 3988 
L 628 4550 
Q 988 4650 1302 4700 
Q 1616 4750 1894 4750 
Q 2613 4750 3031 4423 
Q 3450 4097 3450 3541 
Q 3450 3153 3228 2886 
Q 3006 2619 2597 2516 
z
" transform="scale(0.015625)"/>
       </defs>
       <use xlink:href="#DejaVuSans-33"/>
       <use xlink:href="#DejaVuSans-2e" x="63.623047"/>
       <use xlink:href="#DejaVuSans-30" x="95.410156"/>
      </g>
     </g>
    </g>
    <g id="xtick_6">
     <g id="line2d_6">
      <g>
       <use xlink:href="#m33297497bd" x="276.741818" y="307.584" style="stroke: #000000; stroke-width: 0.8"/>
      </g>
     </g>
     <g id="text_6">
      <!-- 3.5 -->
      <g transform="translate(268.790256 322.182437)scale(0.1 -0.1)">
       <use xlink:href="#DejaVuSans-33"/>
       <use xlink:href="#DejaVuSans-2e" x="63.623047"/>
       <use xlink:href="#DejaVuSans-35" x="95.410156"/>
      </g>
     </g>
    </g>
    <g id="xtick_7">
     <g id="line2d_7">
      <g>
       <use xlink:href="#m33297497bd" x="317.323636" y="307.584" style="stroke: #000000; stroke-width: 0.8"/>
      </g>
     </g>
     <g id="text_7">
      <!-- 4.0 -->
      <g transform="translate(309.372074 322.182437)scale(0.1 -0.1)">
       <defs>
        <path id="DejaVuSans-34" d="M 2419 4116 
L 825 1625 
L 2419 1625 
L 2419 4116 
z
M 2253 4666 
L 3047 4666 
L 3047 1625 
L 3713 1625 
L 3713 1100 
L 3047 1100 
L 3047 0 
L 2419 0 
L 2419 1100 
L 313 1100 
L 313 1709 
L 2253 4666 
z
" transform="scale(0.015625)"/>
       </defs>
       <use xlink:href="#DejaVuSans-34"/>
       <use xlink:href="#DejaVuSans-2e" x="63.623047"/>
       <use xlink:href="#DejaVuSans-30" x="95.410156"/>
      </g>
     </g>
    </g>
    <g id="xtick_8">
     <g id="line2d_8">
      <g>
       <use xlink:href="#m33297497bd" x="357.905455" y="307.584" style="stroke: #000000; stroke-width: 0.8"/>
      </g>
     </g>
     <g id="text_8">
      <!-- 4.5 -->
      <g transform="translate(349.953892 322.182437)scale(0.1 -0.1)">
       <use xlink:href="#DejaVuSans-34"/>
       <use xlink:href="#DejaVuSans-2e" x="63.623047"/>
       <use xlink:href="#DejaVuSans-35" x="95.410156"/>
      </g>
     </g>
    </g>
    <g id="xtick_9">
     <g id="line2d_9">
      <g>
       <use xlink:href="#m33297497bd" x="398.487273" y="307.584" style="stroke: #000000; stroke-width: 0.8"/>
      </g>
     </g>
     <g id="text_9">
      <!-- 5.0 -->
      <g transform="translate(390.53571 322.182437)scale(0.1 -0.1)">
       <use xlink:href="#DejaVuSans-35"/>
       <use xlink:href="#DejaVuSans-2e" x="63.623047"/>
       <use xlink:href="#DejaVuSans-30" x="95.410156"/>
      </g>
     </g>
    </g>
   </g>
   <g id="matplotlib.axis_2">
    <g id="ytick_1">
     <g id="line2d_10">
      <defs>
       <path id="mb8ec5e63f8" d="M 0 0 
L -3.5 0 
" style="stroke: #000000; stroke-width: 0.8"/>
      </defs>
      <g>
       <use xlink:href="#mb8ec5e63f8" x="57.6" y="270.382147" style="stroke: #000000; stroke-width: 0.8"/>
      </g>
     </g>
     <g id="text_10">
      <!-- 50 -->
      <g transform="translate(37.875 274.181366)scale(0.1 -0.1)">
       <use xlink:href="#DejaVuSans-35"/>
       <use xlink:href="#DejaVuSans-30" x="63.623047"/>
      </g>
     </g>
    </g>
    <g id="ytick_2">
     <g id="line2d_11">
      <g>
       <use xlink:href="#mb8ec5e63f8" x="57.6" y="220.170441" style="stroke: #000000; stroke-width: 0.8"/>
      </g>
     </g>
     <g id="text_11">
      <!-- 100 -->
      <g transform="translate(31.5125 223.96966)scale(0.1 -0.1)">
       <use xlink:href="#DejaVuSans-31"/>
       <use xlink:href="#DejaVuSans-30" x="63.623047"/>
       <use xlink:href="#DejaVuSans-30" x="127.246094"/>
      </g>
     </g>
    </g>
    <g id="ytick_3">
     <g id="line2d_12">
      <g>
       <use xlink:href="#mb8ec5e63f8" x="57.6" y="169.958735" style="stroke: #000000; stroke-width: 0.8"/>
      </g>
     </g>
     <g id="text_12">
      <!-- 150 -->
      <g transform="translate(31.5125 173.757953)scale(0.1 -0.1)">
       <use xlink:href="#DejaVuSans-31"/>
       <use xlink:href="#DejaVuSans-35" x="63.623047"/>
       <use xlink:href="#DejaVuSans-30" x="127.246094"/>
      </g>
     </g>
    </g>
    <g id="ytick_4">
     <g id="line2d_13">
      <g>
       <use xlink:href="#mb8ec5e63f8" x="57.6" y="119.747029" style="stroke: #000000; stroke-width: 0.8"/>
      </g>
     </g>
     <g id="text_13">
      <!-- 200 -->
      <g transform="translate(31.5125 123.546247)scale(0.1 -0.1)">
       <use xlink:href="#DejaVuSans-32"/>
       <use xlink:href="#DejaVuSans-30" x="63.623047"/>
       <use xlink:href="#DejaVuSans-30" x="127.246094"/>
      </g>
     </g>
    </g>
    <g id="ytick_5">
     <g id="line2d_14">
      <g>
       <use xlink:href="#mb8ec5e63f8" x="57.6" y="69.535323" style="stroke: #000000; stroke-width: 0.8"/>
      </g>
     </g>
     <g id="text_14">
      <!-- 250 -->
      <g transform="translate(31.5125 73.334541)scale(0.1 -0.1)">
       <use xlink:href="#DejaVuSans-32"/>
       <use xlink:href="#DejaVuSans-35" x="63.623047"/>
       <use xlink:href="#DejaVuSans-30" x="127.246094"/>
      </g>
     </g>
    </g>
   </g>
   <g id="line2d_15">
    <path d="M 73.832727 199.884912 
L 77.112066 200.404273 
L 80.391405 200.923635 
L 83.670744 201.442996 
L 86.950083 201.962358 
L 90.229421 202.481719 
L 93.50876 203.00108 
L 96.788099 203.520442 
L 100.067438 204.039803 
L 103.346777 204.559165 
L 106.626116 205.078526 
L 109.905455 205.597888 
L 113.184793 206.117249 
L 116.464132 206.636611 
L 119.743471 207.155972 
L 123.02281 207.675334 
L 126.302149 208.194695 
L 129.581488 208.714057 
L 132.860826 209.233418 
L 136.140165 209.75278 
L 139.419504 210.272141 
L 142.698843 210.791503 
L 145.978182 211.310864 
L 149.257521 211.830226 
L 152.53686 212.349587 
L 155.816198 212.868949 
L 159.095537 213.38831 
L 162.374876 213.907672 
L 165.654215 214.427033 
L 168.933554 214.946395 
L 172.212893 215.465756 
L 175.492231 215.985118 
L 178.77157 216.504479 
L 182.050909 217.023841 
L 185.330248 217.543202 
L 188.609587 218.062564 
L 191.888926 218.581925 
L 195.168264 219.101287 
L 198.447603 219.620648 
L 201.726942 220.14001 
L 205.006281 220.659371 
L 208.28562 221.178732 
L 211.564959 221.698094 
L 214.844298 222.217455 
L 218.123636 222.736817 
L 221.402975 223.256178 
L 224.682314 223.77554 
L 227.961653 224.294901 
L 231.240992 224.814263 
L 234.520331 225.333624 
L 237.799669 225.852986 
L 241.079008 226.372347 
L 244.358347 226.891709 
L 247.637686 227.41107 
L 250.917025 227.930432 
L 254.196364 228.449793 
L 257.475702 228.969155 
L 260.755041 229.488516 
L 264.03438 230.007878 
L 267.313719 230.527239 
L 270.593058 231.046601 
L 273.872397 231.565962 
L 277.151736 232.085324 
L 280.431074 232.604685 
L 283.710413 233.124047 
L 286.989752 233.643408 
L 290.269091 234.16277 
L 293.54843 234.682131 
L 296.827769 235.201493 
L 300.107107 235.720854 
L 303.386446 236.240216 
L 306.665785 236.759577 
L 309.945124 237.278939 
L 313.224463 237.7983 
L 316.503802 238.317661 
L 319.78314 238.837023 
L 323.062479 239.356384 
L 326.341818 239.875746 
L 329.621157 240.395107 
L 332.900496 240.914469 
L 336.179835 241.43383 
L 339.459174 241.953192 
L 342.738512 242.472553 
L 346.017851 242.991915 
L 349.29719 243.511276 
L 352.576529 244.030638 
L 355.855868 244.549999 
L 359.135207 245.069361 
L 362.414545 245.588722 
L 365.693884 246.108084 
L 368.973223 246.627445 
L 372.252562 247.146807 
L 375.531901 247.666168 
L 378.81124 248.18553 
L 382.090579 248.704891 
L 385.369917 249.224253 
L 388.649256 249.743614 
L 391.928595 250.262976 
L 395.207934 250.782337 
L 398.487273 251.301699 
" clip-path="url(#p4cd7ef9bec)" style="fill: none; stroke: #1f77b4; stroke-width: 2.25; stroke-linecap: square"/>
   </g>
   <g id="patch_3">
    <path d="M 57.6 307.584 
L 57.6 41.472 
" style="fill: none; stroke: #000000; stroke-width: 0.8; stroke-linejoin: miter; stroke-linecap: square"/>
   </g>
   <g id="patch_4">
    <path d="M 414.72 307.584 
L 414.72 41.472 
" style="fill: none; stroke: #000000; stroke-width: 0.8; stroke-linejoin: miter; stroke-linecap: square"/>
   </g>
   <g id="patch_5">
    <path d="M 57.6 307.584 
L 414.72 307.584 
" style="fill: none; stroke: #000000; stroke-width: 0.8; stroke-linejoin: miter; stroke-linecap: square"/>
   </g>
   <g id="patch_6">
    <path d="M 57.6 41.472 
L 414.72 41.472 
" style="fill: none; stroke: #000000; stroke-width: 0.8; stroke-linejoin: miter; stroke-linecap: square"/>
   </g>
  </g>
 </g>
 <defs>
  <clipPath id="p4cd7ef9bec">
   <rect x="57.6" y="41.472" width="357.12" height="266.112"/>
  </clipPath>
 </defs>
</svg>
