<?xml version="1.0" encoding="utf-8" standalone="no"?>
<!DOCTYPE svg PUBLIC "-//W3C//DTD SVG 1.1//EN"
  "http://www.w3.org/Graphics/SVG/1.1/DTD/svg11.dtd">
<svg xmlns:xlink="http://www.w3.org/1999/xlink" width="460.8pt" height="345.6pt" viewBox="0 0 460.8 345.6" xmlns="http://www.w3.org/2000/svg" version="1.1">
 <metadata>
  <rdf:RDF xmlns:dc="http://purl.org/dc/elements/1.1/" xmlns:cc="http://creativecommons.org/ns#" xmlns:rdf="http://www.w3.org/1999/02/22-rdf-syntax-ns#">
   <cc:Work>
    <dc:type rdf:resource="http://purl.org/dc/dcmitype/StillImage"/>
    <dc:date>2022-06-06T11:18:35.687356</dc:date>
    <dc:format>image/svg+xml</dc:format>
    <dc:creator>
     <cc:Agent>
      <dc:title>Matplotlib v3.5.2, https://matplotlib.org/</dc:title>
     </cc:Agent>
    </dc:creator>
   </cc:Work>
  </rdf:RDF>
 </metadata>
 <defs>
  <style type="text/css">*{stroke-linejoin: round; stroke-linecap: butt}</style>
 </defs>
 <g id="figure_1">
  <g id="patch_1">
   <path d="M 0 345.6 
L 460.8 345.6 
L 460.8 0 
L 0 0 
z
" style="fill: #ffffff"/>
  </g>
  <g id="axes_1">
   <g id="patch_2">
    <path d="M 57.6 307.584 
L 414.72 307.584 
L 414.72 41.472 
L 57.6 41.472 
z
" style="fill: #ffffff"/>
   </g>
   <g id="PathCollection_1">
    <defs>
     <path id="ma795b68040" d="M 0 3 
C 0.795609 3 1.55874 2.683901 2.12132 2.12132 
C 2.683901 1.55874 3 0.795609 3 0 
C 3 -0.795609 2.683901 -1.55874 2.12132 -2.12132 
C 1.55874 -2.683901 0.795609 -3 0 -3 
C -0.795609 -3 -1.55874 -2.683901 -2.12132 -2.12132 
C -2.683901 -1.55874 -3 -0.795609 -3 0 
C -3 0.795609 -2.683901 1.55874 -2.12132 2.12132 
C -1.55874 2.683901 -0.795609 3 0 3 
z
" style="stroke: #1f77b4; stroke-opacity: 0.8"/>
    </defs>
    <g clip-path="url(#peacad11e59)">
     <use xlink:href="#ma795b68040" x="73.832727" y="239.81469" style="fill: #1f77b4; fill-opacity: 0.8; stroke: #1f77b4; stroke-opacity: 0.8"/>
     <use xlink:href="#ma795b68040" x="154.996364" y="160.281391" style="fill: #1f77b4; fill-opacity: 0.8; stroke: #1f77b4; stroke-opacity: 0.8"/>
     <use xlink:href="#ma795b68040" x="236.16" y="177.513606" style="fill: #1f77b4; fill-opacity: 0.8; stroke: #1f77b4; stroke-opacity: 0.8"/>
     <use xlink:href="#ma795b68040" x="317.323636" y="226.55914" style="fill: #1f77b4; fill-opacity: 0.8; stroke: #1f77b4; stroke-opacity: 0.8"/>
     <use xlink:href="#ma795b68040" x="398.487273" y="295.488" style="fill: #1f77b4; fill-opacity: 0.8; stroke: #1f77b4; stroke-opacity: 0.8"/>
    </g>
   </g>
   <g id="PolyCollection_1">
    <path d="M 73.832727 53.568 
L 73.832727 239.81469 
L 77.112066 238.556082 
L 80.391405 237.576187 
L 83.670744 237.90458 
L 86.950083 238.232974 
L 90.229421 238.561368 
L 93.50876 238.743535 
L 96.788099 238.565009 
L 100.067438 238.386483 
L 103.346777 238.684239 
L 106.626116 239.140755 
L 109.905455 239.597271 
L 113.184793 240.053787 
L 116.464132 240.510304 
L 119.743471 240.96682 
L 123.02281 241.423336 
L 126.302149 241.879853 
L 129.581488 242.336369 
L 132.860826 242.792885 
L 136.140165 243.15888 
L 139.419504 243.487274 
L 142.698843 243.815668 
L 145.978182 244.144061 
L 149.257521 244.472455 
L 152.53686 244.800849 
L 155.816198 245.129243 
L 159.095537 245.457636 
L 162.374876 245.78603 
L 165.654215 246.114424 
L 168.933554 246.442818 
L 172.212893 246.771211 
L 175.492231 247.099605 
L 178.77157 247.427999 
L 182.050909 247.756393 
L 185.330248 248.084786 
L 188.609587 248.495067 
L 191.888926 249.057424 
L 195.168264 249.61978 
L 198.447603 250.182137 
L 201.726942 250.744494 
L 205.006281 251.30685 
L 208.28562 251.869207 
L 211.564959 252.431564 
L 214.844298 252.99392 
L 218.123636 253.556277 
L 221.402975 254.118634 
L 224.682314 254.68099 
L 227.961653 255.243347 
L 231.240992 255.805704 
L 234.520331 256.36806 
L 237.799669 256.930417 
L 241.079008 257.492774 
L 244.358347 258.05513 
L 247.637686 258.617487 
L 250.917025 259.179844 
L 254.196364 259.683988 
L 257.475702 260.140504 
L 260.755041 260.597021 
L 264.03438 261.053537 
L 267.313719 261.510053 
L 270.593058 261.96657 
L 273.872397 262.423086 
L 277.151736 262.879602 
L 280.431074 263.336118 
L 283.710413 263.792635 
L 286.989752 264.249151 
L 290.269091 264.705667 
L 293.54843 265.162184 
L 296.827769 265.6187 
L 300.107107 266.075216 
L 303.386446 266.531733 
L 306.665785 266.988249 
L 309.945124 267.444765 
L 313.224463 267.901281 
L 316.503802 268.357798 
L 319.78314 268.814314 
L 323.062479 269.518216 
L 326.341818 270.260374 
L 329.621157 271.002532 
L 332.900496 271.74469 
L 336.179835 272.486847 
L 339.459174 273.292882 
L 342.738512 274.252694 
L 346.017851 275.212505 
L 349.29719 276.050544 
L 352.576529 276.6129 
L 355.855868 277.175257 
L 359.135207 277.737614 
L 362.414545 278.42411 
L 365.693884 279.166267 
L 368.973223 279.908425 
L 372.252562 280.920285 
L 375.531901 282.741249 
L 378.81124 284.562213 
L 382.090579 285.770435 
L 385.369917 286.730246 
L 388.649256 287.690058 
L 391.928595 289.917991 
L 395.207934 292.702996 
L 398.487273 295.488 
L 398.487273 84.973297 
L 398.487273 84.973297 
L 395.207934 86.476263 
L 391.928595 87.979228 
L 388.649256 89.482193 
L 385.369917 90.985158 
L 382.090579 92.475905 
L 378.81124 93.734513 
L 375.531901 94.993121 
L 372.252562 96.251729 
L 368.973223 97.510336 
L 365.693884 98.768944 
L 362.414545 100.027552 
L 359.135207 101.28616 
L 355.855868 102.544767 
L 352.576529 103.803375 
L 349.29719 105.061983 
L 346.017851 106.320591 
L 342.738512 107.579199 
L 339.459174 108.837806 
L 336.179835 110.096414 
L 332.900496 111.355022 
L 329.621157 112.61363 
L 326.341818 113.872237 
L 323.062479 115.130845 
L 319.78314 116.389453 
L 316.503802 117.648061 
L 313.224463 118.906668 
L 309.945124 120.165276 
L 306.665785 121.423884 
L 303.386446 122.682492 
L 300.107107 123.9411 
L 296.827769 125.199707 
L 293.54843 126.458315 
L 290.269091 127.716923 
L 286.989752 128.975531 
L 283.710413 130.234138 
L 280.431074 131.492746 
L 277.151736 132.751354 
L 273.872397 134.009962 
L 270.593058 135.26857 
L 267.313719 136.527177 
L 264.03438 137.785785 
L 260.755041 139.044393 
L 257.475702 140.303001 
L 254.196364 141.561608 
L 250.917025 142.945886 
L 247.637686 144.483759 
L 244.358347 146.021632 
L 241.079008 147.559506 
L 237.799669 149.097379 
L 234.520331 150.635252 
L 231.240992 152.173126 
L 227.961653 151.630471 
L 224.682314 152.889078 
L 221.402975 154.147686 
L 218.123636 155.406294 
L 214.844298 155.968077 
L 211.564959 153.527372 
L 208.28562 151.086668 
L 205.006281 148.645963 
L 201.726942 146.205259 
L 198.447603 143.764555 
L 195.168264 141.32385 
L 191.888926 138.883146 
L 188.609587 136.442441 
L 185.330248 134.001737 
L 182.050909 132.22381 
L 178.77157 129.840489 
L 175.492231 127.457168 
L 172.212893 125.073847 
L 168.933554 122.690525 
L 165.654215 120.307204 
L 162.374876 117.923883 
L 159.095537 115.540562 
L 155.816198 113.157241 
L 152.53686 110.77392 
L 149.257521 108.390599 
L 145.978182 106.007278 
L 142.698843 103.623957 
L 139.419504 101.240636 
L 136.140165 98.857314 
L 132.860826 96.473993 
L 129.581488 94.090672 
L 126.302149 91.707351 
L 123.02281 89.32403 
L 119.743471 86.940709 
L 116.464132 84.557388 
L 113.184793 82.174067 
L 109.905455 79.790746 
L 106.626116 77.407425 
L 103.346777 75.024103 
L 100.067438 72.640782 
L 96.788099 70.257461 
L 93.50876 67.87414 
L 90.229421 65.490819 
L 86.950083 63.106305 
L 83.670744 60.721729 
L 80.391405 58.337153 
L 77.112066 55.952576 
L 73.832727 53.568 
z
" clip-path="url(#peacad11e59)" style="fill: #1f77b4; fill-opacity: 0.15"/>
   </g>
   <g id="matplotlib.axis_1">
    <g id="xtick_1">
     <g id="line2d_1">
      <defs>
       <path id="m80b790f814" d="M 0 0 
L 0 3.5 
" style="stroke: #000000; stroke-width: 0.8"/>
      </defs>
      <g>
       <use xlink:href="#m80b790f814" x="73.832727" y="307.584" style="stroke: #000000; stroke-width: 0.8"/>
      </g>
     </g>
     <g id="text_1">
      <!-- 1.0 -->
      <g transform="translate(65.881165 322.182437)scale(0.1 -0.1)">
       <defs>
        <path id="DejaVuSans-31" d="M 794 531 
L 1825 531 
L 1825 4091 
L 703 3866 
L 703 4441 
L 1819 4666 
L 2450 4666 
L 2450 531 
L 3481 531 
L 3481 0 
L 794 0 
L 794 531 
z
" transform="scale(0.015625)"/>
        <path id="DejaVuSans-2e" d="M 684 794 
L 1344 794 
L 1344 0 
L 684 0 
L 684 794 
z
" transform="scale(0.015625)"/>
        <path id="DejaVuSans-30" d="M 2034 4250 
Q 1547 4250 1301 3770 
Q 1056 3291 1056 2328 
Q 1056 1369 1301 889 
Q 1547 409 2034 409 
Q 2525 409 2770 889 
Q 3016 1369 3016 2328 
Q 3016 3291 2770 3770 
Q 2525 4250 2034 4250 
z
M 2034 4750 
Q 2819 4750 3233 4129 
Q 3647 3509 3647 2328 
Q 3647 1150 3233 529 
Q 2819 -91 2034 -91 
Q 1250 -91 836 529 
Q 422 1150 422 2328 
Q 422 3509 836 4129 
Q 1250 4750 2034 4750 
z
" transform="scale(0.015625)"/>
       </defs>
       <use xlink:href="#DejaVuSans-31"/>
       <use xlink:href="#DejaVuSans-2e" x="63.623047"/>
       <use xlink:href="#DejaVuSans-30" x="95.410156"/>
      </g>
     </g>
    </g>
    <g id="xtick_2">
     <g id="line2d_2">
      <g>
       <use xlink:href="#m80b790f814" x="114.414545" y="307.584" style="stroke: #000000; stroke-width: 0.8"/>
      </g>
     </g>
     <g id="text_2">
      <!-- 1.5 -->
      <g transform="translate(106.462983 322.182437)scale(0.1 -0.1)">
       <defs>
        <path id="DejaVuSans-35" d="M 691 4666 
L 3169 4666 
L 3169 4134 
L 1269 4134 
L 1269 2991 
Q 1406 3038 1543 3061 
Q 1681 3084 1819 3084 
Q 2600 3084 3056 2656 
Q 3513 2228 3513 1497 
Q 3513 744 3044 326 
Q 2575 -91 1722 -91 
Q 1428 -91 1123 -41 
Q 819 9 494 109 
L 494 744 
Q 775 591 1075 516 
Q 1375 441 1709 441 
Q 2250 441 2565 725 
Q 2881 1009 2881 1497 
Q 2881 1984 2565 2268 
Q 2250 2553 1709 2553 
Q 1456 2553 1204 2497 
Q 953 2441 691 2322 
L 691 4666 
z
" transform="scale(0.015625)"/>
       </defs>
       <use xlink:href="#DejaVuSans-31"/>
       <use xlink:href="#DejaVuSans-2e" x="63.623047"/>
       <use xlink:href="#DejaVuSans-35" x="95.410156"/>
      </g>
     </g>
    </g>
    <g id="xtick_3">
     <g id="line2d_3">
      <g>
       <use xlink:href="#m80b790f814" x="154.996364" y="307.584" style="stroke: #000000; stroke-width: 0.8"/>
      </g>
     </g>
     <g id="text_3">
      <!-- 2.0 -->
      <g transform="translate(147.044801 322.182437)scale(0.1 -0.1)">
       <defs>
        <path id="DejaVuSans-32" d="M 1228 531 
L 3431 531 
L 3431 0 
L 469 0 
L 469 531 
Q 828 903 1448 1529 
Q 2069 2156 2228 2338 
Q 2531 2678 2651 2914 
Q 2772 3150 2772 3378 
Q 2772 3750 2511 3984 
Q 2250 4219 1831 4219 
Q 1534 4219 1204 4116 
Q 875 4013 500 3803 
L 500 4441 
Q 881 4594 1212 4672 
Q 1544 4750 1819 4750 
Q 2544 4750 2975 4387 
Q 3406 4025 3406 3419 
Q 3406 3131 3298 2873 
Q 3191 2616 2906 2266 
Q 2828 2175 2409 1742 
Q 1991 1309 1228 531 
z
" transform="scale(0.015625)"/>
       </defs>
       <use xlink:href="#DejaVuSans-32"/>
       <use xlink:href="#DejaVuSans-2e" x="63.623047"/>
       <use xlink:href="#DejaVuSans-30" x="95.410156"/>
      </g>
     </g>
    </g>
    <g id="xtick_4">
     <g id="line2d_4">
      <g>
       <use xlink:href="#m80b790f814" x="195.578182" y="307.584" style="stroke: #000000; stroke-width: 0.8"/>
      </g>
     </g>
     <g id="text_4">
      <!-- 2.5 -->
      <g transform="translate(187.626619 322.182437)scale(0.1 -0.1)">
       <use xlink:href="#DejaVuSans-32"/>
       <use xlink:href="#DejaVuSans-2e" x="63.623047"/>
       <use xlink:href="#DejaVuSans-35" x="95.410156"/>
      </g>
     </g>
    </g>
    <g id="xtick_5">
     <g id="line2d_5">
      <g>
       <use xlink:href="#m80b790f814" x="236.16" y="307.584" style="stroke: #000000; stroke-width: 0.8"/>
      </g>
     </g>
     <g id="text_5">
      <!-- 3.0 -->
      <g transform="translate(228.208437 322.182437)scale(0.1 -0.1)">
       <defs>
        <path id="DejaVuSans-33" d="M 2597 2516 
Q 3050 2419 3304 2112 
Q 3559 1806 3559 1356 
Q 3559 666 3084 287 
Q 2609 -91 1734 -91 
Q 1441 -91 1130 -33 
Q 819 25 488 141 
L 488 750 
Q 750 597 1062 519 
Q 1375 441 1716 441 
Q 2309 441 2620 675 
Q 2931 909 2931 1356 
Q 2931 1769 2642 2001 
Q 2353 2234 1838 2234 
L 1294 2234 
L 1294 2753 
L 1863 2753 
Q 2328 2753 2575 2939 
Q 2822 3125 2822 3475 
Q 2822 3834 2567 4026 
Q 2313 4219 1838 4219 
Q 1578 4219 1281 4162 
Q 984 4106 628 3988 
L 628 4550 
Q 988 4650 1302 4700 
Q 1616 4750 1894 4750 
Q 2613 4750 3031 4423 
Q 3450 4097 3450 3541 
Q 3450 3153 3228 2886 
Q 3006 2619 2597 2516 
z
" transform="scale(0.015625)"/>
       </defs>
       <use xlink:href="#DejaVuSans-33"/>
       <use xlink:href="#DejaVuSans-2e" x="63.623047"/>
       <use xlink:href="#DejaVuSans-30" x="95.410156"/>
      </g>
     </g>
    </g>
    <g id="xtick_6">
     <g id="line2d_6">
      <g>
       <use xlink:href="#m80b790f814" x="276.741818" y="307.584" style="stroke: #000000; stroke-width: 0.8"/>
      </g>
     </g>
     <g id="text_6">
      <!-- 3.5 -->
      <g transform="translate(268.790256 322.182437)scale(0.1 -0.1)">
       <use xlink:href="#DejaVuSans-33"/>
       <use xlink:href="#DejaVuSans-2e" x="63.623047"/>
       <use xlink:href="#DejaVuSans-35" x="95.410156"/>
      </g>
     </g>
    </g>
    <g id="xtick_7">
     <g id="line2d_7">
      <g>
       <use xlink:href="#m80b790f814" x="317.323636" y="307.584" style="stroke: #000000; stroke-width: 0.8"/>
      </g>
     </g>
     <g id="text_7">
      <!-- 4.0 -->
      <g transform="translate(309.372074 322.182437)scale(0.1 -0.1)">
       <defs>
        <path id="DejaVuSans-34" d="M 2419 4116 
L 825 1625 
L 2419 1625 
L 2419 4116 
z
M 2253 4666 
L 3047 4666 
L 3047 1625 
L 3713 1625 
L 3713 1100 
L 3047 1100 
L 3047 0 
L 2419 0 
L 2419 1100 
L 313 1100 
L 313 1709 
L 2253 4666 
z
" transform="scale(0.015625)"/>
       </defs>
       <use xlink:href="#DejaVuSans-34"/>
       <use xlink:href="#DejaVuSans-2e" x="63.623047"/>
       <use xlink:href="#DejaVuSans-30" x="95.410156"/>
      </g>
     </g>
    </g>
    <g id="xtick_8">
     <g id="line2d_8">
      <g>
       <use xlink:href="#m80b790f814" x="357.905455" y="307.584" style="stroke: #000000; stroke-width: 0.8"/>
      </g>
     </g>
     <g id="text_8">
      <!-- 4.5 -->
      <g transform="translate(349.953892 322.182437)scale(0.1 -0.1)">
       <use xlink:href="#DejaVuSans-34"/>
       <use xlink:href="#DejaVuSans-2e" x="63.623047"/>
       <use xlink:href="#DejaVuSans-35" x="95.410156"/>
      </g>
     </g>
    </g>
    <g id="xtick_9">
     <g id="line2d_9">
      <g>
       <use xlink:href="#m80b790f814" x="398.487273" y="307.584" style="stroke: #000000; stroke-width: 0.8"/>
      </g>
     </g>
     <g id="text_9">
      <!-- 5.0 -->
      <g transform="translate(390.53571 322.182437)scale(0.1 -0.1)">
       <use xlink:href="#DejaVuSans-35"/>
       <use xlink:href="#DejaVuSans-2e" x="63.623047"/>
       <use xlink:href="#DejaVuSans-30" x="95.410156"/>
      </g>
     </g>
    </g>
   </g>
   <g id="matplotlib.axis_2">
    <g id="ytick_1">
     <g id="line2d_10">
      <defs>
       <path id="m28da73e437" d="M 0 0 
L -3.5 0 
" style="stroke: #000000; stroke-width: 0.8"/>
      </defs>
      <g>
       <use xlink:href="#m28da73e437" x="57.6" y="294.162445" style="stroke: #000000; stroke-width: 0.8"/>
      </g>
     </g>
     <g id="text_10">
      <!-- 50 -->
      <g transform="translate(37.875 297.961664)scale(0.1 -0.1)">
       <use xlink:href="#DejaVuSans-35"/>
       <use xlink:href="#DejaVuSans-30" x="63.623047"/>
      </g>
     </g>
    </g>
    <g id="ytick_2">
     <g id="line2d_11">
      <g>
       <use xlink:href="#m28da73e437" x="57.6" y="261.02357" style="stroke: #000000; stroke-width: 0.8"/>
      </g>
     </g>
     <g id="text_11">
      <!-- 75 -->
      <g transform="translate(37.875 264.822789)scale(0.1 -0.1)">
       <defs>
        <path id="DejaVuSans-37" d="M 525 4666 
L 3525 4666 
L 3525 4397 
L 1831 0 
L 1172 0 
L 2766 4134 
L 525 4134 
L 525 4666 
z
" transform="scale(0.015625)"/>
       </defs>
       <use xlink:href="#DejaVuSans-37"/>
       <use xlink:href="#DejaVuSans-35" x="63.623047"/>
      </g>
     </g>
    </g>
    <g id="ytick_3">
     <g id="line2d_12">
      <g>
       <use xlink:href="#m28da73e437" x="57.6" y="227.884695" style="stroke: #000000; stroke-width: 0.8"/>
      </g>
     </g>
     <g id="text_12">
      <!-- 100 -->
      <g transform="translate(31.5125 231.683914)scale(0.1 -0.1)">
       <use xlink:href="#DejaVuSans-31"/>
       <use xlink:href="#DejaVuSans-30" x="63.623047"/>
       <use xlink:href="#DejaVuSans-30" x="127.246094"/>
      </g>
     </g>
    </g>
    <g id="ytick_4">
     <g id="line2d_13">
      <g>
       <use xlink:href="#m28da73e437" x="57.6" y="194.74582" style="stroke: #000000; stroke-width: 0.8"/>
      </g>
     </g>
     <g id="text_13">
      <!-- 125 -->
      <g transform="translate(31.5125 198.545039)scale(0.1 -0.1)">
       <use xlink:href="#DejaVuSans-31"/>
       <use xlink:href="#DejaVuSans-32" x="63.623047"/>
       <use xlink:href="#DejaVuSans-35" x="127.246094"/>
      </g>
     </g>
    </g>
    <g id="ytick_5">
     <g id="line2d_14">
      <g>
       <use xlink:href="#m28da73e437" x="57.6" y="161.606946" style="stroke: #000000; stroke-width: 0.8"/>
      </g>
     </g>
     <g id="text_14">
      <!-- 150 -->
      <g transform="translate(31.5125 165.406164)scale(0.1 -0.1)">
       <use xlink:href="#DejaVuSans-31"/>
       <use xlink:href="#DejaVuSans-35" x="63.623047"/>
       <use xlink:href="#DejaVuSans-30" x="127.246094"/>
      </g>
     </g>
    </g>
    <g id="ytick_6">
     <g id="line2d_15">
      <g>
       <use xlink:href="#m28da73e437" x="57.6" y="128.468071" style="stroke: #000000; stroke-width: 0.8"/>
      </g>
     </g>
     <g id="text_15">
      <!-- 175 -->
      <g transform="translate(31.5125 132.267289)scale(0.1 -0.1)">
       <use xlink:href="#DejaVuSans-31"/>
       <use xlink:href="#DejaVuSans-37" x="63.623047"/>
       <use xlink:href="#DejaVuSans-35" x="127.246094"/>
      </g>
     </g>
    </g>
    <g id="ytick_7">
     <g id="line2d_16">
      <g>
       <use xlink:href="#m28da73e437" x="57.6" y="95.329196" style="stroke: #000000; stroke-width: 0.8"/>
      </g>
     </g>
     <g id="text_16">
      <!-- 200 -->
      <g transform="translate(31.5125 99.128415)scale(0.1 -0.1)">
       <use xlink:href="#DejaVuSans-32"/>
       <use xlink:href="#DejaVuSans-30" x="63.623047"/>
       <use xlink:href="#DejaVuSans-30" x="127.246094"/>
      </g>
     </g>
    </g>
    <g id="ytick_8">
     <g id="line2d_17">
      <g>
       <use xlink:href="#m28da73e437" x="57.6" y="62.190321" style="stroke: #000000; stroke-width: 0.8"/>
      </g>
     </g>
     <g id="text_17">
      <!-- 225 -->
      <g transform="translate(31.5125 65.98954)scale(0.1 -0.1)">
       <use xlink:href="#DejaVuSans-32"/>
       <use xlink:href="#DejaVuSans-32" x="63.623047"/>
       <use xlink:href="#DejaVuSans-35" x="127.246094"/>
      </g>
     </g>
    </g>
   </g>
   <g id="line2d_18">
    <path d="M 73.832727 184.406491 
L 77.112066 185.124166 
L 80.391405 185.84184 
L 83.670744 186.559514 
L 86.950083 187.277188 
L 90.229421 187.994863 
L 93.50876 188.712537 
L 96.788099 189.430211 
L 100.067438 190.147885 
L 103.346777 190.865559 
L 106.626116 191.583234 
L 109.905455 192.300908 
L 113.184793 193.018582 
L 116.464132 193.736256 
L 119.743471 194.453931 
L 123.02281 195.171605 
L 126.302149 195.889279 
L 129.581488 196.606953 
L 132.860826 197.324627 
L 136.140165 198.042302 
L 139.419504 198.759976 
L 142.698843 199.47765 
L 145.978182 200.195324 
L 149.257521 200.912999 
L 152.53686 201.630673 
L 155.816198 202.348347 
L 159.095537 203.066021 
L 162.374876 203.783695 
L 165.654215 204.50137 
L 168.933554 205.219044 
L 172.212893 205.936718 
L 175.492231 206.654392 
L 178.77157 207.372066 
L 182.050909 208.089741 
L 185.330248 208.807415 
L 188.609587 209.525089 
L 191.888926 210.242763 
L 195.168264 210.960438 
L 198.447603 211.678112 
L 201.726942 212.395786 
L 205.006281 213.11346 
L 208.28562 213.831134 
L 211.564959 214.548809 
L 214.844298 215.266483 
L 218.123636 215.984157 
L 221.402975 216.701831 
L 224.682314 217.419506 
L 227.961653 218.13718 
L 231.240992 218.854854 
L 234.520331 219.572528 
L 237.799669 220.290202 
L 241.079008 221.007877 
L 244.358347 221.725551 
L 247.637686 222.443225 
L 250.917025 223.160899 
L 254.196364 223.878574 
L 257.475702 224.596248 
L 260.755041 225.313922 
L 264.03438 226.031596 
L 267.313719 226.74927 
L 270.593058 227.466945 
L 273.872397 228.184619 
L 277.151736 228.902293 
L 280.431074 229.619967 
L 283.710413 230.337642 
L 286.989752 231.055316 
L 290.269091 231.77299 
L 293.54843 232.490664 
L 296.827769 233.208338 
L 300.107107 233.926013 
L 303.386446 234.643687 
L 306.665785 235.361361 
L 309.945124 236.079035 
L 313.224463 236.796709 
L 316.503802 237.514384 
L 319.78314 238.232058 
L 323.062479 238.949732 
L 326.341818 239.667406 
L 329.621157 240.385081 
L 332.900496 241.102755 
L 336.179835 241.820429 
L 339.459174 242.538103 
L 342.738512 243.255777 
L 346.017851 243.973452 
L 349.29719 244.691126 
L 352.576529 245.4088 
L 355.855868 246.126474 
L 359.135207 246.844149 
L 362.414545 247.561823 
L 365.693884 248.279497 
L 368.973223 248.997171 
L 372.252562 249.714845 
L 375.531901 250.43252 
L 378.81124 251.150194 
L 382.090579 251.867868 
L 385.369917 252.585542 
L 388.649256 253.303217 
L 391.928595 254.020891 
L 395.207934 254.738565 
L 398.487273 255.456239 
" clip-path="url(#peacad11e59)" style="fill: none; stroke: #1f77b4; stroke-width: 2.25; stroke-linecap: square"/>
   </g>
   <g id="patch_3">
    <path d="M 57.6 307.584 
L 57.6 41.472 
" style="fill: none; stroke: #000000; stroke-width: 0.8; stroke-linejoin: miter; stroke-linecap: square"/>
   </g>
   <g id="patch_4">
    <path d="M 414.72 307.584 
L 414.72 41.472 
" style="fill: none; stroke: #000000; stroke-width: 0.8; stroke-linejoin: miter; stroke-linecap: square"/>
   </g>
   <g id="patch_5">
    <path d="M 57.6 307.584 
L 414.72 307.584 
" style="fill: none; stroke: #000000; stroke-width: 0.8; stroke-linejoin: miter; stroke-linecap: square"/>
   </g>
   <g id="patch_6">
    <path d="M 57.6 41.472 
L 414.72 41.472 
" style="fill: none; stroke: #000000; stroke-width: 0.8; stroke-linejoin: miter; stroke-linecap: square"/>
   </g>
  </g>
 </g>
 <defs>
  <clipPath id="peacad11e59">
   <rect x="57.6" y="41.472" width="357.12" height="266.112"/>
  </clipPath>
 </defs>
</svg>
